<?xml version="1.0"?>
<VTKFile type="PolyData" version="1.0">
  <PolyData>
    <Piece NumberOfPoints="200" NumberOfLines="1" NumberOfPolys="0">
      <Points>
        <DataArray type="Float64" NumberOfComponents="3" format="ascii">
          0.000000 15.500000 15.500000
          0.301508 15.500000 15.500000
          0.603015 15.500000 15.500000
          0.904523 15.500000 15.500000
          1.206030 15.500000 15.500000
          1.507538 15.500000 15.500000
          1.809045 15.500000 15.500000
          2.110553 15.500000 15.500000
          2.412060 15.500000 15.500000
          2.713568 15.500000 15.500000
          3.015075 15.500000 15.500000
          3.316583 15.500000 15.500000
          3.618090 15.500000 15.500000
          3.919598 15.500000 15.500000
          4.221106 15.500000 15.500000
          4.522613 15.500000 15.500000
          4.824121 15.500000 15.500000
          5.125628 15.500000 15.500000
          5.427136 15.500000 15.500000
          5.728643 15.500000 15.500000
          6.030151 15.500000 15.500000
          6.331658 15.500000 15.500000
          6.633166 15.500000 15.500000
          6.934673 15.500000 15.500000
          7.236181 15.500000 15.500000
          7.537688 15.500000 15.500000
          7.839196 15.500000 15.500000
          8.140704 15.500000 15.500000
          8.442211 15.500000 15.500000
          8.743719 15.500000 15.500000
          9.045226 15.500000 15.500000
          9.346734 15.500000 15.500000
          9.648241 15.500000 15.500000
          9.949749 15.500000 15.500000
          10.251256 15.500000 15.500000
          10.552764 15.500000 15.500000
          10.854271 15.500000 15.500000
          11.155779 15.500000 15.500000
          11.457286 15.500000 15.500000
          11.758794 15.500000 15.500000
          12.060302 15.500000 15.500000
          12.361809 15.500000 15.500000
          12.663317 15.500000 15.500000
          12.964824 15.500000 15.500000
          13.266332 15.500000 15.500000
          13.567839 15.500000 15.500000
          13.869347 15.500000 15.500000
          14.170854 15.500000 15.500000
          14.472362 15.500000 15.500000
          14.773869 15.500000 15.500000
          15.075377 15.500000 15.500000
          15.376884 15.500000 15.500000
          15.678392 15.500000 15.500000
          15.979899 15.500000 15.500000
          16.281407 15.500000 15.500000
          16.582915 15.500000 15.500000
          16.884422 15.500000 15.500000
          17.185930 15.500000 15.500000
          17.487437 15.500000 15.500000
          17.788945 15.500000 15.500000
          18.090452 15.500000 15.500000
          18.391960 15.500000 15.500000
          18.693467 15.500000 15.500000
          18.994975 15.500000 15.500000
          19.296482 15.500000 15.500000
          19.597990 15.500000 15.500000
          19.899497 15.500000 15.500000
          20.201005 15.500000 15.500000
          20.502513 15.500000 15.500000
          20.804020 15.500000 15.500000
          21.105528 15.500000 15.500000
          21.407035 15.500000 15.500000
          21.708543 15.500000 15.500000
          22.010050 15.500000 15.500000
          22.311558 15.500000 15.500000
          22.613065 15.500000 15.500000
          22.914573 15.500000 15.500000
          23.216080 15.500000 15.500000
          23.517588 15.500000 15.500000
          23.819095 15.500000 15.500000
          24.120603 15.500000 15.500000
          24.422111 15.500000 15.500000
          24.723618 15.500000 15.500000
          25.025126 15.500000 15.500000
          25.326633 15.500000 15.500000
          25.628141 15.500000 15.500000
          25.929648 15.500000 15.500000
          26.231156 15.500000 15.500000
          26.532663 15.500000 15.500000
          26.834171 15.500000 15.500000
          27.135678 15.500000 15.500000
          27.437186 15.500000 15.500000
          27.738693 15.500000 15.500000
          28.040201 15.500000 15.500000
          28.341709 15.500000 15.500000
          28.643216 15.500000 15.500000
          28.944724 15.500000 15.500000
          29.246231 15.500000 15.500000
          29.547739 15.500000 15.500000
          29.849246 15.500000 15.500000
          30.150754 15.500000 15.500000
          30.452261 15.500000 15.500000
          30.753769 15.500000 15.500000
          31.055276 15.500000 15.500000
          31.356784 15.500000 15.500000
          31.658291 15.500000 15.500000
          31.959799 15.500000 15.500000
          32.261307 15.500000 15.500000
          32.562814 15.500000 15.500000
          32.864322 15.500000 15.500000
          33.165829 15.500000 15.500000
          33.467337 15.500000 15.500000
          33.768844 15.500000 15.500000
          34.070352 15.500000 15.500000
          34.371859 15.500000 15.500000
          34.673367 15.500000 15.500000
          34.974874 15.500000 15.500000
          35.276382 15.500000 15.500000
          35.577889 15.500000 15.500000
          35.879397 15.500000 15.500000
          36.180905 15.500000 15.500000
          36.482412 15.500000 15.500000
          36.783920 15.500000 15.500000
          37.085427 15.500000 15.500000
          37.386935 15.500000 15.500000
          37.688442 15.500000 15.500000
          37.989950 15.500000 15.500000
          38.291457 15.500000 15.500000
          38.592965 15.500000 15.500000
          38.894472 15.500000 15.500000
          39.195980 15.500000 15.500000
          39.497487 15.500000 15.500000
          39.798995 15.500000 15.500000
          40.100503 15.500000 15.500000
          40.402010 15.500000 15.500000
          40.703518 15.500000 15.500000
          41.005025 15.500000 15.500000
          41.306533 15.500000 15.500000
          41.608040 15.500000 15.500000
          41.909548 15.500000 15.500000
          42.211055 15.500000 15.500000
          42.512563 15.500000 15.500000
          42.814070 15.500000 15.500000
          43.115578 15.500000 15.500000
          43.417085 15.500000 15.500000
          43.718593 15.500000 15.500000
          44.020101 15.500000 15.500000
          44.321608 15.500000 15.500000
          44.623116 15.500000 15.500000
          44.924623 15.500000 15.500000
          45.226131 15.500000 15.500000
          45.527638 15.500000 15.500000
          45.829146 15.500000 15.500000
          46.130653 15.500000 15.500000
          46.432161 15.500000 15.500000
          46.733668 15.500000 15.500000
          47.035176 15.500000 15.500000
          47.336683 15.500000 15.500000
          47.638191 15.500000 15.500000
          47.939698 15.500000 15.500000
          48.241206 15.500000 15.500000
          48.542714 15.500000 15.500000
          48.844221 15.500000 15.500000
          49.145729 15.500000 15.500000
          49.447236 15.500000 15.500000
          49.748744 15.500000 15.500000
          50.050251 15.500000 15.500000
          50.351759 15.500000 15.500000
          50.653266 15.500000 15.500000
          50.954774 15.500000 15.500000
          51.256281 15.500000 15.500000
          51.557789 15.500000 15.500000
          51.859296 15.500000 15.500000
          52.160804 15.500000 15.500000
          52.462312 15.500000 15.500000
          52.763819 15.500000 15.500000
          53.065327 15.500000 15.500000
          53.366834 15.500000 15.500000
          53.668342 15.500000 15.500000
          53.969849 15.500000 15.500000
          54.271357 15.500000 15.500000
          54.572864 15.500000 15.500000
          54.874372 15.500000 15.500000
          55.175879 15.500000 15.500000
          55.477387 15.500000 15.500000
          55.778894 15.500000 15.500000
          56.080402 15.500000 15.500000
          56.381910 15.500000 15.500000
          56.683417 15.500000 15.500000
          56.984925 15.500000 15.500000
          57.286432 15.500000 15.500000
          57.587940 15.500000 15.500000
          57.889447 15.500000 15.500000
          58.190955 15.500000 15.500000
          58.492462 15.500000 15.500000
          58.793970 15.500000 15.500000
          59.095477 15.500000 15.500000
          59.396985 15.500000 15.500000
          59.698492 15.500000 15.500000
          60.000000 15.500000 15.500000
        </DataArray>
      </Points>
      <Lines>
        <DataArray type="Int64" Name="connectivity" format="ascii">
          0 1 2 3 4 5 6 7 8 9 10 11 12 13 14 15 16 17 18 19 20 21 22 23 24 25 26 27 28 29 30 31 32 33 34 35 36 37 38 39 40 41 42 43 44 45 46 47 48 49 50 51 52 53 54 55 56 57 58 59 60 61 62 63 64 65 66 67 68 69 70 71 72 73 74 75 76 77 78 79 80 81 82 83 84 85 86 87 88 89 90 91 92 93 94 95 96 97 98 99 100 101 102 103 104 105 106 107 108 109 110 111 112 113 114 115 116 117 118 119 120 121 122 123 124 125 126 127 128 129 130 131 132 133 134 135 136 137 138 139 140 141 142 143 144 145 146 147 148 149 150 151 152 153 154 155 156 157 158 159 160 161 162 163 164 165 166 167 168 169 170 171 172 173 174 175 176 177 178 179 180 181 182 183 184 185 186 187 188 189 190 191 192 193 194 195 196 197 198 199
        </DataArray>
        <DataArray type="Int64" Name="offsets" format="ascii">
          200
        </DataArray>
      </Lines>
    </Piece>
  </PolyData>
</VTKFile>
