  0
SECTION
  2
HEADER
  9
$ACADVER
  1
AC1027
  9
$ACADMAINTVER
 70
105
  9
$DWGCODEPAGE
  3
ANSI_1252
  9
$LASTSAVEDBY
  1
ezdxf
  9
$REQUIREDVERSIONS
160
0
  9
$INSBASE
 10
0.0
 20
0.0
 30
0.0
  9
$EXTMIN
 10
1e+20
 20
1e+20
 30
1e+20
  9
$EXTMAX
 10
-1e+20
 20
-1e+20
 30
-1e+20
  9
$LIMMIN
 10
0.0
 20
0.0
  9
$LIMMAX
 10
420.0
 20
297.0
  9
$ORTHOMODE
 70
0
  9
$REGENMODE
 70
1
  9
$FILLMODE
 70
1
  9
$QTEXTMODE
 70
0
  9
$MIRRTEXT
 70
1
  9
$LTSCALE
 40
1.0
  9
$ATTMODE
 70
1
  9
$TEXTSIZE
 40
2.5
  9
$TRACEWID
 40
1.0
  9
$TEXTSTYLE
  7
Standard
  9
$CLAYER
  8
0
  9
$CELTYPE
  6
ByLayer
  9
$CECOLOR
 62
256
  9
$CELTSCALE
 40
1.0
  9
$DISPSILH
 70
0
  9
$DIMSCALE
 40
1.0
  9
$DIMASZ
 40
2.5
  9
$DIMEXO
 40
0.625
  9
$DIMDLI
 40
3.75
  9
$DIMRND
 40
0.0
  9
$DIMDLE
 40
0.0
  9
$DIMEXE
 40
1.25
  9
$DIMTP
 40
0.0
  9
$DIMTM
 40
0.0
  9
$DIMTXT
 40
2.5
  9
$DIMCEN
 40
2.5
  9
$DIMTSZ
 40
0.0
  9
$DIMTOL
 70
0
  9
$DIMLIM
 70
0
  9
$DIMTIH
 70
0
  9
$DIMTOH
 70
0
  9
$DIMSE1
 70
0
  9
$DIMSE2
 70
0
  9
$DIMTAD
 70
1
  9
$DIMZIN
 70
8
  9
$DIMBLK
  1

  9
$DIMASO
 70
1
  9
$DIMSHO
 70
1
  9
$DIMPOST
  1

  9
$DIMAPOST
  1

  9
$DIMALT
 70
0
  9
$DIMALTD
 70
3
  9
$DIMALTF
 40
0.03937007874
  9
$DIMLFAC
 40
1.0
  9
$DIMTOFL
 70
1
  9
$DIMTVP
 40
0.0
  9
$DIMTIX
 70
0
  9
$DIMSOXD
 70
0
  9
$DIMSAH
 70
0
  9
$DIMBLK1
  1

  9
$DIMBLK2
  1

  9
$DIMSTYLE
  2
ISO-25
  9
$DIMCLRD
 70
0
  9
$DIMCLRE
 70
0
  9
$DIMCLRT
 70
0
  9
$DIMTFAC
 40
1.0
  9
$DIMGAP
 40
0.625
  9
$DIMJUST
 70
0
  9
$DIMSD1
 70
0
  9
$DIMSD2
 70
0
  9
$DIMTOLJ
 70
0
  9
$DIMTZIN
 70
8
  9
$DIMALTZ
 70
0
  9
$DIMALTTZ
 70
0
  9
$DIMUPT
 70
0
  9
$DIMDEC
 70
2
  9
$DIMTDEC
 70
2
  9
$DIMALTU
 70
2
  9
$DIMALTTD
 70
3
  9
$DIMTXSTY
  7
Standard
  9
$DIMAUNIT
 70
0
  9
$DIMADEC
 70
0
  9
$DIMALTRND
 40
0.0
  9
$DIMAZIN
 70
0
  9
$DIMDSEP
 70
44
  9
$DIMATFIT
 70
3
  9
$DIMFRAC
 70
0
  9
$DIMLDRBLK
  1

  9
$DIMLUNIT
 70
2
  9
$DIMLWD
 70
-2
  9
$DIMLWE
 70
-2
  9
$DIMTMOVE
 70
0
  9
$DIMFXL
 40
1.0
  9
$DIMFXLON
 70
0
  9
$DIMJOGANG
 40
0.785398163397
  9
$DIMTFILL
 70
0
  9
$DIMTFILLCLR
 70
0
  9
$DIMARCSYM
 70
0
  9
$DIMLTYPE
  6

  9
$DIMLTEX1
  6

  9
$DIMLTEX2
  6

  9
$DIMTXTDIRECTION
 70
0
  9
$LUNITS
 70
2
  9
$LUPREC
 70
4
  9
$SKETCHINC
 40
1.0
  9
$FILLETRAD
 40
10.0
  9
$AUNITS
 70
0
  9
$AUPREC
 70
2
  9
$MENU
  1
.
  9
$ELEVATION
 40
0.0
  9
$PELEVATION
 40
0.0
  9
$THICKNESS
 40
0.0
  9
$LIMCHECK
 70
0
  9
$CHAMFERA
 40
0.0
  9
$CHAMFERB
 40
0.0
  9
$CHAMFERC
 40
0.0
  9
$CHAMFERD
 40
0.0
  9
$SKPOLY
 70
0
  9
$TDCREATE
 40
2461218.000173611
  9
$TDUCREATE
 40
2458532.153996898
  9
$TDUPDATE
 40
2461218.000173611
  9
$TDUUPDATE
 40
2458532.1544311
  9
$TDINDWG
 40
0.0
  9
$TDUSRTIMER
 40
0.0
  9
$USRTIMER
 70
1
  9
$ANGBASE
 50
0.0
  9
$ANGDIR
 70
0
  9
$PDMODE
 70
0
  9
$PDSIZE
 40
0.0
  9
$PLINEWID
 40
0.0
  9
$SPLFRAME
 70
0
  9
$SPLINETYPE
 70
6
  9
$SPLINESEGS
 70
8
  9
$HANDSEED
  5
7D
  9
$SURFTAB1
 70
6
  9
$SURFTAB2
 70
6
  9
$SURFTYPE
 70
6
  9
$SURFU
 70
6
  9
$SURFV
 70
6
  9
$UCSBASE
  2

  9
$UCSNAME
  2

  9
$UCSORG
 10
0.0
 20
0.0
 30
0.0
  9
$UCSXDIR
 10
1.0
 20
0.0
 30
0.0
  9
$UCSYDIR
 10
0.0
 20
1.0
 30
0.0
  9
$UCSORTHOREF
  2

  9
$UCSORTHOVIEW
 70
0
  9
$UCSORGTOP
 10
0.0
 20
0.0
 30
0.0
  9
$UCSORGBOTTOM
 10
0.0
 20
0.0
 30
0.0
  9
$UCSORGLEFT
 10
0.0
 20
0.0
 30
0.0
  9
$UCSORGRIGHT
 10
0.0
 20
0.0
 30
0.0
  9
$UCSORGFRONT
 10
0.0
 20
0.0
 30
0.0
  9
$UCSORGBACK
 10
0.0
 20
0.0
 30
0.0
  9
$PUCSBASE
  2

  9
$PUCSNAME
  2

  9
$PUCSORG
 10
0.0
 20
0.0
 30
0.0
  9
$PUCSXDIR
 10
1.0
 20
0.0
 30
0.0
  9
$PUCSYDIR
 10
0.0
 20
1.0
 30
0.0
  9
$PUCSORTHOREF
  2

  9
$PUCSORTHOVIEW
 70
0
  9
$PUCSORGTOP
 10
0.0
 20
0.0
 30
0.0
  9
$PUCSORGBOTTOM
 10
0.0
 20
0.0
 30
0.0
  9
$PUCSORGLEFT
 10
0.0
 20
0.0
 30
0.0
  9
$PUCSORGRIGHT
 10
0.0
 20
0.0
 30
0.0
  9
$PUCSORGFRONT
 10
0.0
 20
0.0
 30
0.0
  9
$PUCSORGBACK
 10
0.0
 20
0.0
 30
0.0
  9
$USERI1
 70
0
  9
$USERI2
 70
0
  9
$USERI3
 70
0
  9
$USERI4
 70
0
  9
$USERI5
 70
0
  9
$USERR1
 40
0.0
  9
$USERR2
 40
0.0
  9
$USERR3
 40
0.0
  9
$USERR4
 40
0.0
  9
$USERR5
 40
0.0
  9
$WORLDVIEW
 70
1
  9
$SHADEDGE
 70
3
  9
$SHADEDIF
 70
70
  9
$TILEMODE
 70
1
  9
$MAXACTVP
 70
64
  9
$PINSBASE
 10
0.0
 20
0.0
 30
0.0
  9
$PLIMCHECK
 70
0
  9
$PEXTMIN
 10
1e+20
 20
1e+20
 30
1e+20
  9
$PEXTMAX
 10
-1e+20
 20
-1e+20
 30
-1e+20
  9
$PLIMMIN
 10
0.0
 20
0.0
  9
$PLIMMAX
 10
420.0
 20
297.0
  9
$UNITMODE
 70
0
  9
$VISRETAIN
 70
1
  9
$PLINEGEN
 70
0
  9
$PSLTSCALE
 70
1
  9
$TREEDEPTH
 70
3020
  9
$CMLSTYLE
  2
Standard
  9
$CMLJUST
 70
0
  9
$CMLSCALE
 40
20.0
  9
$PROXYGRAPHICS
 70
1
  9
$MEASUREMENT
 70
1
  9
$CELWEIGHT
370
-1
  9
$ENDCAPS
280
0
  9
$JOINSTYLE
280
0
  9
$LWDISPLAY
290
0
  9
$INSUNITS
 70
4
  9
$HYPERLINKBASE
  1

  9
$STYLESHEET
  1

  9
$XEDIT
290
1
  9
$CEPSNTYPE
380
0
  9
$PSTYLEMODE
290
1
  9
$FINGERPRINTGUID
  2
{BFDA52CC-C2FA-45DD-983E-549F98A1E4DD}
  9
$VERSIONGUID
  2
{9599F0A3-D2C1-42B3-BC33-984E0D34870A}
  9
$EXTNAMES
290
1
  9
$PSVPSCALE
 40
0.0
  9
$OLESTARTUP
290
0
  9
$SORTENTS
280
127
  9
$INDEXCTL
280
0
  9
$HIDETEXT
280
1
  9
$XCLIPFRAME
280
1
  9
$HALOGAP
280
0
  9
$OBSCOLOR
 70
257
  9
$OBSLTYPE
280
0
  9
$INTERSECTIONDISPLAY
280
0
  9
$INTERSECTIONCOLOR
 70
257
  9
$DIMASSOC
280
2
  9
$PROJECTNAME
  1

  9
$CAMERADISPLAY
290
0
  9
$LENSLENGTH
 40
50.0
  9
$CAMERAHEIGHT
 40
0.0
  9
$STEPSPERSEC
 40
24.0
  9
$STEPSIZE
 40
100.0
  9
$3DDWFPREC
 40
2.0
  9
$PSOLWIDTH
 40
0.005
  9
$PSOLHEIGHT
 40
0.08
  9
$LOFTANG1
 40
1.570796326795
  9
$LOFTANG2
 40
1.570796326795
  9
$LOFTMAG1
 40
0.0
  9
$LOFTMAG2
 40
0.0
  9
$LOFTPARAM
 70
7
  9
$LOFTNORMALS
280
1
  9
$LATITUDE
 40
37.795
  9
$LONGITUDE
 40
-122.394
  9
$NORTHDIRECTION
 40
0.0
  9
$TIMEZONE
 70
-8000
  9
$LIGHTGLYPHDISPLAY
280
1
  9
$TILEMODELIGHTSYNCH
280
1
  9
$CMATERIAL
347
20
  9
$SOLIDHIST
280
0
  9
$SHOWHIST
280
1
  9
$DWFFRAME
280
2
  9
$DGNFRAME
280
2
  9
$REALWORLDSCALE
290
1
  9
$INTERFERECOLOR
 62
256
  9
$CSHADOW
280
0
  9
$SHADOWPLANELOCATION
 40
0.0
  0
ENDSEC
  0
SECTION
  2
CLASSES
  0
CLASS
  1
ACDBDICTIONARYWDFLT
  2
AcDbDictionaryWithDefault
  3
ObjectDBX Classes
 90
0
 91
0
280
0
281
0
  0
CLASS
  1
SUN
  2
AcDbSun
  3
SCENEOE
 90
1153
 91
0
280
0
281
0
  0
CLASS
  1
VISUALSTYLE
  2
AcDbVisualStyle
  3
ObjectDBX Classes
 90
4095
 91
0
280
0
281
0
  0
CLASS
  1
MATERIAL
  2
AcDbMaterial
  3
ObjectDBX Classes
 90
1153
 91
0
280
0
281
0
  0
CLASS
  1
SCALE
  2
AcDbScale
  3
ObjectDBX Classes
 90
1153
 91
0
280
0
281
0
  0
CLASS
  1
TABLESTYLE
  2
AcDbTableStyle
  3
ObjectDBX Classes
 90
4095
 91
0
280
0
281
0
  0
CLASS
  1
MLEADERSTYLE
  2
AcDbMLeaderStyle
  3
ACDB_MLEADERSTYLE_CLASS
 90
4095
 91
0
280
0
281
0
  0
CLASS
  1
DICTIONARYVAR
  2
AcDbDictionaryVar
  3
ObjectDBX Classes
 90
0
 91
0
280
0
281
0
  0
CLASS
  1
CELLSTYLEMAP
  2
AcDbCellStyleMap
  3
ObjectDBX Classes
 90
1152
 91
0
280
0
281
0
  0
CLASS
  1
MENTALRAYRENDERSETTINGS
  2
AcDbMentalRayRenderSettings
  3
SCENEOE
 90
1024
 91
0
280
0
281
0
  0
CLASS
  1
ACDBDETAILVIEWSTYLE
  2
AcDbDetailViewStyle
  3
ObjectDBX Classes
 90
1025
 91
0
280
0
281
0
  0
CLASS
  1
ACDBSECTIONVIEWSTYLE
  2
AcDbSectionViewStyle
  3
ObjectDBX Classes
 90
1025
 91
0
280
0
281
0
  0
CLASS
  1
RASTERVARIABLES
  2
AcDbRasterVariables
  3
ISM
 90
0
 91
0
280
0
281
0
  0
CLASS
  1
LAYOUT
  2
AcDbLayout
  3
ObjectDBX Classes
 90
0
 91
0
280
0
281
0
  0
CLASS
  1
ACDBPLACEHOLDER
  2
AcDbPlaceHolder
  3
ObjectDBX Classes
 90
0
 91
0
280
0
281
0
  0
ENDSEC
  0
SECTION
  2
TABLES
  0
TABLE
  2
VPORT
  5
8
330
0
100
AcDbSymbolTable
 70
1
  0
VPORT
  5
79
330
8
100
AcDbSymbolTableRecord
100
AcDbViewportTableRecord
  2
*Active
 70
0
 10
0.0
 20
0.0
 11
1.0
 21
1.0
 12
20.0
 22
14.996442329532922
 13
0.0
 23
0.0
 14
0.5
 24
0.5
 15
0.5
 25
0.5
 16
0.0
 26
0.0
 36
1.0
 17
0.0
 27
0.0
 37
0.0
 40
9.942156659170843
 41
1.34
 42
50.0
 43
0.0
 44
0.0
 50
0.0
 51
0.0
 71
0
 72
1000
 73
1
 74
3
 75
0
 76
0
 77
0
 78
0
281
0
 65
1
110
0.0
120
0.0
130
0.0
111
1.0
121
0.0
131
0.0
112
0.0
122
1.0
132
0.0
 79
0
146
0.0
  0
ENDTAB
  0
TABLE
  2
LTYPE
  5
2
330
0
100
AcDbSymbolTable
 70
3
  0
LTYPE
  5
24
330
2
100
AcDbSymbolTableRecord
100
AcDbLinetypeTableRecord
  2
ByBlock
 70
0
  3

 72
65
 73
0
 40
0.0
  0
LTYPE
  5
25
330
2
100
AcDbSymbolTableRecord
100
AcDbLinetypeTableRecord
  2
ByLayer
 70
0
  3

 72
65
 73
0
 40
0.0
  0
LTYPE
  5
26
330
2
100
AcDbSymbolTableRecord
100
AcDbLinetypeTableRecord
  2
Continuous
 70
0
  3

 72
65
 73
0
 40
0.0
  0
ENDTAB
  0
TABLE
  2
LAYER
  5
1
330
0
100
AcDbSymbolTable
 70
2
  0
LAYER
  5
27
330
1
100
AcDbSymbolTableRecord
100
AcDbLayerTableRecord
  2
0
 70
0
 62
7
  6
Continuous
370
-3
390
13
347
21
  0
LAYER
  5
28
330
1
100
AcDbSymbolTableRecord
100
AcDbLayerTableRecord
  2
Defpoints
 70
0
 62
7
  6
Continuous
290
0
370
-3
390
13
347
21
  0
ENDTAB
  0
TABLE
  2
STYLE
  5
5
330
0
100
AcDbSymbolTable
 70
1
  0
STYLE
  5
29
330
5
100
AcDbSymbolTableRecord
100
AcDbTextStyleTableRecord
  2
Standard
 70
0
 40
0.0
 41
1.0
 50
0.0
 71
0
 42
2.5
  3
txt
  4

  0
ENDTAB
  0
TABLE
  2
VIEW
  5
7
330
0
100
AcDbSymbolTable
 70
0
  0
ENDTAB
  0
TABLE
  2
UCS
  5
6
330
0
100
AcDbSymbolTable
 70
0
  0
ENDTAB
  0
TABLE
  2
APPID
  5
3
330
0
100
AcDbSymbolTable
 70
3
  0
APPID
  5
2A
330
3
100
AcDbSymbolTableRecord
100
AcDbRegAppTableRecord
  2
ACAD
 70
0
  0
APPID
  5
7A
330
3
100
AcDbSymbolTableRecord
100
AcDbRegAppTableRecord
  2
HATCHBACKGROUNDCOLOR
 70
0
  0
APPID
  5
7B
330
3
100
AcDbSymbolTableRecord
100
AcDbRegAppTableRecord
  2
EZDXF
 70
0
  0
ENDTAB
  0
TABLE
  2
DIMSTYLE
  5
4
330
0
100
AcDbSymbolTable
 70
1
100
AcDbDimStyleTable
  0
DIMSTYLE
105
2B
330
4
100
AcDbSymbolTableRecord
100
AcDbDimStyleTableRecord
  2
Standard
 70
0
 40
1.0
 41
2.5
 42
0.625
 43
3.75
 44
1.25
 45
0.0
 46
0.0
 47
0.0
 48
0.0
 49
2.5
140
2.5
141
2.5
142
0.0
143
0.03937007874
144
1.0
145
0.0
146
1.0
147
0.625
148
0.0
 69
0
 70
0
 71
0
 72
0
 73
0
 74
0
 75
0
 76
0
 77
1
 78
8
 79
3
170
0
171
3
172
1
173
0
174
0
175
0
176
0
177
0
178
0
179
2
271
2
272
2
273
2
274
3
275
0
276
0
277
2
278
44
279
0
280
0
281
0
282
0
283
0
284
8
285
0
286
0
288
0
289
3
290
0
371
-2
372
-2
  0
ENDTAB
  0
TABLE
  2
BLOCK_RECORD
  5
9
330
0
100
AcDbSymbolTable
 70
2
  0
BLOCK_RECORD
  5
17
330
9
100
AcDbSymbolTableRecord
100
AcDbBlockTableRecord
  2
*Model_Space
340
1A
 70
0
280
1
281
0
  0
BLOCK_RECORD
  5
1B
330
9
100
AcDbSymbolTableRecord
100
AcDbBlockTableRecord
  2
*Paper_Space
340
1E
 70
0
280
1
281
0
  0
ENDTAB
  0
ENDSEC
  0
SECTION
  2
BLOCKS
  0
BLOCK
  5
18
330
17
100
AcDbEntity
  8
0
100
AcDbBlockBegin
  2
*Model_Space
 70
0
 10
0.0
 20
0.0
 30
0.0
  3
*Model_Space
  1

  0
ENDBLK
  5
19
330
17
100
AcDbEntity
  8
0
100
AcDbBlockEnd
  0
BLOCK
  5
1C
330
1B
100
AcDbEntity
  8
0
100
AcDbBlockBegin
  2
*Paper_Space
 70
0
 10
0.0
 20
0.0
 30
0.0
  3
*Paper_Space
  1

  0
ENDBLK
  5
1D
330
1B
100
AcDbEntity
  8
0
100
AcDbBlockEnd
  0
ENDSEC
  0
SECTION
  2
ENTITIES
  0
LINE
  5
2F
330
17
100
AcDbEntity
  8
0
100
AcDbLine
 10
20.0
 20
18.524112834982823
 30
13.798495354472937
 11
20.0
 21
17.39504416013734
 31
13.77353967519999
  0
LINE
  5
30
330
17
100
AcDbEntity
  8
0
100
AcDbLine
 10
20.0
 20
15.430933983948313
 30
14.607220864561034
 11
20.0
 21
14.552978773895589
 31
14.93285600088133
  0
LINE
  5
31
330
17
100
AcDbEntity
  8
0
100
AcDbLine
 10
20.0
 20
12.66608240357644
 30
13.744242139512707
 11
20.0
 21
13.61695008458984
 31
13.24859711221194
  0
LINE
  5
32
330
17
100
AcDbEntity
  8
0
100
AcDbLine
 10
20.0
 20
15.913742762591946
 30
15.62252925310124
 11
20.0
 21
15.329301635168239
 31
15.745487278081507
  0
LINE
  5
33
330
17
100
AcDbEntity
  8
0
100
AcDbLine
 10
20.0
 20
17.404019057063298
 30
15.510899283752272
 11
20.0
 21
17.571524273172564
 31
16.909308268862617
  0
LINE
  5
34
330
17
100
AcDbEntity
  8
0
100
AcDbLine
 10
20.0
 20
12.659458327828672
 30
17.80473518420423
 11
20.0
 21
15.085116475958053
 31
19.842011722632215
  0
LINE
  5
35
330
17
100
AcDbEntity
  8
0
100
AcDbLine
 10
20.0
 20
15.307397807091673
 30
10.615195624381371
 11
20.0
 21
15.09648668694325
 31
10.48851579204203
  0
LINE
  5
36
330
17
100
AcDbEntity
  8
0
100
AcDbLine
 10
20.0
 20
12.444822564013858
 30
15.314693115520308
 11
20.0
 21
12.113878633853925
 31
16.28918108345464
  0
LINE
  5
37
330
17
100
AcDbEntity
  8
0
100
AcDbLine
 10
20.0
 20
16.964164334805012
 30
17.30401473496929
 11
20.0
 21
18.158048683356473
 31
16.68429613366243
  0
LINE
  5
38
330
17
100
AcDbEntity
  8
0
100
AcDbLine
 10
20.0
 20
15.495761612651386
 30
16.68359783459859
 11
20.0
 21
15.017087483352555
 31
16.10538927825815
  0
LINE
  5
39
330
17
100
AcDbEntity
  8
0
100
AcDbLine
 10
20.0
 20
14.618446628838424
 30
17.964837903952354
 11
20.0
 21
15.623354479227503
 31
16.700891753351176
  0
LINE
  5
3A
330
17
100
AcDbEntity
  8
0
100
AcDbLine
 10
20.0
 20
12.602116764551672
 30
11.664012915265996
 11
20.0
 21
11.796489050579787
 31
12.293495922213552
  0
LINE
  5
3B
330
17
100
AcDbEntity
  8
0
100
AcDbLine
 10
20.0
 20
12.832115036099465
 30
14.998323428190266
 11
20.0
 21
14.2075829031277
 31
16.514285622097976
  0
LINE
  5
3C
330
17
100
AcDbEntity
  8
0
100
AcDbLine
 10
20.0
 20
11.45980084426977
 30
18.48474690244662
 11
20.0
 21
13.75996132190217
 31
17.421708415377132
  0
LINE
  5
3D
330
17
100
AcDbEntity
  8
0
100
AcDbLine
 10
20.0
 20
11.20067458700746
 30
14.041274176647212
 11
20.0
 21
11.842862014547181
 31
13.284228785224842
  0
LINE
  5
3E
330
17
100
AcDbEntity
  8
0
100
AcDbLine
 10
20.0
 20
15.225450080047521
 30
14.286101730770165
 11
20.0
 21
16.104002292617544
 31
15.121104491592904
  0
LINE
  5
3F
330
17
100
AcDbEntity
  8
0
100
AcDbLine
 10
20.0
 20
19.677780557121128
 30
16.765890443776044
 11
20.0
 21
19.361266439845842
 31
16.623052381433027
  0
LINE
  5
40
330
17
100
AcDbEntity
  8
0
100
AcDbLine
 10
20.0
 20
16.199262737994527
 30
13.68222524545451
 11
20.0
 21
17.215965786097062
 31
14.46160777263608
  0
LINE
  5
41
330
17
100
AcDbEntity
  8
0
100
AcDbLine
 10
20.0
 20
11.390649255325634
 30
13.75068270034617
 11
20.0
 21
10.731411332967507
 31
13.617453231111293
  0
LINE
  5
42
330
17
100
AcDbEntity
  8
0
100
AcDbLine
 10
20.0
 20
14.98634398829993
 30
15.284649614754294
 11
20.0
 21
14.285191685744707
 31
14.694983898493051
  0
LINE
  5
43
330
17
100
AcDbEntity
  8
0
100
AcDbLine
 10
20.0
 20
16.96971106140054
 30
18.309279891839054
 11
20.0
 21
16.007089079349537
 31
17.747512579315426
  0
LINE
  5
44
330
17
100
AcDbEntity
  8
0
100
AcDbLine
 10
20.0
 20
11.23872531586046
 30
13.50282360632279
 11
20.0
 21
10.131548584746476
 31
13.860622618569263
  0
LINE
  5
45
330
17
100
AcDbEntity
  8
0
100
AcDbLine
 10
20.0
 20
14.017705344018786
 30
18.826207484921245
 11
20.0
 21
13.286798835539855
 31
17.850583261771334
  0
LINE
  5
46
330
17
100
AcDbEntity
  8
0
100
AcDbLine
 10
20.0
 20
14.371281486573686
 30
10.039686196330416
 11
20.0
 21
14.494111490355639
 31
10.436450348560577
  0
LINE
  5
47
330
17
100
AcDbEntity
  8
0
100
AcDbLine
 10
20.0
 20
15.258220940663168
 30
15.83227867115654
 11
20.0
 21
18.917836672966203
 31
16.177943493024163
  0
LINE
  5
48
330
17
100
AcDbEntity
  8
0
100
AcDbLine
 10
20.0
 20
18.39015416467497
 30
14.031589244543015
 11
20.0
 21
18.454126403502418
 31
14.976105248026297
  0
LINE
  5
49
330
17
100
AcDbEntity
  8
0
100
AcDbLine
 10
20.0
 20
10.933367091658582
 30
14.329514950850971
 11
20.0
 21
11.387187333085661
 31
14.479051479797576
  0
LINE
  5
4A
330
17
100
AcDbEntity
  8
0
100
AcDbLine
 10
20.0
 20
16.96059166506294
 30
12.06090085512863
 11
20.0
 21
16.778438823759963
 31
10.918028306050989
  0
LINE
  5
4B
330
17
100
AcDbEntity
  8
0
100
AcDbLine
 10
20.0
 20
11.148277183435606
 30
16.222971935489863
 11
20.0
 21
10.671144209537637
 31
16.187750251111115
  0
LINE
  5
4C
330
17
100
AcDbEntity
  8
0
100
AcDbLine
 10
20.0
 20
17.60751371712362
 30
17.138636607318563
 11
20.0
 21
17.04031104753844
 31
18.525450101308024
  0
LINE
  5
4D
330
17
100
AcDbEntity
  8
0
100
AcDbLine
 10
20.0
 20
13.962263134373675
 30
18.69857713958972
 11
20.0
 21
13.763296351795455
 31
17.75083382395828
  0
LINE
  5
4E
330
17
100
AcDbEntity
  8
0
100
AcDbLine
 10
20.0
 20
19.904912915243948
 30
15.970478899241566
 11
20.0
 21
19.040492976412832
 31
15.189445335194845
  0
LINE
  5
4F
330
17
100
AcDbEntity
  8
0
100
AcDbLine
 10
20.0
 20
19.967520659118343
 30
14.431019770789469
 11
20.0
 21
19.732713753817656
 31
13.942904561867524
  0
LINE
  5
50
330
17
100
AcDbEntity
  8
0
100
AcDbLine
 10
20.0
 20
14.070533489655723
 30
10.319831945941548
 11
20.0
 21
14.106998890871752
 31
10.080391375414532
  0
LINE
  5
51
330
17
100
AcDbEntity
  8
0
100
AcDbLine
 10
20.0
 20
16.537053901876074
 30
19.489451007966736
 11
20.0
 21
17.24067966282047
 31
18.62127508894354
  0
LINE
  5
52
330
17
100
AcDbEntity
  8
0
100
AcDbLine
 10
20.0
 20
14.364734617552259
 30
18.6956920773574
 11
20.0
 21
13.96353080189606
 31
19.235144004279416
  0
LINE
  5
53
330
17
100
AcDbEntity
  8
0
100
AcDbLine
 10
20.0
 20
13.743902589984547
 30
14.290092500507942
 11
20.0
 21
12.771897283596905
 31
15.978060249402839
  0
LINE
  5
54
330
17
100
AcDbEntity
  8
0
100
AcDbLine
 10
20.0
 20
13.438081211720325
 30
19.74977996320029
 11
20.0
 21
13.709640523079074
 31
19.814541494374918
  0
LINE
  5
55
330
17
100
AcDbEntity
  8
0
100
AcDbLine
 10
20.0
 20
19.05508547099772
 30
12.448168414838147
 11
20.0
 21
18.332832906338087
 31
11.631313201658307
  0
LINE
  5
56
330
17
100
AcDbEntity
  8
0
100
AcDbLine
 10
20.0
 20
16.961827279679223
 30
10.767722071630605
 11
20.0
 21
16.671194302837613
 31
10.43293988681403
  0
LINE
  5
57
330
17
100
AcDbEntity
  8
0
100
AcDbLine
 10
20.0
 20
11.263136774992716
 30
17.004744437518774
 11
20.0
 21
10.838187303719476
 31
17.771157714941218
  0
LINE
  5
58
330
17
100
AcDbEntity
  8
0
100
AcDbLine
 10
20.0
 20
19.18338357963926
 30
14.099898957809136
 11
20.0
 21
19.49222908542948
 31
13.165660618579723
  0
LINE
  5
59
330
17
100
AcDbEntity
  8
0
100
AcDbLine
 10
20.0
 20
16.841169448508378
 30
18.98886471239445
 11
20.0
 21
16.930756215988406
 31
18.28005355276271
  0
LINE
  5
5A
330
17
100
AcDbEntity
  8
0
100
AcDbLine
 10
20.0
 20
18.971694502695453
 30
16.92089998980553
 11
20.0
 21
18.562953314397085
 31
16.193300043981335
  0
LINE
  5
5B
330
17
100
AcDbEntity
  8
0
100
AcDbLine
 10
20.0
 20
13.63899876283264
 30
10.188796862277698
 11
20.0
 21
14.804707721077538
 31
15.01364798818883
  0
LINE
  5
5C
330
17
100
AcDbEntity
  8
0
100
AcDbLine
 10
20.0
 20
11.527766621115802
 30
15.056149901804957
 11
20.0
 21
12.693592098063045
 31
16.462142147259637
  0
LINE
  5
5D
330
17
100
AcDbEntity
  8
0
100
AcDbLine
 10
20.0
 20
13.331219676801188
 30
19.43452337513964
 11
20.0
 21
13.45347012293569
 31
19.754812860602133
  0
LINE
  5
5E
330
17
100
AcDbEntity
  8
0
100
AcDbLine
 10
20.0
 20
10.0253639999475
 30
15.502987740389027
 11
20.0
 21
10.493324678208076
 31
16.179821498096715
  0
LINE
  5
5F
330
17
100
AcDbEntity
  8
0
100
AcDbLine
 10
20.0
 20
17.04299371176803
 30
14.745678391000183
 11
20.0
 21
16.550975395713664
 31
15.532449491191786
  0
LINE
  5
60
330
17
100
AcDbEntity
  8
0
100
AcDbLine
 10
20.0
 20
13.22689550028149
 30
17.774948334357628
 11
20.0
 21
13.796149343269288
 31
16.861670295360597
  0
LINE
  5
61
330
17
100
AcDbEntity
  8
0
100
AcDbLine
 10
20.0
 20
15.737057080640692
 30
10.054623688749519
 11
20.0
 21
16.118194187324185
 31
10.421568155600431
  0
LINE
  5
62
330
17
100
AcDbEntity
  8
0
100
AcDbLine
 10
20.0
 20
10.723834032652722
 30
17.58062271944651
 11
20.0
 21
12.277367723059333
 31
17.43446266193611
  0
LINE
  5
63
330
17
100
AcDbEntity
  8
0
100
AcDbLine
 10
20.0
 20
12.36918187860761
 30
10.748083254324772
 11
20.0
 21
13.105992899434867
 31
11.119549016791792
  0
LINE
  5
64
330
17
100
AcDbEntity
  8
0
100
AcDbLine
 10
20.0
 20
19.962435835017125
 30
14.388256112954213
 11
20.0
 21
19.43316768690565
 31
13.973450208207218
  0
LINE
  5
65
330
17
100
AcDbEntity
  8
0
100
AcDbLine
 10
20.0
 20
12.782228119953018
 30
18.132857801448285
 11
20.0
 21
13.57438940126966
 31
18.59629134230382
  0
LINE
  5
66
330
17
100
AcDbEntity
  8
0
100
AcDbLine
 10
20.0
 20
16.517664563460848
 30
19.687168352456247
 11
20.0
 21
15.616836152461287
 31
19.55777444280861
  0
LINE
  5
67
330
17
100
AcDbEntity
  8
0
100
AcDbLine
 10
20.0
 20
14.768338468850168
 30
19.25985847199386
 11
20.0
 21
15.053699769384064
 31
18.457572587341282
  0
LINE
  5
68
330
17
100
AcDbEntity
  8
0
100
AcDbLine
 10
20.0
 20
10.468386362699896
 30
17.11293110210336
 11
20.0
 21
11.02448306410827
 31
16.43548460015273
  0
LINE
  5
69
330
17
100
AcDbEntity
  8
0
100
AcDbLine
 10
20.0
 20
14.942988254880758
 30
19.214129403792175
 11
20.0
 21
17.669326474872747
 31
19.227847699544466
  0
LINE
  5
6A
330
17
100
AcDbEntity
  8
0
100
AcDbLine
 10
20.0
 20
16.639554285189924
 30
19.72354334646305
 11
20.0
 21
16.779383431347483
 31
19.383762367366845
  0
LINE
  5
6B
330
17
100
AcDbEntity
  8
0
100
AcDbLine
 10
20.0
 20
13.660246441440332
 30
18.140395666533447
 11
20.0
 21
13.812647630431385
 31
17.267494309103967
  0
LINE
  5
6C
330
17
100
AcDbEntity
  8
0
100
AcDbLine
 10
20.0
 20
11.99387721346196
 30
13.766667189076028
 11
20.0
 21
12.373849634490398
 31
12.806546394309018
  0
LINE
  5
6D
330
17
100
AcDbEntity
  8
0
100
AcDbLine
 10
20.0
 20
17.567307936595906
 30
10.70943710468059
 11
20.0
 21
17.74593691937936
 31
11.264798950517624
  0
LINE
  5
6E
330
17
100
AcDbEntity
  8
0
100
AcDbLine
 10
20.0
 20
18.49276212632744
 30
15.6561489233895
 11
20.0
 21
19.622918720223076
 31
15.240684122501609
  0
LINE
  5
6F
330
17
100
AcDbEntity
  8
0
100
AcDbLine
 10
20.0
 20
17.786702823479853
 30
14.614087391269996
 11
20.0
 21
17.285214752959753
 31
13.827039999892424
  0
LINE
  5
70
330
17
100
AcDbEntity
  8
0
100
AcDbLine
 10
20.0
 20
16.566695845552424
 30
12.446927966802845
 11
20.0
 21
16.631834479183183
 31
11.01466365422078
  0
LINE
  5
71
330
17
100
AcDbEntity
  8
0
100
AcDbLine
 10
20.0
 20
10.560466574780841
 30
16.72451091514135
 11
20.0
 21
11.284908789419388
 31
17.42976442199987
  0
LINE
  5
72
330
17
100
AcDbEntity
  8
0
100
AcDbLine
 10
20.0
 20
11.988633963094463
 30
15.720530052073943
 11
20.0
 21
11.853590912657031
 31
14.46574189875859
  0
LINE
  5
73
330
17
100
AcDbEntity
  8
0
100
AcDbLine
 10
20.0
 20
14.381538502546631
 30
10.552581450892498
 11
20.0
 21
15.421408461508225
 31
10.01779015811565
  0
LINE
  5
74
330
17
100
AcDbEntity
  8
0
100
AcDbLine
 10
20.0
 20
16.305263783037656
 30
10.733191230788353
 11
20.0
 21
14.184980899074091
 31
11.436540336395096
  0
LINE
  5
75
330
17
100
AcDbEntity
  8
0
100
AcDbLine
 10
20.0
 20
18.22952668239974
 30
14.936051905654466
 11
20.0
 21
17.700666160252833
 31
16.533387522553348
  0
LINE
  5
76
330
17
100
AcDbEntity
  8
0
100
AcDbLine
 10
20.0
 20
13.674487492601845
 30
11.428409938768208
 11
20.0
 21
12.732132655392572
 31
11.34132488066168
  0
LINE
  5
77
330
17
100
AcDbEntity
  8
0
100
AcDbLine
 10
20.0
 20
10.222975020471955
 30
15.619251458311204
 11
20.0
 21
10.038384897143414
 31
15.618365240861285
  0
LINE
  5
78
330
17
100
AcDbEntity
  8
0
100
AcDbLine
 10
20.0
 20
12.369306254393228
 30
18.765068745997997
 11
20.0
 21
13.6953627703118
 31
19.322907464217103
  0
ENDSEC
  0
SECTION
  2
OBJECTS
  0
DICTIONARY
  5
A
330
0
100
AcDbDictionary
281
1
  3
ACAD_COLOR
350
B
  3
ACAD_GROUP
350
C
  3
ACAD_LAYOUT
350
D
  3
ACAD_MATERIAL
350
E
  3
ACAD_MLEADERSTYLE
350
F
  3
ACAD_MLINESTYLE
350
10
  3
ACAD_PLOTSETTINGS
350
11
  3
ACAD_PLOTSTYLENAME
350
12
  3
ACAD_SCALELIST
350
14
  3
ACAD_TABLESTYLE
350
15
  3
ACAD_VISUALSTYLE
350
16
  3
EZDXF_META
350
2D
  0
DICTIONARY
  5
B
330
A
100
AcDbDictionary
281
1
  0
DICTIONARY
  5
C
330
A
100
AcDbDictionary
281
1
  0
DICTIONARY
  5
D
330
A
100
AcDbDictionary
281
1
  3
Model
350
1A
  3
Layout1
350
1E
  0
DICTIONARY
  5
E
330
A
100
AcDbDictionary
281
1
  3
ByBlock
350
1F
  3
ByLayer
350
20
  3
Global
350
21
  0
DICTIONARY
  5
F
330
A
100
AcDbDictionary
281
1
  3
Standard
350
2C
  0
DICTIONARY
  5
10
330
A
100
AcDbDictionary
281
1
  3
Standard
350
22
  0
DICTIONARY
  5
11
330
A
100
AcDbDictionary
281
1
  0
ACDBDICTIONARYWDFLT
  5
12
330
A
100
AcDbDictionary
281
1
  3
Normal
350
13
100
AcDbDictionaryWithDefault
340
13
  0
ACDBPLACEHOLDER
  5
13
330
12
  0
DICTIONARY
  5
14
330
A
100
AcDbDictionary
281
1
  0
DICTIONARY
  5
15
330
A
100
AcDbDictionary
281
1
  0
DICTIONARY
  5
16
330
A
100
AcDbDictionary
281
1
  0
LAYOUT
  5
1A
330
D
100
AcDbPlotSettings
  1

  4
A3
  6

 40
7.5
 41
20.0
 42
7.5
 43
20.0
 44
420.0
 45
297.0
 46
0.0
 47
0.0
 48
0.0
 49
0.0
140
0.0
141
0.0
142
1.0
143
1.0
 70
1024
 72
1
 73
0
 74
5
  7

 75
16
 76
0
 77
2
 78
300
147
1.0
148
0.0
149
0.0
100
AcDbLayout
  1
Model
 70
1
 71
0
 10
0.0
 20
0.0
 11
420.0
 21
297.0
 12
0.0
 22
0.0
 32
0.0
 14
1e+20
 24
1e+20
 34
1e+20
 15
-1e+20
 25
-1e+20
 35
-1e+20
146
0.0
 13
0.0
 23
0.0
 33
0.0
 16
1.0
 26
0.0
 36
0.0
 17
0.0
 27
1.0
 37
0.0
 76
1
330
17
  0
LAYOUT
  5
1E
330
D
100
AcDbPlotSettings
  1

  4
A3
  6

 40
7.5
 41
20.0
 42
7.5
 43
20.0
 44
420.0
 45
297.0
 46
0.0
 47
0.0
 48
0.0
 49
0.0
140
0.0
141
0.0
142
1.0
143
1.0
 70
0
 72
1
 73
0
 74
5
  7

 75
16
 76
0
 77
2
 78
300
147
1.0
148
0.0
149
0.0
100
AcDbLayout
  1
Layout1
 70
1
 71
1
 10
0.0
 20
0.0
 11
420.0
 21
297.0
 12
0.0
 22
0.0
 32
0.0
 14
1e+20
 24
1e+20
 34
1e+20
 15
-1e+20
 25
-1e+20
 35
-1e+20
146
0.0
 13
0.0
 23
0.0
 33
0.0
 16
1.0
 26
0.0
 36
0.0
 17
0.0
 27
1.0
 37
0.0
 76
1
330
1B
  0
MATERIAL
  5
1F
102
{ACAD_REACTORS
330
E
102
}
330
E
100
AcDbMaterial
  1
ByBlock
  2

 70
0
 40
1.0
 71
1
 41
1.0
 91
-1023410177
 42
1.0
 72
1
  3

 73
1
 74
1
 75
1
 44
0.5
 73
0
 45
1.0
 46
1.0
 77
1
  4

 78
1
 79
1
170
1
 48
1.0
171
1
  6

172
1
173
1
174
1
140
1.0
141
1.0
175
1
  7

176
1
177
1
178
1
143
1.0
179
1
  8

270
1
271
1
272
1
145
1.0
146
1.0
273
1
  9

274
1
275
1
276
1
 42
1.0
 72
1
  3

 73
1
 74
1
 75
1
 94
63
  0
MATERIAL
  5
20
102
{ACAD_REACTORS
330
E
102
}
330
E
100
AcDbMaterial
  1
ByLayer
  2

 70
0
 40
1.0
 71
1
 41
1.0
 91
-1023410177
 42
1.0
 72
1
  3

 73
1
 74
1
 75
1
 44
0.5
 73
0
 45
1.0
 46
1.0
 77
1
  4

 78
1
 79
1
170
1
 48
1.0
171
1
  6

172
1
173
1
174
1
140
1.0
141
1.0
175
1
  7

176
1
177
1
178
1
143
1.0
179
1
  8

270
1
271
1
272
1
145
1.0
146
1.0
273
1
  9

274
1
275
1
276
1
 42
1.0
 72
1
  3

 73
1
 74
1
 75
1
 94
63
  0
MATERIAL
  5
21
102
{ACAD_REACTORS
330
E
102
}
330
E
100
AcDbMaterial
  1
Global
  2

 70
0
 40
1.0
 71
1
 41
1.0
 91
-1023410177
 42
1.0
 72
1
  3

 73
1
 74
1
 75
1
 44
0.5
 73
0
 45
1.0
 46
1.0
 77
1
  4

 78
1
 79
1
170
1
 48
1.0
171
1
  6

172
1
173
1
174
1
140
1.0
141
1.0
175
1
  7

176
1
177
1
178
1
143
1.0
179
1
  8

270
1
271
1
272
1
145
1.0
146
1.0
273
1
  9

274
1
275
1
276
1
 42
1.0
 72
1
  3

 73
1
 74
1
 75
1
 94
63
  0
MLINESTYLE
  5
22
102
{ACAD_REACTORS
330
10
102
}
330
10
100
AcDbMlineStyle
  2
Standard
 70
0
  3

 62
256
 51
90.0
 52
90.0
 71
2
 49
0.5
 62
256
  6
BYLAYER
 49
-0.5
 62
256
  6
BYLAYER
  0
MLEADERSTYLE
  5
2C
102
{ACAD_REACTORS
330
F
102
}
330
F
100
AcDbMLeaderStyle
179
2
170
2
171
1
172
0
 90
2
 40
0.0
 41
0.0
173
1
 91
-1056964608
 92
-2
290
1
 42
2.0
291
1
 43
8.0
  3
Standard
 44
4.0
300

342
29
174
1
175
1
176
0
178
1
 93
-1056964608
 45
4.0
292
0
297
0
 46
4.0
 94
-1056964608
 47
1.0
 49
1.0
140
1.0
294
1
141
0.0
177
0
142
1.0
295
0
296
0
143
3.75
271
0
272
9
273
9
  0
DICTIONARY
  5
2D
330
A
100
AcDbDictionary
280
1
281
1
  3
CREATED_BY_EZDXF
350
2E
  3
WRITTEN_BY_EZDXF
350
7C
  0
DICTIONARYVAR
  5
2E
330
2D
100
DictionaryVariables
280
0
  1
1.4.2 @ 2026-06-25T15:00:15.031059+00:00
  0
DICTIONARYVAR
  5
7C
330
2D
100
DictionaryVariables
280
0
  1
1.4.2 @ 2026-06-25T15:00:15.035025+00:00
  0
ENDSEC
  0
EOF
