<?xml version="1.0"?>
<VTKFile type="PolyData" version="1.0">
  <PolyData>
    <Piece NumberOfPoints="160" NumberOfLines="80" NumberOfPolys="0">
      <Points>
        <DataArray type="Float64" NumberOfComponents="3" format="ascii">
          40.000000 11.131949 11.951971
          40.000000 10.580948 12.660774
          40.000000 10.503775 12.812773
          40.000000 10.703066 13.051185
          40.000000 13.354117 14.943507
          40.000000 13.373340 17.231031
          40.000000 10.980678 12.025936
          40.000000 11.931384 12.419847
          40.000000 13.312491 18.665722
          40.000000 14.379144 17.172721
          40.000000 14.016572 17.435839
          40.000000 13.631637 17.112096
          40.000000 19.999166 14.908698
          40.000000 19.238853 14.679774
          40.000000 16.818379 17.008259
          40.000000 17.988404 16.739199
          40.000000 15.688709 14.304708
          40.000000 14.520954 12.836186
          40.000000 19.500351 14.405461
          40.000000 19.995558 14.789292
          40.000000 15.972046 18.604077
          40.000000 15.409985 17.740957
          40.000000 13.589748 10.872175
          40.000000 13.327343 10.288077
          40.000000 14.228501 16.245598
          40.000000 13.655250 17.334742
          40.000000 17.951088 14.693198
          40.000000 19.952882 15.684809
          40.000000 14.799986 11.156881
          40.000000 15.019314 12.385393
          40.000000 16.254092 10.738527
          40.000000 16.661429 10.284106
          40.000000 15.512449 11.885050
          40.000000 15.005728 10.349676
          40.000000 17.553596 12.684840
          40.000000 16.480461 12.247728
          40.000000 16.170188 15.885341
          40.000000 15.008782 15.670186
          40.000000 15.251060 10.346685
          40.000000 15.226408 10.005129
          40.000000 18.030779 14.694567
          40.000000 17.854208 13.987086
          40.000000 12.280378 11.571768
          40.000000 11.613660 11.321318
          40.000000 10.539362 14.356353
          40.000000 10.067011 14.184147
          40.000000 19.416993 17.343111
          40.000000 19.246267 16.594892
          40.000000 16.688268 14.197056
          40.000000 16.154641 15.070633
          40.000000 19.734800 16.552133
          40.000000 19.777681 16.420720
          40.000000 10.879274 12.168108
          40.000000 11.752173 11.793198
          40.000000 14.829107 11.061243
          40.000000 14.041089 11.855730
          40.000000 12.317706 13.896012
          40.000000 11.089855 14.207195
          40.000000 14.883903 17.903074
          40.000000 12.447871 17.247142
          40.000000 17.698296 13.406017
          40.000000 17.004253 13.746791
          40.000000 14.167654 19.000445
          40.000000 15.078851 18.366946
          40.000000 15.091631 15.042016
          40.000000 13.778751 12.789561
          40.000000 12.878287 13.083921
          40.000000 12.151666 14.360863
          40.000000 16.131858 18.944419
          40.000000 14.535533 19.202682
          40.000000 18.971373 11.962206
          40.000000 18.849984 12.021054
          40.000000 14.694766 13.025099
          40.000000 14.146493 12.427590
          40.000000 19.071684 13.175492
          40.000000 19.469986 12.759636
          40.000000 18.195713 11.154559
          40.000000 17.253416 13.973881
          40.000000 14.861094 15.525799
          40.000000 15.021290 14.895733
          40.000000 18.403407 14.962209
          40.000000 18.816582 13.831188
          40.000000 15.975622 19.693853
          40.000000 16.065926 19.885059
          40.000000 12.370932 16.171822
          40.000000 11.344388 15.608674
          40.000000 13.709991 18.776701
          40.000000 13.749176 18.485372
          40.000000 15.274294 10.497511
          40.000000 15.123816 10.001533
          40.000000 15.684314 12.913251
          40.000000 15.994727 12.453612
          40.000000 10.009286 15.304590
          40.000000 10.160654 15.297235
          40.000000 16.702813 13.571096
          40.000000 17.460287 14.468558
          40.000000 19.891868 16.034229
          40.000000 19.139788 15.324318
          40.000000 16.352286 17.885907
          40.000000 15.072963 18.297580
          40.000000 16.138632 14.816567
          40.000000 16.184537 13.935736
          40.000000 11.699292 11.244294
          40.000000 12.078069 11.506954
          40.000000 11.066172 18.001876
          40.000000 11.153180 18.194053
          40.000000 15.947440 14.432297
          40.000000 15.964300 14.368590
          40.000000 15.633596 18.078765
          40.000000 14.421280 16.932686
          40.000000 16.898607 16.786117
          40.000000 15.666430 16.542451
          40.000000 19.771116 16.495477
          40.000000 18.875984 16.569602
          40.000000 11.105550 18.135803
          40.000000 12.096951 17.164240
          40.000000 17.344276 19.219693
          40.000000 17.319515 19.429430
          40.000000 17.584409 19.280284
          40.000000 16.799754 18.845812
          40.000000 15.740398 19.608783
          40.000000 15.399745 19.983995
          40.000000 12.830863 15.006329
          40.000000 12.979880 16.014383
          40.000000 15.883095 10.603314
          40.000000 15.509983 11.111152
          40.000000 16.733486 13.649404
          40.000000 16.859839 14.655023
          40.000000 14.473949 19.972250
          40.000000 13.309474 18.706437
          40.000000 19.963258 14.781803
          40.000000 19.983220 14.590712
          40.000000 15.868968 17.619749
          40.000000 12.867678 18.322349
          40.000000 18.619308 13.168119
          40.000000 13.020106 17.635843
          40.000000 17.435275 17.574654
          40.000000 17.933688 17.254851
          40.000000 12.376053 13.674858
          40.000000 11.707595 13.632856
          40.000000 16.684966 15.971647
          40.000000 15.828664 16.989403
          40.000000 17.647709 17.439272
          40.000000 16.760815 17.084496
          40.000000 14.644705 17.928225
          40.000000 15.742615 18.294814
          40.000000 18.922977 15.054307
          40.000000 19.999752 15.049771
          40.000000 14.729777 10.565774
          40.000000 13.827125 11.276895
          40.000000 16.763703 17.295097
          40.000000 17.854097 16.110401
          40.000000 11.218349 15.081343
          40.000000 11.851725 14.407868
          40.000000 17.651392 15.403189
          40.000000 16.593480 14.777756
          40.000000 14.682652 19.077874
          40.000000 13.698127 18.667236
          40.000000 13.981286 19.895122
          40.000000 13.286834 16.306926
        </DataArray>
      </Points>
      <Lines>
        <DataArray type="Int64" Name="connectivity" format="ascii">
          0 1
          2 3
          4 5
          6 7
          8 9
          10 11
          12 13
          14 15
          16 17
          18 19
          20 21
          22 23
          24 25
          26 27
          28 29
          30 31
          32 33
          34 35
          36 37
          38 39
          40 41
          42 43
          44 45
          46 47
          48 49
          50 51
          52 53
          54 55
          56 57
          58 59
          60 61
          62 63
          64 65
          66 67
          68 69
          70 71
          72 73
          74 75
          76 77
          78 79
          80 81
          82 83
          84 85
          86 87
          88 89
          90 91
          92 93
          94 95
          96 97
          98 99
          100 101
          102 103
          104 105
          106 107
          108 109
          110 111
          112 113
          114 115
          116 117
          118 119
          120 121
          122 123
          124 125
          126 127
          128 129
          130 131
          132 133
          134 135
          136 137
          138 139
          140 141
          142 143
          144 145
          146 147
          148 149
          150 151
          152 153
          154 155
          156 157
          158 159
        </DataArray>
        <DataArray type="Int64" Name="offsets" format="ascii">
          2
          4
          6
          8
          10
          12
          14
          16
          18
          20
          22
          24
          26
          28
          30
          32
          34
          36
          38
          40
          42
          44
          46
          48
          50
          52
          54
          56
          58
          60
          62
          64
          66
          68
          70
          72
          74
          76
          78
          80
          82
          84
          86
          88
          90
          92
          94
          96
          98
          100
          102
          104
          106
          108
          110
          112
          114
          116
          118
          120
          122
          124
          126
          128
          130
          132
          134
          136
          138
          140
          142
          144
          146
          148
          150
          152
          154
          156
          158
          160
        </DataArray>
      </Lines>
      <CellData>
        <DataArray type="Int32" Name="JointSetID" format="ascii">
          1 1 1 1 1 1 1 1 1 1
          1 1 1 1 1 1 1 1 1 1
          1 1 1 1 1 1 1 1 1 1
          1 1 1 1 1 1 1 1 1 1
          1 1 1 1 1 1 1 1 1 1
          1 1 1 1 1 1 1 1 1 1
          1 1 1 1 1 1 1 1 1 1
          1 1 1 1 1 1 1 1 1 1
        </DataArray>
        <DataArray type="Float64" Name="Jr" format="ascii">
          1.521631 1.957510 1.599034 1.605629 1.445901 1.777849 1.776575 1.623062 1.524722 1.660519
          1.931123 1.308310 1.598625 1.710898 1.613203 1.735739 1.843258 1.537059 1.232107 1.767195
          1.099991 1.398879 1.652230 2.037038 1.689469 1.550661 1.588580 1.163800 1.103241 2.021507
          1.276704 1.303707 1.574601 1.181486 1.180408 0.764487 1.637607 1.900112 1.614806 1.507227
          1.403937 1.640009 1.672361 1.028974 1.155689 1.428956 1.557246 1.751000 1.490537 1.309951
          2.000542 1.259440 2.030725 1.779430 1.766895 1.191757 1.473429 1.098251 1.973474 1.675063
          1.643091 1.701713 1.857047 1.439186 1.730994 1.284069 1.613404 0.875252 1.762807 1.541886
          1.624667 1.467365 1.371922 1.608933 1.130734 1.473800 1.711909 1.357141 1.553147 1.279062
        </DataArray>
        <DataArray type="Float64" Name="Ja" format="ascii">
          1.438205 2.357514 1.540820 2.258348 2.291810 2.872422 1.946506 2.259633 1.754373 1.980147
          2.759534 2.498437 1.944525 2.256383 3.203765 2.600351 2.834048 1.510275 1.746345 1.701816
          2.702358 1.575118 2.688380 2.400414 1.892489 1.346712 1.605849 1.562802 2.083624 1.864712
          1.624923 1.543479 2.739723 3.014639 1.532359 2.284318 2.946572 2.183562 2.079815 3.035042
          2.035872 2.322148 2.677452 2.618817 2.475263 2.731602 1.915941 1.642361 2.270471 2.441570
          1.564705 1.876006 2.097639 2.654652 2.550713 2.903694 1.790691 1.239633 1.712011 2.460191
          2.686895 2.625182 2.398856 2.256691 2.741998 2.420239 2.872734 2.255247 2.242786 2.674541
          2.676339 2.341041 2.254897 2.389985 2.605185 2.195572 2.816693 1.704031 2.483561 2.470525
        </DataArray>
        <DataArray type="Float64" Name="TraceLength" format="ascii">
          0.897777 0.310736 2.287605 1.029081 1.834884 0.502975 0.794029 1.200563 1.876222 0.626544
          1.029994 0.640333 1.230793 2.233937 1.247937 0.610264 1.616831 1.158744 1.181167 0.342445
          0.729182 0.712206 0.502763 0.767450 1.023667 0.138233 0.950005 1.119008 1.266670 2.522796
          0.773190 1.109775 2.607145 1.469204 1.617082 0.134901 0.810938 0.575830 2.972625 0.650112
          1.204128 0.211459 1.170866 0.293953 0.518303 0.554639 0.151546 1.174396 1.034213 1.343928
          0.882025 0.460936 0.210957 0.065901 1.668295 1.256039 0.898196 1.388096 0.211194 0.896911
          0.506783 1.019009 0.630168 1.013526 1.719967 0.192130 3.082433 7.163212 0.592191 0.669776
          1.330067 0.955221 1.157495 1.076785 1.149119 1.610113 0.924518 1.228960 1.066730 3.654780
        </DataArray>
      </CellData>
    </Piece>
  </PolyData>
</VTKFile>
