  0
SECTION
  2
HEADER
  9
$ACADVER
  1
AC1027
  9
$ACADMAINTVER
 70
105
  9
$DWGCODEPAGE
  3
ANSI_1252
  9
$LASTSAVEDBY
  1
ezdxf
  9
$REQUIREDVERSIONS
160
0
  9
$INSBASE
 10
0.0
 20
0.0
 30
0.0
  9
$EXTMIN
 10
1e+20
 20
1e+20
 30
1e+20
  9
$EXTMAX
 10
-1e+20
 20
-1e+20
 30
-1e+20
  9
$LIMMIN
 10
0.0
 20
0.0
  9
$LIMMAX
 10
420.0
 20
297.0
  9
$ORTHOMODE
 70
0
  9
$REGENMODE
 70
1
  9
$FILLMODE
 70
1
  9
$QTEXTMODE
 70
0
  9
$MIRRTEXT
 70
1
  9
$LTSCALE
 40
1.0
  9
$ATTMODE
 70
1
  9
$TEXTSIZE
 40
2.5
  9
$TRACEWID
 40
1.0
  9
$TEXTSTYLE
  7
Standard
  9
$CLAYER
  8
0
  9
$CELTYPE
  6
ByLayer
  9
$CECOLOR
 62
256
  9
$CELTSCALE
 40
1.0
  9
$DISPSILH
 70
0
  9
$DIMSCALE
 40
1.0
  9
$DIMASZ
 40
2.5
  9
$DIMEXO
 40
0.625
  9
$DIMDLI
 40
3.75
  9
$DIMRND
 40
0.0
  9
$DIMDLE
 40
0.0
  9
$DIMEXE
 40
1.25
  9
$DIMTP
 40
0.0
  9
$DIMTM
 40
0.0
  9
$DIMTXT
 40
2.5
  9
$DIMCEN
 40
2.5
  9
$DIMTSZ
 40
0.0
  9
$DIMTOL
 70
0
  9
$DIMLIM
 70
0
  9
$DIMTIH
 70
0
  9
$DIMTOH
 70
0
  9
$DIMSE1
 70
0
  9
$DIMSE2
 70
0
  9
$DIMTAD
 70
1
  9
$DIMZIN
 70
8
  9
$DIMBLK
  1

  9
$DIMASO
 70
1
  9
$DIMSHO
 70
1
  9
$DIMPOST
  1

  9
$DIMAPOST
  1

  9
$DIMALT
 70
0
  9
$DIMALTD
 70
3
  9
$DIMALTF
 40
0.03937007874
  9
$DIMLFAC
 40
1.0
  9
$DIMTOFL
 70
1
  9
$DIMTVP
 40
0.0
  9
$DIMTIX
 70
0
  9
$DIMSOXD
 70
0
  9
$DIMSAH
 70
0
  9
$DIMBLK1
  1

  9
$DIMBLK2
  1

  9
$DIMSTYLE
  2
ISO-25
  9
$DIMCLRD
 70
0
  9
$DIMCLRE
 70
0
  9
$DIMCLRT
 70
0
  9
$DIMTFAC
 40
1.0
  9
$DIMGAP
 40
0.625
  9
$DIMJUST
 70
0
  9
$DIMSD1
 70
0
  9
$DIMSD2
 70
0
  9
$DIMTOLJ
 70
0
  9
$DIMTZIN
 70
8
  9
$DIMALTZ
 70
0
  9
$DIMALTTZ
 70
0
  9
$DIMUPT
 70
0
  9
$DIMDEC
 70
2
  9
$DIMTDEC
 70
2
  9
$DIMALTU
 70
2
  9
$DIMALTTD
 70
3
  9
$DIMTXSTY
  7
Standard
  9
$DIMAUNIT
 70
0
  9
$DIMADEC
 70
0
  9
$DIMALTRND
 40
0.0
  9
$DIMAZIN
 70
0
  9
$DIMDSEP
 70
44
  9
$DIMATFIT
 70
3
  9
$DIMFRAC
 70
0
  9
$DIMLDRBLK
  1

  9
$DIMLUNIT
 70
2
  9
$DIMLWD
 70
-2
  9
$DIMLWE
 70
-2
  9
$DIMTMOVE
 70
0
  9
$DIMFXL
 40
1.0
  9
$DIMFXLON
 70
0
  9
$DIMJOGANG
 40
0.785398163397
  9
$DIMTFILL
 70
0
  9
$DIMTFILLCLR
 70
0
  9
$DIMARCSYM
 70
0
  9
$DIMLTYPE
  6

  9
$DIMLTEX1
  6

  9
$DIMLTEX2
  6

  9
$DIMTXTDIRECTION
 70
0
  9
$LUNITS
 70
2
  9
$LUPREC
 70
4
  9
$SKETCHINC
 40
1.0
  9
$FILLETRAD
 40
10.0
  9
$AUNITS
 70
0
  9
$AUPREC
 70
2
  9
$MENU
  1
.
  9
$ELEVATION
 40
0.0
  9
$PELEVATION
 40
0.0
  9
$THICKNESS
 40
0.0
  9
$LIMCHECK
 70
0
  9
$CHAMFERA
 40
0.0
  9
$CHAMFERB
 40
0.0
  9
$CHAMFERC
 40
0.0
  9
$CHAMFERD
 40
0.0
  9
$SKPOLY
 70
0
  9
$TDCREATE
 40
2461218.000162037
  9
$TDUCREATE
 40
2458532.153996898
  9
$TDUPDATE
 40
2461218.000162037
  9
$TDUUPDATE
 40
2458532.1544311
  9
$TDINDWG
 40
0.0
  9
$TDUSRTIMER
 40
0.0
  9
$USRTIMER
 70
1
  9
$ANGBASE
 50
0.0
  9
$ANGDIR
 70
0
  9
$PDMODE
 70
0
  9
$PDSIZE
 40
0.0
  9
$PLINEWID
 40
0.0
  9
$SPLFRAME
 70
0
  9
$SPLINETYPE
 70
6
  9
$SPLINESEGS
 70
8
  9
$HANDSEED
  5
84
  9
$SURFTAB1
 70
6
  9
$SURFTAB2
 70
6
  9
$SURFTYPE
 70
6
  9
$SURFU
 70
6
  9
$SURFV
 70
6
  9
$UCSBASE
  2

  9
$UCSNAME
  2

  9
$UCSORG
 10
0.0
 20
0.0
 30
0.0
  9
$UCSXDIR
 10
1.0
 20
0.0
 30
0.0
  9
$UCSYDIR
 10
0.0
 20
1.0
 30
0.0
  9
$UCSORTHOREF
  2

  9
$UCSORTHOVIEW
 70
0
  9
$UCSORGTOP
 10
0.0
 20
0.0
 30
0.0
  9
$UCSORGBOTTOM
 10
0.0
 20
0.0
 30
0.0
  9
$UCSORGLEFT
 10
0.0
 20
0.0
 30
0.0
  9
$UCSORGRIGHT
 10
0.0
 20
0.0
 30
0.0
  9
$UCSORGFRONT
 10
0.0
 20
0.0
 30
0.0
  9
$UCSORGBACK
 10
0.0
 20
0.0
 30
0.0
  9
$PUCSBASE
  2

  9
$PUCSNAME
  2

  9
$PUCSORG
 10
0.0
 20
0.0
 30
0.0
  9
$PUCSXDIR
 10
1.0
 20
0.0
 30
0.0
  9
$PUCSYDIR
 10
0.0
 20
1.0
 30
0.0
  9
$PUCSORTHOREF
  2

  9
$PUCSORTHOVIEW
 70
0
  9
$PUCSORGTOP
 10
0.0
 20
0.0
 30
0.0
  9
$PUCSORGBOTTOM
 10
0.0
 20
0.0
 30
0.0
  9
$PUCSORGLEFT
 10
0.0
 20
0.0
 30
0.0
  9
$PUCSORGRIGHT
 10
0.0
 20
0.0
 30
0.0
  9
$PUCSORGFRONT
 10
0.0
 20
0.0
 30
0.0
  9
$PUCSORGBACK
 10
0.0
 20
0.0
 30
0.0
  9
$USERI1
 70
0
  9
$USERI2
 70
0
  9
$USERI3
 70
0
  9
$USERI4
 70
0
  9
$USERI5
 70
0
  9
$USERR1
 40
0.0
  9
$USERR2
 40
0.0
  9
$USERR3
 40
0.0
  9
$USERR4
 40
0.0
  9
$USERR5
 40
0.0
  9
$WORLDVIEW
 70
1
  9
$SHADEDGE
 70
3
  9
$SHADEDIF
 70
70
  9
$TILEMODE
 70
1
  9
$MAXACTVP
 70
64
  9
$PINSBASE
 10
0.0
 20
0.0
 30
0.0
  9
$PLIMCHECK
 70
0
  9
$PEXTMIN
 10
1e+20
 20
1e+20
 30
1e+20
  9
$PEXTMAX
 10
-1e+20
 20
-1e+20
 30
-1e+20
  9
$PLIMMIN
 10
0.0
 20
0.0
  9
$PLIMMAX
 10
420.0
 20
297.0
  9
$UNITMODE
 70
0
  9
$VISRETAIN
 70
1
  9
$PLINEGEN
 70
0
  9
$PSLTSCALE
 70
1
  9
$TREEDEPTH
 70
3020
  9
$CMLSTYLE
  2
Standard
  9
$CMLJUST
 70
0
  9
$CMLSCALE
 40
20.0
  9
$PROXYGRAPHICS
 70
1
  9
$MEASUREMENT
 70
1
  9
$CELWEIGHT
370
-1
  9
$ENDCAPS
280
0
  9
$JOINSTYLE
280
0
  9
$LWDISPLAY
290
0
  9
$INSUNITS
 70
4
  9
$HYPERLINKBASE
  1

  9
$STYLESHEET
  1

  9
$XEDIT
290
1
  9
$CEPSNTYPE
380
0
  9
$PSTYLEMODE
290
1
  9
$FINGERPRINTGUID
  2
{FC362777-31A2-4D9E-A0BE-0C493D978951}
  9
$VERSIONGUID
  2
{4BE089F9-273D-46B4-B1FE-BC09D821EC37}
  9
$EXTNAMES
290
1
  9
$PSVPSCALE
 40
0.0
  9
$OLESTARTUP
290
0
  9
$SORTENTS
280
127
  9
$INDEXCTL
280
0
  9
$HIDETEXT
280
1
  9
$XCLIPFRAME
280
1
  9
$HALOGAP
280
0
  9
$OBSCOLOR
 70
257
  9
$OBSLTYPE
280
0
  9
$INTERSECTIONDISPLAY
280
0
  9
$INTERSECTIONCOLOR
 70
257
  9
$DIMASSOC
280
2
  9
$PROJECTNAME
  1

  9
$CAMERADISPLAY
290
0
  9
$LENSLENGTH
 40
50.0
  9
$CAMERAHEIGHT
 40
0.0
  9
$STEPSPERSEC
 40
24.0
  9
$STEPSIZE
 40
100.0
  9
$3DDWFPREC
 40
2.0
  9
$PSOLWIDTH
 40
0.005
  9
$PSOLHEIGHT
 40
0.08
  9
$LOFTANG1
 40
1.570796326795
  9
$LOFTANG2
 40
1.570796326795
  9
$LOFTMAG1
 40
0.0
  9
$LOFTMAG2
 40
0.0
  9
$LOFTPARAM
 70
7
  9
$LOFTNORMALS
280
1
  9
$LATITUDE
 40
37.795
  9
$LONGITUDE
 40
-122.394
  9
$NORTHDIRECTION
 40
0.0
  9
$TIMEZONE
 70
-8000
  9
$LIGHTGLYPHDISPLAY
280
1
  9
$TILEMODELIGHTSYNCH
280
1
  9
$CMATERIAL
347
20
  9
$SOLIDHIST
280
0
  9
$SHOWHIST
280
1
  9
$DWFFRAME
280
2
  9
$DGNFRAME
280
2
  9
$REALWORLDSCALE
290
1
  9
$INTERFERECOLOR
 62
256
  9
$CSHADOW
280
0
  9
$SHADOWPLANELOCATION
 40
0.0
  0
ENDSEC
  0
SECTION
  2
CLASSES
  0
CLASS
  1
ACDBDICTIONARYWDFLT
  2
AcDbDictionaryWithDefault
  3
ObjectDBX Classes
 90
0
 91
0
280
0
281
0
  0
CLASS
  1
SUN
  2
AcDbSun
  3
SCENEOE
 90
1153
 91
0
280
0
281
0
  0
CLASS
  1
VISUALSTYLE
  2
AcDbVisualStyle
  3
ObjectDBX Classes
 90
4095
 91
0
280
0
281
0
  0
CLASS
  1
MATERIAL
  2
AcDbMaterial
  3
ObjectDBX Classes
 90
1153
 91
0
280
0
281
0
  0
CLASS
  1
SCALE
  2
AcDbScale
  3
ObjectDBX Classes
 90
1153
 91
0
280
0
281
0
  0
CLASS
  1
TABLESTYLE
  2
AcDbTableStyle
  3
ObjectDBX Classes
 90
4095
 91
0
280
0
281
0
  0
CLASS
  1
MLEADERSTYLE
  2
AcDbMLeaderStyle
  3
ACDB_MLEADERSTYLE_CLASS
 90
4095
 91
0
280
0
281
0
  0
CLASS
  1
DICTIONARYVAR
  2
AcDbDictionaryVar
  3
ObjectDBX Classes
 90
0
 91
0
280
0
281
0
  0
CLASS
  1
CELLSTYLEMAP
  2
AcDbCellStyleMap
  3
ObjectDBX Classes
 90
1152
 91
0
280
0
281
0
  0
CLASS
  1
MENTALRAYRENDERSETTINGS
  2
AcDbMentalRayRenderSettings
  3
SCENEOE
 90
1024
 91
0
280
0
281
0
  0
CLASS
  1
ACDBDETAILVIEWSTYLE
  2
AcDbDetailViewStyle
  3
ObjectDBX Classes
 90
1025
 91
0
280
0
281
0
  0
CLASS
  1
ACDBSECTIONVIEWSTYLE
  2
AcDbSectionViewStyle
  3
ObjectDBX Classes
 90
1025
 91
0
280
0
281
0
  0
CLASS
  1
RASTERVARIABLES
  2
AcDbRasterVariables
  3
ISM
 90
0
 91
0
280
0
281
0
  0
CLASS
  1
LAYOUT
  2
AcDbLayout
  3
ObjectDBX Classes
 90
0
 91
0
280
0
281
0
  0
CLASS
  1
ACDBPLACEHOLDER
  2
AcDbPlaceHolder
  3
ObjectDBX Classes
 90
0
 91
0
280
0
281
0
  0
ENDSEC
  0
SECTION
  2
TABLES
  0
TABLE
  2
VPORT
  5
8
330
0
100
AcDbSymbolTable
 70
1
  0
VPORT
  5
80
330
8
100
AcDbSymbolTableRecord
100
AcDbViewportTableRecord
  2
*Active
 70
0
 10
0.0
 20
0.0
 11
1.0
 21
1.0
 12
10.0
 22
14.99386878220974
 13
0.0
 23
0.0
 14
0.5
 24
0.5
 15
0.5
 25
0.5
 16
0.0
 26
0.0
 36
1.0
 17
0.0
 27
0.0
 37
0.0
 40
9.986255373044674
 41
1.34
 42
50.0
 43
0.0
 44
0.0
 50
0.0
 51
0.0
 71
0
 72
1000
 73
1
 74
3
 75
0
 76
0
 77
0
 78
0
281
0
 65
1
110
0.0
120
0.0
130
0.0
111
1.0
121
0.0
131
0.0
112
0.0
122
1.0
132
0.0
 79
0
146
0.0
  0
ENDTAB
  0
TABLE
  2
LTYPE
  5
2
330
0
100
AcDbSymbolTable
 70
3
  0
LTYPE
  5
24
330
2
100
AcDbSymbolTableRecord
100
AcDbLinetypeTableRecord
  2
ByBlock
 70
0
  3

 72
65
 73
0
 40
0.0
  0
LTYPE
  5
25
330
2
100
AcDbSymbolTableRecord
100
AcDbLinetypeTableRecord
  2
ByLayer
 70
0
  3

 72
65
 73
0
 40
0.0
  0
LTYPE
  5
26
330
2
100
AcDbSymbolTableRecord
100
AcDbLinetypeTableRecord
  2
Continuous
 70
0
  3

 72
65
 73
0
 40
0.0
  0
ENDTAB
  0
TABLE
  2
LAYER
  5
1
330
0
100
AcDbSymbolTable
 70
2
  0
LAYER
  5
27
330
1
100
AcDbSymbolTableRecord
100
AcDbLayerTableRecord
  2
0
 70
0
 62
7
  6
Continuous
370
-3
390
13
347
21
  0
LAYER
  5
28
330
1
100
AcDbSymbolTableRecord
100
AcDbLayerTableRecord
  2
Defpoints
 70
0
 62
7
  6
Continuous
290
0
370
-3
390
13
347
21
  0
ENDTAB
  0
TABLE
  2
STYLE
  5
5
330
0
100
AcDbSymbolTable
 70
1
  0
STYLE
  5
29
330
5
100
AcDbSymbolTableRecord
100
AcDbTextStyleTableRecord
  2
Standard
 70
0
 40
0.0
 41
1.0
 50
0.0
 71
0
 42
2.5
  3
txt
  4

  0
ENDTAB
  0
TABLE
  2
VIEW
  5
7
330
0
100
AcDbSymbolTable
 70
0
  0
ENDTAB
  0
TABLE
  2
UCS
  5
6
330
0
100
AcDbSymbolTable
 70
0
  0
ENDTAB
  0
TABLE
  2
APPID
  5
3
330
0
100
AcDbSymbolTable
 70
3
  0
APPID
  5
2A
330
3
100
AcDbSymbolTableRecord
100
AcDbRegAppTableRecord
  2
ACAD
 70
0
  0
APPID
  5
81
330
3
100
AcDbSymbolTableRecord
100
AcDbRegAppTableRecord
  2
HATCHBACKGROUNDCOLOR
 70
0
  0
APPID
  5
82
330
3
100
AcDbSymbolTableRecord
100
AcDbRegAppTableRecord
  2
EZDXF
 70
0
  0
ENDTAB
  0
TABLE
  2
DIMSTYLE
  5
4
330
0
100
AcDbSymbolTable
 70
1
100
AcDbDimStyleTable
  0
DIMSTYLE
105
2B
330
4
100
AcDbSymbolTableRecord
100
AcDbDimStyleTableRecord
  2
Standard
 70
0
 40
1.0
 41
2.5
 42
0.625
 43
3.75
 44
1.25
 45
0.0
 46
0.0
 47
0.0
 48
0.0
 49
2.5
140
2.5
141
2.5
142
0.0
143
0.03937007874
144
1.0
145
0.0
146
1.0
147
0.625
148
0.0
 69
0
 70
0
 71
0
 72
0
 73
0
 74
0
 75
0
 76
0
 77
1
 78
8
 79
3
170
0
171
3
172
1
173
0
174
0
175
0
176
0
177
0
178
0
179
2
271
2
272
2
273
2
274
3
275
0
276
0
277
2
278
44
279
0
280
0
281
0
282
0
283
0
284
8
285
0
286
0
288
0
289
3
290
0
371
-2
372
-2
  0
ENDTAB
  0
TABLE
  2
BLOCK_RECORD
  5
9
330
0
100
AcDbSymbolTable
 70
2
  0
BLOCK_RECORD
  5
17
330
9
100
AcDbSymbolTableRecord
100
AcDbBlockTableRecord
  2
*Model_Space
340
1A
 70
0
280
1
281
0
  0
BLOCK_RECORD
  5
1B
330
9
100
AcDbSymbolTableRecord
100
AcDbBlockTableRecord
  2
*Paper_Space
340
1E
 70
0
280
1
281
0
  0
ENDTAB
  0
ENDSEC
  0
SECTION
  2
BLOCKS
  0
BLOCK
  5
18
330
17
100
AcDbEntity
  8
0
100
AcDbBlockBegin
  2
*Model_Space
 70
0
 10
0.0
 20
0.0
 30
0.0
  3
*Model_Space
  1

  0
ENDBLK
  5
19
330
17
100
AcDbEntity
  8
0
100
AcDbBlockEnd
  0
BLOCK
  5
1C
330
1B
100
AcDbEntity
  8
0
100
AcDbBlockBegin
  2
*Paper_Space
 70
0
 10
0.0
 20
0.0
 30
0.0
  3
*Paper_Space
  1

  0
ENDBLK
  5
1D
330
1B
100
AcDbEntity
  8
0
100
AcDbBlockEnd
  0
ENDSEC
  0
SECTION
  2
ENTITIES
  0
LINE
  5
2F
330
17
100
AcDbEntity
  8
0
100
AcDbLine
 10
10.0
 20
10.012439809816453
 30
15.35248170065445
 11
10.0
 21
10.43223936730439
 31
15.101855424995005
  0
LINE
  5
30
330
17
100
AcDbEntity
  8
0
100
AcDbLine
 10
10.0
 20
18.71177326687753
 30
17.5063268459298
 11
10.0
 21
18.161222654066826
 31
18.277654852895296
  0
LINE
  5
31
330
17
100
AcDbEntity
  8
0
100
AcDbLine
 10
10.0
 20
11.144795833932923
 30
11.816071477256585
 11
10.0
 21
13.82996680053607
 31
14.763974178372962
  0
LINE
  5
32
330
17
100
AcDbEntity
  8
0
100
AcDbLine
 10
10.0
 20
18.52804293570071
 30
18.54300903807093
 11
10.0
 21
17.777528786342177
 31
18.088054319018426
  0
LINE
  5
33
330
17
100
AcDbEntity
  8
0
100
AcDbLine
 10
10.0
 20
19.805702713527936
 30
16.38029758718554
 11
10.0
 21
18.479689446335513
 31
16.499872431943636
  0
LINE
  5
34
330
17
100
AcDbEntity
  8
0
100
AcDbLine
 10
10.0
 20
16.338467920592155
 30
13.22564491057055
 11
10.0
 21
15.469061077397045
 31
12.913076867595144
  0
LINE
  5
35
330
17
100
AcDbEntity
  8
0
100
AcDbLine
 10
10.0
 20
13.30317260594292
 30
12.966963842612252
 11
10.0
 21
13.304959080610127
 31
13.951301756169338
  0
LINE
  5
36
330
17
100
AcDbEntity
  8
0
100
AcDbLine
 10
10.0
 20
13.112529208539883
 30
16.5607629809343
 11
10.0
 21
13.592241377251264
 31
15.813576134437971
  0
LINE
  5
37
330
17
100
AcDbEntity
  8
0
100
AcDbLine
 10
10.0
 20
12.16049240035582
 30
13.179242910540976
 11
10.0
 21
11.050424579861748
 31
11.933918787664009
  0
LINE
  5
38
330
17
100
AcDbEntity
  8
0
100
AcDbLine
 10
10.0
 20
18.007318860391518
 30
13.826062474704354
 11
10.0
 21
17.641272781838115
 31
13.809498590645658
  0
LINE
  5
39
330
17
100
AcDbEntity
  8
0
100
AcDbLine
 10
10.0
 20
15.499732720758788
 30
17.35588531208878
 11
10.0
 21
16.22873496643107
 31
16.563453215092807
  0
LINE
  5
3A
330
17
100
AcDbEntity
  8
0
100
AcDbLine
 10
10.0
 20
12.7786812173485
 30
14.364269364131568
 11
10.0
 21
12.184251215700739
 31
14.409413217519747
  0
LINE
  5
3B
330
17
100
AcDbEntity
  8
0
100
AcDbLine
 10
10.0
 20
16.975492926697303
 30
12.915306371456673
 11
10.0
 21
17.75734174846239
 31
11.323637560566777
  0
LINE
  5
3C
330
17
100
AcDbEntity
  8
0
100
AcDbLine
 10
10.0
 20
10.060193350757729
 30
14.226494817016821
 11
10.0
 21
10.305946573140794
 31
14.05034230602605
  0
LINE
  5
3D
330
17
100
AcDbEntity
  8
0
100
AcDbLine
 10
10.0
 20
15.490967088403806
 30
10.14404449582176
 11
10.0
 21
15.401240494904673
 31
11.5914257085434
  0
LINE
  5
3E
330
17
100
AcDbEntity
  8
0
100
AcDbLine
 10
10.0
 20
16.849989853878412
 30
10.354837189016198
 11
10.0
 21
16.752064299385026
 31
10.394374434646277
  0
LINE
  5
3F
330
17
100
AcDbEntity
  8
0
100
AcDbLine
 10
10.0
 20
19.18716043744491
 30
17.51835126702343
 11
10.0
 21
18.877409159725314
 31
16.359264366690258
  0
LINE
  5
40
330
17
100
AcDbEntity
  8
0
100
AcDbLine
 10
10.0
 20
18.910345817659316
 30
16.10452921586058
 11
10.0
 21
17.871434141048688
 31
15.823939912377785
  0
LINE
  5
41
330
17
100
AcDbEntity
  8
0
100
AcDbLine
 10
10.0
 20
14.157777170647769
 30
13.128789352513456
 11
10.0
 21
14.678124475865056
 31
12.898625292885185
  0
LINE
  5
42
330
17
100
AcDbEntity
  8
0
100
AcDbLine
 10
10.0
 20
19.61308845003438
 30
15.707180785404043
 11
10.0
 21
19.98184508882688
 31
15.425698850047166
  0
LINE
  5
43
330
17
100
AcDbEntity
  8
0
100
AcDbLine
 10
10.0
 20
16.543856957815493
 30
15.842166505431889
 11
10.0
 21
16.069360753162314
 31
16.828375481073877
  0
LINE
  5
44
330
17
100
AcDbEntity
  8
0
100
AcDbLine
 10
10.0
 20
18.29362663577007
 30
11.308543186047258
 11
10.0
 21
18.400667139801104
 31
11.334558279787144
  0
LINE
  5
45
330
17
100
AcDbEntity
  8
0
100
AcDbLine
 10
10.0
 20
13.44025493739889
 30
17.707196901975813
 11
10.0
 21
12.88097263752593
 31
18.607113986309553
  0
LINE
  5
46
330
17
100
AcDbEntity
  8
0
100
AcDbLine
 10
10.0
 20
16.698663150315713
 30
17.234807373244394
 11
10.0
 21
16.818762535424014
 31
17.110133863259044
  0
LINE
  5
47
330
17
100
AcDbEntity
  8
0
100
AcDbLine
 10
10.0
 20
18.246073119845384
 30
11.19697366553724
 11
10.0
 21
16.594702400684483
 31
11.723251403932581
  0
LINE
  5
48
330
17
100
AcDbEntity
  8
0
100
AcDbLine
 10
10.0
 20
15.055645048175112
 30
13.416394576800851
 11
10.0
 21
14.556811004703214
 31
14.078591862579446
  0
LINE
  5
49
330
17
100
AcDbEntity
  8
0
100
AcDbLine
 10
10.0
 20
19.979312907130858
 30
14.545640040408447
 11
10.0
 21
18.831642201507254
 31
13.207433393522866
  0
LINE
  5
4A
330
17
100
AcDbEntity
  8
0
100
AcDbLine
 10
10.0
 20
10.850854679267417
 30
14.438054434746022
 11
10.0
 21
10.267430856528941
 31
14.534789795273065
  0
LINE
  5
4B
330
17
100
AcDbEntity
  8
0
100
AcDbLine
 10
10.0
 20
11.713254367321097
 30
11.232069116070976
 11
10.0
 21
11.994646252305678
 31
11.096150433910172
  0
LINE
  5
4C
330
17
100
AcDbEntity
  8
0
100
AcDbLine
 10
10.0
 20
12.144450391741849
 30
15.995548275790817
 11
10.0
 21
12.764580490919924
 31
16.885182928271508
  0
LINE
  5
4D
330
17
100
AcDbEntity
  8
0
100
AcDbLine
 10
10.0
 20
17.279644131378763
 30
19.45008119412111
 11
10.0
 21
16.623329940475557
 31
19.0441742895774
  0
LINE
  5
4E
330
17
100
AcDbEntity
  8
0
100
AcDbLine
 10
10.0
 20
13.010865275520553
 30
12.882137635330196
 11
10.0
 21
10.991265240961042
 31
14.331226336140688
  0
LINE
  5
4F
330
17
100
AcDbEntity
  8
0
100
AcDbLine
 10
10.0
 20
13.973099728461229
 30
16.544712686880008
 11
10.0
 21
14.31237782214739
 31
15.498955153789709
  0
LINE
  5
50
330
17
100
AcDbEntity
  8
0
100
AcDbLine
 10
10.0
 20
10.409274843049792
 30
16.43078076799159
 11
10.0
 21
10.116239631045138
 31
16.07186037272859
  0
LINE
  5
51
330
17
100
AcDbEntity
  8
0
100
AcDbLine
 10
10.0
 20
16.446959264721944
 30
18.33478959810552
 11
10.0
 21
15.418907670519218
 31
18.517084501293727
  0
LINE
  5
52
330
17
100
AcDbEntity
  8
0
100
AcDbLine
 10
10.0
 20
17.616460995066156
 30
11.424340614434922
 11
10.0
 21
18.322634676309175
 31
11.263678438920463
  0
LINE
  5
53
330
17
100
AcDbEntity
  8
0
100
AcDbLine
 10
10.0
 20
16.496588794412517
 30
16.40545397078139
 11
10.0
 21
15.68531342331721
 31
17.31152704322608
  0
LINE
  5
54
330
17
100
AcDbEntity
  8
0
100
AcDbLine
 10
10.0
 20
15.255504534381194
 30
16.29921776650935
 11
10.0
 21
15.123098181269253
 31
15.418667861176006
  0
LINE
  5
55
330
17
100
AcDbEntity
  8
0
100
AcDbLine
 10
10.0
 20
13.608440860714852
 30
11.889237535615626
 11
10.0
 21
12.830260853440993
 31
11.609131907183988
  0
LINE
  5
56
330
17
100
AcDbEntity
  8
0
100
AcDbLine
 10
10.0
 20
18.568491376656894
 30
16.839839475465986
 11
10.0
 21
17.402826060610966
 31
16.783421685251398
  0
LINE
  5
57
330
17
100
AcDbEntity
  8
0
100
AcDbLine
 10
10.0
 20
15.286594150572714
 30
14.904714555292523
 11
10.0
 21
15.142125105892598
 31
14.411961670985615
  0
LINE
  5
58
330
17
100
AcDbEntity
  8
0
100
AcDbLine
 10
10.0
 20
12.854386518450603
 30
12.166964912035214
 11
10.0
 21
13.123537879904939
 31
12.129126883343435
  0
LINE
  5
59
330
17
100
AcDbEntity
  8
0
100
AcDbLine
 10
10.0
 20
11.035702799135661
 30
15.666819880153776
 11
10.0
 21
10.000741095687403
 31
15.086083724659176
  0
LINE
  5
5A
330
17
100
AcDbEntity
  8
0
100
AcDbLine
 10
10.0
 20
14.361652172954157
 30
18.310482766882654
 11
10.0
 21
18.099200611828536
 31
15.820958615969978
  0
LINE
  5
5B
330
17
100
AcDbEntity
  8
0
100
AcDbLine
 10
10.0
 20
16.433663687290213
 30
15.56674127485831
 11
10.0
 21
12.915178637095273
 31
19.074548842635863
  0
LINE
  5
5C
330
17
100
AcDbEntity
  8
0
100
AcDbLine
 10
10.0
 20
17.94231560502409
 30
18.740222227886758
 11
10.0
 21
17.680299655365168
 31
18.196119148873834
  0
LINE
  5
5D
330
17
100
AcDbEntity
  8
0
100
AcDbLine
 10
10.0
 20
11.564282231019616
 30
12.450648223153104
 11
10.0
 21
10.994521024239182
 31
12.0073192327383
  0
LINE
  5
5E
330
17
100
AcDbEntity
  8
0
100
AcDbLine
 10
10.0
 20
12.227993667335603
 30
13.848144709973408
 11
10.0
 21
11.430082340215959
 31
12.753824142945001
  0
LINE
  5
5F
330
17
100
AcDbEntity
  8
0
100
AcDbLine
 10
10.0
 20
15.069105022849978
 30
18.941989093223302
 11
10.0
 21
14.793173564105585
 31
17.550875957613496
  0
LINE
  5
60
330
17
100
AcDbEntity
  8
0
100
AcDbLine
 10
10.0
 20
11.881543024524355
 30
14.126727673794916
 11
10.0
 21
12.227721957001894
 31
12.942377833035767
  0
LINE
  5
61
330
17
100
AcDbEntity
  8
0
100
AcDbLine
 10
10.0
 20
13.169811188130227
 30
10.347000009358833
 11
10.0
 21
13.282605604301686
 31
10.549811677543104
  0
LINE
  5
62
330
17
100
AcDbEntity
  8
0
100
AcDbLine
 10
10.0
 20
17.447499735225268
 30
10.639983366307849
 11
10.0
 21
17.111544138038948
 31
11.223608765542886
  0
LINE
  5
63
330
17
100
AcDbEntity
  8
0
100
AcDbLine
 10
10.0
 20
17.569124938924173
 30
11.98684126576452
 11
10.0
 21
17.206133177722414
 31
10.850873633426861
  0
LINE
  5
64
330
17
100
AcDbEntity
  8
0
100
AcDbLine
 10
10.0
 20
17.72114057068883
 30
12.813161905595663
 11
10.0
 21
16.77281540846391
 31
12.408381533604999
  0
LINE
  5
65
330
17
100
AcDbEntity
  8
0
100
AcDbLine
 10
10.0
 20
13.034693878983711
 30
17.948706857142117
 11
10.0
 21
14.098476336281722
 31
18.807622522605467
  0
LINE
  5
66
330
17
100
AcDbEntity
  8
0
100
AcDbLine
 10
10.0
 20
17.55784056555188
 30
15.5898643760274
 11
10.0
 21
19.986996468732077
 31
14.639630438502648
  0
LINE
  5
67
330
17
100
AcDbEntity
  8
0
100
AcDbLine
 10
10.0
 20
19.818110355092923
 30
16.336342997192837
 11
10.0
 21
18.57769955991319
 31
17.328556698696627
  0
LINE
  5
68
330
17
100
AcDbEntity
  8
0
100
AcDbLine
 10
10.0
 20
16.31707628435197
 30
15.358167700902955
 11
10.0
 21
17.472075453019038
 31
13.87143956326304
  0
LINE
  5
69
330
17
100
AcDbEntity
  8
0
100
AcDbLine
 10
10.0
 20
18.674992183162413
 30
13.313417825560439
 11
10.0
 21
19.562039428959388
 31
12.953589423253515
  0
LINE
  5
6A
330
17
100
AcDbEntity
  8
0
100
AcDbLine
 10
10.0
 20
14.051183268453013
 30
10.800174204817871
 11
10.0
 21
15.331655433663919
 31
10.011011658329798
  0
LINE
  5
6B
330
17
100
AcDbEntity
  8
0
100
AcDbLine
 10
10.0
 20
11.149947085825533
 30
17.43246267200018
 11
10.0
 21
10.6429324786601
 31
17.45274593353755
  0
LINE
  5
6C
330
17
100
AcDbEntity
  8
0
100
AcDbLine
 10
10.0
 20
13.81671411827013
 30
14.498414496549278
 11
10.0
 21
12.798111874745128
 31
15.238681206636556
  0
LINE
  5
6D
330
17
100
AcDbEntity
  8
0
100
AcDbLine
 10
10.0
 20
11.965158519030068
 30
11.092708411834003
 11
10.0
 21
12.104892209972197
 31
10.923438840870858
  0
LINE
  5
6E
330
17
100
AcDbEntity
  8
0
100
AcDbLine
 10
10.0
 20
14.159382453931704
 30
18.901237462833713
 11
10.0
 21
13.714259930801685
 31
19.83186014640924
  0
LINE
  5
6F
330
17
100
AcDbEntity
  8
0
100
AcDbLine
 10
10.0
 20
12.783389601167183
 30
19.48181194828456
 11
10.0
 21
12.407813906947759
 31
18.990813644295116
  0
LINE
  5
70
330
17
100
AcDbEntity
  8
0
100
AcDbLine
 10
10.0
 20
19.948327710556207
 30
15.716974803561152
 11
10.0
 21
18.732855375584226
 31
17.002193546479823
  0
LINE
  5
71
330
17
100
AcDbEntity
  8
0
100
AcDbLine
 10
10.0
 20
12.676076954949908
 30
16.17568287599207
 11
10.0
 21
10.84872023592514
 31
14.747251882824033
  0
LINE
  5
72
330
17
100
AcDbEntity
  8
0
100
AcDbLine
 10
10.0
 20
19.064539704950036
 30
12.08803897916118
 11
10.0
 21
18.833184545195746
 31
12.20077897774456
  0
LINE
  5
73
330
17
100
AcDbEntity
  8
0
100
AcDbLine
 10
10.0
 20
10.991343717820493
 30
17.988423465866706
 11
10.0
 21
16.990395467030208
 31
10.413244514384314
  0
LINE
  5
74
330
17
100
AcDbEntity
  8
0
100
AcDbLine
 10
10.0
 20
11.198935989863452
 30
18.24837072866455
 11
10.0
 21
14.471247990873083
 31
18.399262440857324
  0
LINE
  5
75
330
17
100
AcDbEntity
  8
0
100
AcDbLine
 10
10.0
 20
14.819680322277835
 30
13.507689076124585
 11
10.0
 21
15.912817054815394
 31
14.050292991757319
  0
LINE
  5
76
330
17
100
AcDbEntity
  8
0
100
AcDbLine
 10
10.0
 20
12.595716678537533
 30
15.41442572366303
 11
10.0
 21
13.318411049957788
 31
15.82621407425191
  0
LINE
  5
77
330
17
100
AcDbEntity
  8
0
100
AcDbLine
 10
10.0
 20
15.037979591538267
 30
15.921915150899444
 11
10.0
 21
14.636142561666817
 31
16.09219571150909
  0
LINE
  5
78
330
17
100
AcDbEntity
  8
0
100
AcDbLine
 10
10.0
 20
13.862991995444547
 30
14.688858044076119
 11
10.0
 21
15.576766459413905
 31
10.033377359684435
  0
LINE
  5
79
330
17
100
AcDbEntity
  8
0
100
AcDbLine
 10
10.0
 20
12.177441740996949
 30
15.698484709590918
 11
10.0
 21
12.072980690843341
 31
15.340287690415598
  0
LINE
  5
7A
330
17
100
AcDbEntity
  8
0
100
AcDbLine
 10
10.0
 20
12.92206681918366
 30
13.778088365553856
 11
10.0
 21
11.979646719247382
 31
14.360054290008005
  0
LINE
  5
7B
330
17
100
AcDbEntity
  8
0
100
AcDbLine
 10
10.0
 20
12.372777008638398
 30
16.172106682108563
 11
10.0
 21
12.583813437161687
 31
14.568644930966228
  0
LINE
  5
7C
330
17
100
AcDbEntity
  8
0
100
AcDbLine
 10
10.0
 20
17.75320477875732
 30
14.686147075297878
 11
10.0
 21
16.18994018577943
 31
14.041943339022755
  0
LINE
  5
7D
330
17
100
AcDbEntity
  8
0
100
AcDbLine
 10
10.0
 20
11.32880387054302
 30
11.605545849615865
 11
10.0
 21
11.991338320557517
 31
11.810112151180716
  0
LINE
  5
7E
330
17
100
AcDbEntity
  8
0
100
AcDbLine
 10
10.0
 20
14.250723706281063
 30
13.672525177580393
 11
10.0
 21
14.517764760231188
 31
13.169839659326415
  0
LINE
  5
7F
330
17
100
AcDbEntity
  8
0
100
AcDbLine
 10
10.0
 20
13.841685576748228
 30
17.61810079503311
 11
10.0
 21
13.326620375008632
 31
16.219256031791872
  0
ENDSEC
  0
SECTION
  2
OBJECTS
  0
DICTIONARY
  5
A
330
0
100
AcDbDictionary
281
1
  3
ACAD_COLOR
350
B
  3
ACAD_GROUP
350
C
  3
ACAD_LAYOUT
350
D
  3
ACAD_MATERIAL
350
E
  3
ACAD_MLEADERSTYLE
350
F
  3
ACAD_MLINESTYLE
350
10
  3
ACAD_PLOTSETTINGS
350
11
  3
ACAD_PLOTSTYLENAME
350
12
  3
ACAD_SCALELIST
350
14
  3
ACAD_TABLESTYLE
350
15
  3
ACAD_VISUALSTYLE
350
16
  3
EZDXF_META
350
2D
  0
DICTIONARY
  5
B
330
A
100
AcDbDictionary
281
1
  0
DICTIONARY
  5
C
330
A
100
AcDbDictionary
281
1
  0
DICTIONARY
  5
D
330
A
100
AcDbDictionary
281
1
  3
Model
350
1A
  3
Layout1
350
1E
  0
DICTIONARY
  5
E
330
A
100
AcDbDictionary
281
1
  3
ByBlock
350
1F
  3
ByLayer
350
20
  3
Global
350
21
  0
DICTIONARY
  5
F
330
A
100
AcDbDictionary
281
1
  3
Standard
350
2C
  0
DICTIONARY
  5
10
330
A
100
AcDbDictionary
281
1
  3
Standard
350
22
  0
DICTIONARY
  5
11
330
A
100
AcDbDictionary
281
1
  0
ACDBDICTIONARYWDFLT
  5
12
330
A
100
AcDbDictionary
281
1
  3
Normal
350
13
100
AcDbDictionaryWithDefault
340
13
  0
ACDBPLACEHOLDER
  5
13
330
12
  0
DICTIONARY
  5
14
330
A
100
AcDbDictionary
281
1
  0
DICTIONARY
  5
15
330
A
100
AcDbDictionary
281
1
  0
DICTIONARY
  5
16
330
A
100
AcDbDictionary
281
1
  0
LAYOUT
  5
1A
330
D
100
AcDbPlotSettings
  1

  4
A3
  6

 40
7.5
 41
20.0
 42
7.5
 43
20.0
 44
420.0
 45
297.0
 46
0.0
 47
0.0
 48
0.0
 49
0.0
140
0.0
141
0.0
142
1.0
143
1.0
 70
1024
 72
1
 73
0
 74
5
  7

 75
16
 76
0
 77
2
 78
300
147
1.0
148
0.0
149
0.0
100
AcDbLayout
  1
Model
 70
1
 71
0
 10
0.0
 20
0.0
 11
420.0
 21
297.0
 12
0.0
 22
0.0
 32
0.0
 14
1e+20
 24
1e+20
 34
1e+20
 15
-1e+20
 25
-1e+20
 35
-1e+20
146
0.0
 13
0.0
 23
0.0
 33
0.0
 16
1.0
 26
0.0
 36
0.0
 17
0.0
 27
1.0
 37
0.0
 76
1
330
17
  0
LAYOUT
  5
1E
330
D
100
AcDbPlotSettings
  1

  4
A3
  6

 40
7.5
 41
20.0
 42
7.5
 43
20.0
 44
420.0
 45
297.0
 46
0.0
 47
0.0
 48
0.0
 49
0.0
140
0.0
141
0.0
142
1.0
143
1.0
 70
0
 72
1
 73
0
 74
5
  7

 75
16
 76
0
 77
2
 78
300
147
1.0
148
0.0
149
0.0
100
AcDbLayout
  1
Layout1
 70
1
 71
1
 10
0.0
 20
0.0
 11
420.0
 21
297.0
 12
0.0
 22
0.0
 32
0.0
 14
1e+20
 24
1e+20
 34
1e+20
 15
-1e+20
 25
-1e+20
 35
-1e+20
146
0.0
 13
0.0
 23
0.0
 33
0.0
 16
1.0
 26
0.0
 36
0.0
 17
0.0
 27
1.0
 37
0.0
 76
1
330
1B
  0
MATERIAL
  5
1F
102
{ACAD_REACTORS
330
E
102
}
330
E
100
AcDbMaterial
  1
ByBlock
  2

 70
0
 40
1.0
 71
1
 41
1.0
 91
-1023410177
 42
1.0
 72
1
  3

 73
1
 74
1
 75
1
 44
0.5
 73
0
 45
1.0
 46
1.0
 77
1
  4

 78
1
 79
1
170
1
 48
1.0
171
1
  6

172
1
173
1
174
1
140
1.0
141
1.0
175
1
  7

176
1
177
1
178
1
143
1.0
179
1
  8

270
1
271
1
272
1
145
1.0
146
1.0
273
1
  9

274
1
275
1
276
1
 42
1.0
 72
1
  3

 73
1
 74
1
 75
1
 94
63
  0
MATERIAL
  5
20
102
{ACAD_REACTORS
330
E
102
}
330
E
100
AcDbMaterial
  1
ByLayer
  2

 70
0
 40
1.0
 71
1
 41
1.0
 91
-1023410177
 42
1.0
 72
1
  3

 73
1
 74
1
 75
1
 44
0.5
 73
0
 45
1.0
 46
1.0
 77
1
  4

 78
1
 79
1
170
1
 48
1.0
171
1
  6

172
1
173
1
174
1
140
1.0
141
1.0
175
1
  7

176
1
177
1
178
1
143
1.0
179
1
  8

270
1
271
1
272
1
145
1.0
146
1.0
273
1
  9

274
1
275
1
276
1
 42
1.0
 72
1
  3

 73
1
 74
1
 75
1
 94
63
  0
MATERIAL
  5
21
102
{ACAD_REACTORS
330
E
102
}
330
E
100
AcDbMaterial
  1
Global
  2

 70
0
 40
1.0
 71
1
 41
1.0
 91
-1023410177
 42
1.0
 72
1
  3

 73
1
 74
1
 75
1
 44
0.5
 73
0
 45
1.0
 46
1.0
 77
1
  4

 78
1
 79
1
170
1
 48
1.0
171
1
  6

172
1
173
1
174
1
140
1.0
141
1.0
175
1
  7

176
1
177
1
178
1
143
1.0
179
1
  8

270
1
271
1
272
1
145
1.0
146
1.0
273
1
  9

274
1
275
1
276
1
 42
1.0
 72
1
  3

 73
1
 74
1
 75
1
 94
63
  0
MLINESTYLE
  5
22
102
{ACAD_REACTORS
330
10
102
}
330
10
100
AcDbMlineStyle
  2
Standard
 70
0
  3

 62
256
 51
90.0
 52
90.0
 71
2
 49
0.5
 62
256
  6
BYLAYER
 49
-0.5
 62
256
  6
BYLAYER
  0
MLEADERSTYLE
  5
2C
102
{ACAD_REACTORS
330
F
102
}
330
F
100
AcDbMLeaderStyle
179
2
170
2
171
1
172
0
 90
2
 40
0.0
 41
0.0
173
1
 91
-1056964608
 92
-2
290
1
 42
2.0
291
1
 43
8.0
  3
Standard
 44
4.0
300

342
29
174
1
175
1
176
0
178
1
 93
-1056964608
 45
4.0
292
0
297
0
 46
4.0
 94
-1056964608
 47
1.0
 49
1.0
140
1.0
294
1
141
0.0
177
0
142
1.0
295
0
296
0
143
3.75
271
0
272
9
273
9
  0
DICTIONARY
  5
2D
330
A
100
AcDbDictionary
280
1
281
1
  3
CREATED_BY_EZDXF
350
2E
  3
WRITTEN_BY_EZDXF
350
83
  0
DICTIONARYVAR
  5
2E
330
2D
100
DictionaryVariables
280
0
  1
1.4.2 @ 2026-06-25T15:00:14.268613+00:00
  0
DICTIONARYVAR
  5
83
330
2D
100
DictionaryVariables
280
0
  1
1.4.2 @ 2026-06-25T15:00:14.272827+00:00
  0
ENDSEC
  0
EOF
