  0
SECTION
  2
HEADER
  9
$ACADVER
  1
AC1027
  9
$ACADMAINTVER
 70
105
  9
$DWGCODEPAGE
  3
ANSI_1252
  9
$LASTSAVEDBY
  1
ezdxf
  9
$REQUIREDVERSIONS
160
0
  9
$INSBASE
 10
0.0
 20
0.0
 30
0.0
  9
$EXTMIN
 10
1e+20
 20
1e+20
 30
1e+20
  9
$EXTMAX
 10
-1e+20
 20
-1e+20
 30
-1e+20
  9
$LIMMIN
 10
0.0
 20
0.0
  9
$LIMMAX
 10
420.0
 20
297.0
  9
$ORTHOMODE
 70
0
  9
$REGENMODE
 70
1
  9
$FILLMODE
 70
1
  9
$QTEXTMODE
 70
0
  9
$MIRRTEXT
 70
1
  9
$LTSCALE
 40
1.0
  9
$ATTMODE
 70
1
  9
$TEXTSIZE
 40
2.5
  9
$TRACEWID
 40
1.0
  9
$TEXTSTYLE
  7
Standard
  9
$CLAYER
  8
0
  9
$CELTYPE
  6
ByLayer
  9
$CECOLOR
 62
256
  9
$CELTSCALE
 40
1.0
  9
$DISPSILH
 70
0
  9
$DIMSCALE
 40
1.0
  9
$DIMASZ
 40
2.5
  9
$DIMEXO
 40
0.625
  9
$DIMDLI
 40
3.75
  9
$DIMRND
 40
0.0
  9
$DIMDLE
 40
0.0
  9
$DIMEXE
 40
1.25
  9
$DIMTP
 40
0.0
  9
$DIMTM
 40
0.0
  9
$DIMTXT
 40
2.5
  9
$DIMCEN
 40
2.5
  9
$DIMTSZ
 40
0.0
  9
$DIMTOL
 70
0
  9
$DIMLIM
 70
0
  9
$DIMTIH
 70
0
  9
$DIMTOH
 70
0
  9
$DIMSE1
 70
0
  9
$DIMSE2
 70
0
  9
$DIMTAD
 70
1
  9
$DIMZIN
 70
8
  9
$DIMBLK
  1

  9
$DIMASO
 70
1
  9
$DIMSHO
 70
1
  9
$DIMPOST
  1

  9
$DIMAPOST
  1

  9
$DIMALT
 70
0
  9
$DIMALTD
 70
3
  9
$DIMALTF
 40
0.03937007874
  9
$DIMLFAC
 40
1.0
  9
$DIMTOFL
 70
1
  9
$DIMTVP
 40
0.0
  9
$DIMTIX
 70
0
  9
$DIMSOXD
 70
0
  9
$DIMSAH
 70
0
  9
$DIMBLK1
  1

  9
$DIMBLK2
  1

  9
$DIMSTYLE
  2
ISO-25
  9
$DIMCLRD
 70
0
  9
$DIMCLRE
 70
0
  9
$DIMCLRT
 70
0
  9
$DIMTFAC
 40
1.0
  9
$DIMGAP
 40
0.625
  9
$DIMJUST
 70
0
  9
$DIMSD1
 70
0
  9
$DIMSD2
 70
0
  9
$DIMTOLJ
 70
0
  9
$DIMTZIN
 70
8
  9
$DIMALTZ
 70
0
  9
$DIMALTTZ
 70
0
  9
$DIMUPT
 70
0
  9
$DIMDEC
 70
2
  9
$DIMTDEC
 70
2
  9
$DIMALTU
 70
2
  9
$DIMALTTD
 70
3
  9
$DIMTXSTY
  7
Standard
  9
$DIMAUNIT
 70
0
  9
$DIMADEC
 70
0
  9
$DIMALTRND
 40
0.0
  9
$DIMAZIN
 70
0
  9
$DIMDSEP
 70
44
  9
$DIMATFIT
 70
3
  9
$DIMFRAC
 70
0
  9
$DIMLDRBLK
  1

  9
$DIMLUNIT
 70
2
  9
$DIMLWD
 70
-2
  9
$DIMLWE
 70
-2
  9
$DIMTMOVE
 70
0
  9
$DIMFXL
 40
1.0
  9
$DIMFXLON
 70
0
  9
$DIMJOGANG
 40
0.785398163397
  9
$DIMTFILL
 70
0
  9
$DIMTFILLCLR
 70
0
  9
$DIMARCSYM
 70
0
  9
$DIMLTYPE
  6

  9
$DIMLTEX1
  6

  9
$DIMLTEX2
  6

  9
$DIMTXTDIRECTION
 70
0
  9
$LUNITS
 70
2
  9
$LUPREC
 70
4
  9
$SKETCHINC
 40
1.0
  9
$FILLETRAD
 40
10.0
  9
$AUNITS
 70
0
  9
$AUPREC
 70
2
  9
$MENU
  1
.
  9
$ELEVATION
 40
0.0
  9
$PELEVATION
 40
0.0
  9
$THICKNESS
 40
0.0
  9
$LIMCHECK
 70
0
  9
$CHAMFERA
 40
0.0
  9
$CHAMFERB
 40
0.0
  9
$CHAMFERC
 40
0.0
  9
$CHAMFERD
 40
0.0
  9
$SKPOLY
 70
0
  9
$TDCREATE
 40
2461218.000173611
  9
$TDUCREATE
 40
2458532.153996898
  9
$TDUPDATE
 40
2461218.000173611
  9
$TDUUPDATE
 40
2458532.1544311
  9
$TDINDWG
 40
0.0
  9
$TDUSRTIMER
 40
0.0
  9
$USRTIMER
 70
1
  9
$ANGBASE
 50
0.0
  9
$ANGDIR
 70
0
  9
$PDMODE
 70
0
  9
$PDSIZE
 40
0.0
  9
$PLINEWID
 40
0.0
  9
$SPLFRAME
 70
0
  9
$SPLINETYPE
 70
6
  9
$SPLINESEGS
 70
8
  9
$HANDSEED
  5
8C
  9
$SURFTAB1
 70
6
  9
$SURFTAB2
 70
6
  9
$SURFTYPE
 70
6
  9
$SURFU
 70
6
  9
$SURFV
 70
6
  9
$UCSBASE
  2

  9
$UCSNAME
  2

  9
$UCSORG
 10
0.0
 20
0.0
 30
0.0
  9
$UCSXDIR
 10
1.0
 20
0.0
 30
0.0
  9
$UCSYDIR
 10
0.0
 20
1.0
 30
0.0
  9
$UCSORTHOREF
  2

  9
$UCSORTHOVIEW
 70
0
  9
$UCSORGTOP
 10
0.0
 20
0.0
 30
0.0
  9
$UCSORGBOTTOM
 10
0.0
 20
0.0
 30
0.0
  9
$UCSORGLEFT
 10
0.0
 20
0.0
 30
0.0
  9
$UCSORGRIGHT
 10
0.0
 20
0.0
 30
0.0
  9
$UCSORGFRONT
 10
0.0
 20
0.0
 30
0.0
  9
$UCSORGBACK
 10
0.0
 20
0.0
 30
0.0
  9
$PUCSBASE
  2

  9
$PUCSNAME
  2

  9
$PUCSORG
 10
0.0
 20
0.0
 30
0.0
  9
$PUCSXDIR
 10
1.0
 20
0.0
 30
0.0
  9
$PUCSYDIR
 10
0.0
 20
1.0
 30
0.0
  9
$PUCSORTHOREF
  2

  9
$PUCSORTHOVIEW
 70
0
  9
$PUCSORGTOP
 10
0.0
 20
0.0
 30
0.0
  9
$PUCSORGBOTTOM
 10
0.0
 20
0.0
 30
0.0
  9
$PUCSORGLEFT
 10
0.0
 20
0.0
 30
0.0
  9
$PUCSORGRIGHT
 10
0.0
 20
0.0
 30
0.0
  9
$PUCSORGFRONT
 10
0.0
 20
0.0
 30
0.0
  9
$PUCSORGBACK
 10
0.0
 20
0.0
 30
0.0
  9
$USERI1
 70
0
  9
$USERI2
 70
0
  9
$USERI3
 70
0
  9
$USERI4
 70
0
  9
$USERI5
 70
0
  9
$USERR1
 40
0.0
  9
$USERR2
 40
0.0
  9
$USERR3
 40
0.0
  9
$USERR4
 40
0.0
  9
$USERR5
 40
0.0
  9
$WORLDVIEW
 70
1
  9
$SHADEDGE
 70
3
  9
$SHADEDIF
 70
70
  9
$TILEMODE
 70
1
  9
$MAXACTVP
 70
64
  9
$PINSBASE
 10
0.0
 20
0.0
 30
0.0
  9
$PLIMCHECK
 70
0
  9
$PEXTMIN
 10
1e+20
 20
1e+20
 30
1e+20
  9
$PEXTMAX
 10
-1e+20
 20
-1e+20
 30
-1e+20
  9
$PLIMMIN
 10
0.0
 20
0.0
  9
$PLIMMAX
 10
420.0
 20
297.0
  9
$UNITMODE
 70
0
  9
$VISRETAIN
 70
1
  9
$PLINEGEN
 70
0
  9
$PSLTSCALE
 70
1
  9
$TREEDEPTH
 70
3020
  9
$CMLSTYLE
  2
Standard
  9
$CMLJUST
 70
0
  9
$CMLSCALE
 40
20.0
  9
$PROXYGRAPHICS
 70
1
  9
$MEASUREMENT
 70
1
  9
$CELWEIGHT
370
-1
  9
$ENDCAPS
280
0
  9
$JOINSTYLE
280
0
  9
$LWDISPLAY
290
0
  9
$INSUNITS
 70
4
  9
$HYPERLINKBASE
  1

  9
$STYLESHEET
  1

  9
$XEDIT
290
1
  9
$CEPSNTYPE
380
0
  9
$PSTYLEMODE
290
1
  9
$FINGERPRINTGUID
  2
{A10DC8FE-602F-449F-B33E-146BD5C2F040}
  9
$VERSIONGUID
  2
{334E1C77-F379-4E28-81F5-13E135EDFDCA}
  9
$EXTNAMES
290
1
  9
$PSVPSCALE
 40
0.0
  9
$OLESTARTUP
290
0
  9
$SORTENTS
280
127
  9
$INDEXCTL
280
0
  9
$HIDETEXT
280
1
  9
$XCLIPFRAME
280
1
  9
$HALOGAP
280
0
  9
$OBSCOLOR
 70
257
  9
$OBSLTYPE
280
0
  9
$INTERSECTIONDISPLAY
280
0
  9
$INTERSECTIONCOLOR
 70
257
  9
$DIMASSOC
280
2
  9
$PROJECTNAME
  1

  9
$CAMERADISPLAY
290
0
  9
$LENSLENGTH
 40
50.0
  9
$CAMERAHEIGHT
 40
0.0
  9
$STEPSPERSEC
 40
24.0
  9
$STEPSIZE
 40
100.0
  9
$3DDWFPREC
 40
2.0
  9
$PSOLWIDTH
 40
0.005
  9
$PSOLHEIGHT
 40
0.08
  9
$LOFTANG1
 40
1.570796326795
  9
$LOFTANG2
 40
1.570796326795
  9
$LOFTMAG1
 40
0.0
  9
$LOFTMAG2
 40
0.0
  9
$LOFTPARAM
 70
7
  9
$LOFTNORMALS
280
1
  9
$LATITUDE
 40
37.795
  9
$LONGITUDE
 40
-122.394
  9
$NORTHDIRECTION
 40
0.0
  9
$TIMEZONE
 70
-8000
  9
$LIGHTGLYPHDISPLAY
280
1
  9
$TILEMODELIGHTSYNCH
280
1
  9
$CMATERIAL
347
20
  9
$SOLIDHIST
280
0
  9
$SHOWHIST
280
1
  9
$DWFFRAME
280
2
  9
$DGNFRAME
280
2
  9
$REALWORLDSCALE
290
1
  9
$INTERFERECOLOR
 62
256
  9
$CSHADOW
280
0
  9
$SHADOWPLANELOCATION
 40
0.0
  0
ENDSEC
  0
SECTION
  2
CLASSES
  0
CLASS
  1
ACDBDICTIONARYWDFLT
  2
AcDbDictionaryWithDefault
  3
ObjectDBX Classes
 90
0
 91
0
280
0
281
0
  0
CLASS
  1
SUN
  2
AcDbSun
  3
SCENEOE
 90
1153
 91
0
280
0
281
0
  0
CLASS
  1
VISUALSTYLE
  2
AcDbVisualStyle
  3
ObjectDBX Classes
 90
4095
 91
0
280
0
281
0
  0
CLASS
  1
MATERIAL
  2
AcDbMaterial
  3
ObjectDBX Classes
 90
1153
 91
0
280
0
281
0
  0
CLASS
  1
SCALE
  2
AcDbScale
  3
ObjectDBX Classes
 90
1153
 91
0
280
0
281
0
  0
CLASS
  1
TABLESTYLE
  2
AcDbTableStyle
  3
ObjectDBX Classes
 90
4095
 91
0
280
0
281
0
  0
CLASS
  1
MLEADERSTYLE
  2
AcDbMLeaderStyle
  3
ACDB_MLEADERSTYLE_CLASS
 90
4095
 91
0
280
0
281
0
  0
CLASS
  1
DICTIONARYVAR
  2
AcDbDictionaryVar
  3
ObjectDBX Classes
 90
0
 91
0
280
0
281
0
  0
CLASS
  1
CELLSTYLEMAP
  2
AcDbCellStyleMap
  3
ObjectDBX Classes
 90
1152
 91
0
280
0
281
0
  0
CLASS
  1
MENTALRAYRENDERSETTINGS
  2
AcDbMentalRayRenderSettings
  3
SCENEOE
 90
1024
 91
0
280
0
281
0
  0
CLASS
  1
ACDBDETAILVIEWSTYLE
  2
AcDbDetailViewStyle
  3
ObjectDBX Classes
 90
1025
 91
0
280
0
281
0
  0
CLASS
  1
ACDBSECTIONVIEWSTYLE
  2
AcDbSectionViewStyle
  3
ObjectDBX Classes
 90
1025
 91
0
280
0
281
0
  0
CLASS
  1
RASTERVARIABLES
  2
AcDbRasterVariables
  3
ISM
 90
0
 91
0
280
0
281
0
  0
CLASS
  1
LAYOUT
  2
AcDbLayout
  3
ObjectDBX Classes
 90
0
 91
0
280
0
281
0
  0
CLASS
  1
ACDBPLACEHOLDER
  2
AcDbPlaceHolder
  3
ObjectDBX Classes
 90
0
 91
0
280
0
281
0
  0
ENDSEC
  0
SECTION
  2
TABLES
  0
TABLE
  2
VPORT
  5
8
330
0
100
AcDbSymbolTable
 70
1
  0
VPORT
  5
88
330
8
100
AcDbSymbolTableRecord
100
AcDbViewportTableRecord
  2
*Active
 70
0
 10
0.0
 20
0.0
 11
1.0
 21
1.0
 12
30.0
 22
14.997884496337091
 13
0.0
 23
0.0
 14
0.5
 24
0.5
 15
0.5
 25
0.5
 16
0.0
 26
0.0
 36
1.0
 17
0.0
 27
0.0
 37
0.0
 40
9.924864482891568
 41
1.34
 42
50.0
 43
0.0
 44
0.0
 50
0.0
 51
0.0
 71
0
 72
1000
 73
1
 74
3
 75
0
 76
0
 77
0
 78
0
281
0
 65
1
110
0.0
120
0.0
130
0.0
111
1.0
121
0.0
131
0.0
112
0.0
122
1.0
132
0.0
 79
0
146
0.0
  0
ENDTAB
  0
TABLE
  2
LTYPE
  5
2
330
0
100
AcDbSymbolTable
 70
3
  0
LTYPE
  5
24
330
2
100
AcDbSymbolTableRecord
100
AcDbLinetypeTableRecord
  2
ByBlock
 70
0
  3

 72
65
 73
0
 40
0.0
  0
LTYPE
  5
25
330
2
100
AcDbSymbolTableRecord
100
AcDbLinetypeTableRecord
  2
ByLayer
 70
0
  3

 72
65
 73
0
 40
0.0
  0
LTYPE
  5
26
330
2
100
AcDbSymbolTableRecord
100
AcDbLinetypeTableRecord
  2
Continuous
 70
0
  3

 72
65
 73
0
 40
0.0
  0
ENDTAB
  0
TABLE
  2
LAYER
  5
1
330
0
100
AcDbSymbolTable
 70
2
  0
LAYER
  5
27
330
1
100
AcDbSymbolTableRecord
100
AcDbLayerTableRecord
  2
0
 70
0
 62
7
  6
Continuous
370
-3
390
13
347
21
  0
LAYER
  5
28
330
1
100
AcDbSymbolTableRecord
100
AcDbLayerTableRecord
  2
Defpoints
 70
0
 62
7
  6
Continuous
290
0
370
-3
390
13
347
21
  0
ENDTAB
  0
TABLE
  2
STYLE
  5
5
330
0
100
AcDbSymbolTable
 70
1
  0
STYLE
  5
29
330
5
100
AcDbSymbolTableRecord
100
AcDbTextStyleTableRecord
  2
Standard
 70
0
 40
0.0
 41
1.0
 50
0.0
 71
0
 42
2.5
  3
txt
  4

  0
ENDTAB
  0
TABLE
  2
VIEW
  5
7
330
0
100
AcDbSymbolTable
 70
0
  0
ENDTAB
  0
TABLE
  2
UCS
  5
6
330
0
100
AcDbSymbolTable
 70
0
  0
ENDTAB
  0
TABLE
  2
APPID
  5
3
330
0
100
AcDbSymbolTable
 70
3
  0
APPID
  5
2A
330
3
100
AcDbSymbolTableRecord
100
AcDbRegAppTableRecord
  2
ACAD
 70
0
  0
APPID
  5
89
330
3
100
AcDbSymbolTableRecord
100
AcDbRegAppTableRecord
  2
HATCHBACKGROUNDCOLOR
 70
0
  0
APPID
  5
8A
330
3
100
AcDbSymbolTableRecord
100
AcDbRegAppTableRecord
  2
EZDXF
 70
0
  0
ENDTAB
  0
TABLE
  2
DIMSTYLE
  5
4
330
0
100
AcDbSymbolTable
 70
1
100
AcDbDimStyleTable
  0
DIMSTYLE
105
2B
330
4
100
AcDbSymbolTableRecord
100
AcDbDimStyleTableRecord
  2
Standard
 70
0
 40
1.0
 41
2.5
 42
0.625
 43
3.75
 44
1.25
 45
0.0
 46
0.0
 47
0.0
 48
0.0
 49
2.5
140
2.5
141
2.5
142
0.0
143
0.03937007874
144
1.0
145
0.0
146
1.0
147
0.625
148
0.0
 69
0
 70
0
 71
0
 72
0
 73
0
 74
0
 75
0
 76
0
 77
1
 78
8
 79
3
170
0
171
3
172
1
173
0
174
0
175
0
176
0
177
0
178
0
179
2
271
2
272
2
273
2
274
3
275
0
276
0
277
2
278
44
279
0
280
0
281
0
282
0
283
0
284
8
285
0
286
0
288
0
289
3
290
0
371
-2
372
-2
  0
ENDTAB
  0
TABLE
  2
BLOCK_RECORD
  5
9
330
0
100
AcDbSymbolTable
 70
2
  0
BLOCK_RECORD
  5
17
330
9
100
AcDbSymbolTableRecord
100
AcDbBlockTableRecord
  2
*Model_Space
340
1A
 70
0
280
1
281
0
  0
BLOCK_RECORD
  5
1B
330
9
100
AcDbSymbolTableRecord
100
AcDbBlockTableRecord
  2
*Paper_Space
340
1E
 70
0
280
1
281
0
  0
ENDTAB
  0
ENDSEC
  0
SECTION
  2
BLOCKS
  0
BLOCK
  5
18
330
17
100
AcDbEntity
  8
0
100
AcDbBlockBegin
  2
*Model_Space
 70
0
 10
0.0
 20
0.0
 30
0.0
  3
*Model_Space
  1

  0
ENDBLK
  5
19
330
17
100
AcDbEntity
  8
0
100
AcDbBlockEnd
  0
BLOCK
  5
1C
330
1B
100
AcDbEntity
  8
0
100
AcDbBlockBegin
  2
*Paper_Space
 70
0
 10
0.0
 20
0.0
 30
0.0
  3
*Paper_Space
  1

  0
ENDBLK
  5
1D
330
1B
100
AcDbEntity
  8
0
100
AcDbBlockEnd
  0
ENDSEC
  0
SECTION
  2
ENTITIES
  0
LINE
  5
2F
330
17
100
AcDbEntity
  8
0
100
AcDbLine
 10
30.0
 20
18.05741126636156
 30
14.146180641686648
 11
30.0
 21
18.97898742267954
 31
12.644054569469235
  0
LINE
  5
30
330
17
100
AcDbEntity
  8
0
100
AcDbLine
 10
30.0
 20
12.896000573772625
 30
13.102411473347855
 11
30.0
 21
12.0457677266062
 31
13.591418229465962
  0
LINE
  5
31
330
17
100
AcDbEntity
  8
0
100
AcDbLine
 10
30.0
 20
12.1839838455473
 30
18.488433616454945
 11
30.0
 21
13.22487135237597
 31
18.154591852619085
  0
LINE
  5
32
330
17
100
AcDbEntity
  8
0
100
AcDbLine
 10
30.0
 20
14.835747023011134
 30
10.880586718963343
 11
30.0
 21
15.994434008700498
 31
10.09988765411038
  0
LINE
  5
33
330
17
100
AcDbEntity
  8
0
100
AcDbLine
 10
30.0
 20
17.321468978478983
 30
16.172806147676923
 11
30.0
 21
18.365599435225235
 31
16.114223385476045
  0
LINE
  5
34
330
17
100
AcDbEntity
  8
0
100
AcDbLine
 10
30.0
 20
12.264792383102513
 30
12.459792562448516
 11
30.0
 21
11.552986002427314
 31
11.378108988313153
  0
LINE
  5
35
330
17
100
AcDbEntity
  8
0
100
AcDbLine
 10
30.0
 20
16.33017567106476
 30
18.872531044798166
 11
30.0
 21
15.908105333774968
 31
17.01936549957487
  0
LINE
  5
36
330
17
100
AcDbEntity
  8
0
100
AcDbLine
 10
30.0
 20
16.472301728780142
 30
12.30335834802235
 11
30.0
 21
16.95802627643373
 31
11.853486688096446
  0
LINE
  5
37
330
17
100
AcDbEntity
  8
0
100
AcDbLine
 10
30.0
 20
14.41171620159415
 30
18.633754921156765
 11
30.0
 21
13.902742382246561
 31
19.687552194961995
  0
LINE
  5
38
330
17
100
AcDbEntity
  8
0
100
AcDbLine
 10
30.0
 20
18.219825854041815
 30
12.497838283596105
 11
30.0
 21
17.45630871963171
 31
11.54963239703468
  0
LINE
  5
39
330
17
100
AcDbEntity
  8
0
100
AcDbLine
 10
30.0
 20
10.963963202189458
 30
12.582191243066024
 11
30.0
 21
10.22180691444817
 31
13.527291326438023
  0
LINE
  5
3A
330
17
100
AcDbEntity
  8
0
100
AcDbLine
 10
30.0
 20
17.67435470987953
 30
17.88105673178497
 11
30.0
 21
17.817777482352597
 31
17.702769520818105
  0
LINE
  5
3B
330
17
100
AcDbEntity
  8
0
100
AcDbLine
 10
30.0
 20
11.715115208368633
 30
15.372806557519148
 11
30.0
 21
10.093828003150561
 31
15.964093531422337
  0
LINE
  5
3C
330
17
100
AcDbEntity
  8
0
100
AcDbLine
 10
30.0
 20
14.11581287621421
 30
11.424278238166998
 11
30.0
 21
14.689770564462544
 31
10.429420578908339
  0
LINE
  5
3D
330
17
100
AcDbEntity
  8
0
100
AcDbLine
 10
30.0
 20
13.035495306395337
 30
14.73642161021506
 11
30.0
 21
12.274881709016977
 31
14.368245759849353
  0
LINE
  5
3E
330
17
100
AcDbEntity
  8
0
100
AcDbLine
 10
30.0
 20
13.741766782776722
 30
15.528105726512845
 11
30.0
 21
13.52523930003352
 31
14.555275419960221
  0
LINE
  5
3F
330
17
100
AcDbEntity
  8
0
100
AcDbLine
 10
30.0
 20
16.784521016683676
 30
10.427593942036154
 11
30.0
 21
16.687317311022127
 31
10.293306862358133
  0
LINE
  5
40
330
17
100
AcDbEntity
  8
0
100
AcDbLine
 10
30.0
 20
17.351126287819426
 30
11.809226058833573
 11
30.0
 21
16.821201670211725
 31
11.182455001283586
  0
LINE
  5
41
330
17
100
AcDbEntity
  8
0
100
AcDbLine
 10
30.0
 20
14.321727907426228
 30
15.54855238945312
 11
30.0
 21
15.182533278741497
 31
15.49191043907988
  0
LINE
  5
42
330
17
100
AcDbEntity
  8
0
100
AcDbLine
 10
30.0
 20
18.82535931356118
 30
18.219724541346782
 11
30.0
 21
18.668785476517314
 31
18.153068979672284
  0
LINE
  5
43
330
17
100
AcDbEntity
  8
0
100
AcDbLine
 10
30.0
 20
17.435324468436963
 30
11.796685263119558
 11
30.0
 21
17.909859434169356
 31
10.939208351867379
  0
LINE
  5
44
330
17
100
AcDbEntity
  8
0
100
AcDbLine
 10
30.0
 20
14.831705981616398
 30
12.666736560141072
 11
30.0
 21
13.704228941738048
 31
12.284433307403239
  0
LINE
  5
45
330
17
100
AcDbEntity
  8
0
100
AcDbLine
 10
30.0
 20
17.433568512454833
 30
11.007775017020556
 11
30.0
 21
17.185484524788183
 31
10.502927908971063
  0
LINE
  5
46
330
17
100
AcDbEntity
  8
0
100
AcDbLine
 10
30.0
 20
12.132520918707275
 30
18.27030981871889
 11
30.0
 21
12.478371465885667
 31
17.776862721389733
  0
LINE
  5
47
330
17
100
AcDbEntity
  8
0
100
AcDbLine
 10
30.0
 20
16.03827692405634
 30
19.8910102258094
 11
30.0
 21
12.133490112383603
 31
19.096720769615306
  0
LINE
  5
48
330
17
100
AcDbEntity
  8
0
100
AcDbLine
 10
30.0
 20
17.27743302904158
 30
17.202154224257512
 11
30.0
 21
16.101797359755267
 31
17.900638876355718
  0
LINE
  5
49
330
17
100
AcDbEntity
  8
0
100
AcDbLine
 10
30.0
 20
13.950963538838531
 30
12.539459423664978
 11
30.0
 21
15.494681490171697
 31
12.608863522113367
  0
LINE
  5
4A
330
17
100
AcDbEntity
  8
0
100
AcDbLine
 10
30.0
 20
19.096810785867124
 30
17.86638123507722
 11
30.0
 21
16.682808595939832
 31
16.414244302866738
  0
LINE
  5
4B
330
17
100
AcDbEntity
  8
0
100
AcDbLine
 10
30.0
 20
17.82097188716812
 30
13.280386386498849
 11
30.0
 21
16.647658499397366
 31
12.703988223250152
  0
LINE
  5
4C
330
17
100
AcDbEntity
  8
0
100
AcDbLine
 10
30.0
 20
11.889623571887899
 30
12.99548604399762
 11
30.0
 21
11.220246086169166
 31
12.260477076805646
  0
LINE
  5
4D
330
17
100
AcDbEntity
  8
0
100
AcDbLine
 10
30.0
 20
19.241406074880683
 30
12.352269932949124
 11
30.0
 21
17.748190630778257
 31
12.63345839531105
  0
LINE
  5
4E
330
17
100
AcDbEntity
  8
0
100
AcDbLine
 10
30.0
 20
16.831432882241142
 30
11.936766156405342
 11
30.0
 21
16.098839577513743
 31
11.252932043136358
  0
LINE
  5
4F
330
17
100
AcDbEntity
  8
0
100
AcDbLine
 10
30.0
 20
11.650882780520213
 30
11.457747106882014
 11
30.0
 21
12.081707054605014
 31
11.020164929132342
  0
LINE
  5
50
330
17
100
AcDbEntity
  8
0
100
AcDbLine
 10
30.0
 20
12.12047870708508
 30
17.809202088596056
 11
30.0
 21
11.622438050277744
 31
17.17691292565867
  0
LINE
  5
51
330
17
100
AcDbEntity
  8
0
100
AcDbLine
 10
30.0
 20
18.423526942998084
 30
18.644099788777222
 11
30.0
 21
17.116672754385238
 31
18.262813921840277
  0
LINE
  5
52
330
17
100
AcDbEntity
  8
0
100
AcDbLine
 10
30.0
 20
12.569144121892702
 30
15.816763847259736
 11
30.0
 21
13.316072891100733
 31
14.920369313358972
  0
LINE
  5
53
330
17
100
AcDbEntity
  8
0
100
AcDbLine
 10
30.0
 20
15.611442143451134
 30
18.88340428883153
 11
30.0
 21
15.393919451563347
 31
17.73654862014196
  0
LINE
  5
54
330
17
100
AcDbEntity
  8
0
100
AcDbLine
 10
30.0
 20
14.124050129142766
 30
18.207014531332874
 11
30.0
 21
13.134523350640746
 31
16.20044874998367
  0
LINE
  5
55
330
17
100
AcDbEntity
  8
0
100
AcDbLine
 10
30.0
 20
11.11936071063927
 30
17.277074501279873
 11
30.0
 21
10.452254199326141
 31
17.077981744975947
  0
LINE
  5
56
330
17
100
AcDbEntity
  8
0
100
AcDbLine
 10
30.0
 20
19.265660424949992
 30
12.391525131611298
 11
30.0
 21
14.302848285181089
 31
12.064741622375905
  0
LINE
  5
57
330
17
100
AcDbEntity
  8
0
100
AcDbLine
 10
30.0
 20
19.52188152239583
 30
15.634590354993575
 11
30.0
 21
19.08198876937025
 31
15.938457933445449
  0
LINE
  5
58
330
17
100
AcDbEntity
  8
0
100
AcDbLine
 10
30.0
 20
16.296651790488095
 30
11.08692540607296
 11
30.0
 21
16.15589607981935
 31
10.135444084743371
  0
LINE
  5
59
330
17
100
AcDbEntity
  8
0
100
AcDbLine
 10
30.0
 20
10.748615601622014
 30
13.932727152874653
 11
30.0
 21
10.056923357495311
 31
14.24767473369255
  0
LINE
  5
5A
330
17
100
AcDbEntity
  8
0
100
AcDbLine
 10
30.0
 20
11.88720292615874
 30
12.18454562737529
 11
30.0
 21
11.288618849110904
 31
12.379639120831266
  0
LINE
  5
5B
330
17
100
AcDbEntity
  8
0
100
AcDbLine
 10
30.0
 20
16.274619058918685
 30
11.070863547103627
 11
30.0
 21
16.882219230891028
 31
10.367802814337026
  0
LINE
  5
5C
330
17
100
AcDbEntity
  8
0
100
AcDbLine
 10
30.0
 20
18.598592432971934
 30
13.547902848918268
 11
30.0
 21
17.558883807966822
 31
13.491374061379753
  0
LINE
  5
5D
330
17
100
AcDbEntity
  8
0
100
AcDbLine
 10
30.0
 20
19.960316737782875
 30
14.371304635875966
 11
30.0
 21
19.756779065579188
 31
13.952423359905147
  0
LINE
  5
5E
330
17
100
AcDbEntity
  8
0
100
AcDbLine
 10
30.0
 20
19.34845965072342
 30
12.532025391939708
 11
30.0
 21
17.20894430143255
 31
11.44665866049311
  0
LINE
  5
5F
330
17
100
AcDbEntity
  8
0
100
AcDbLine
 10
30.0
 20
14.469205398406217
 30
18.265097453734647
 11
30.0
 21
14.637432959730338
 31
19.214539247274878
  0
LINE
  5
60
330
17
100
AcDbEntity
  8
0
100
AcDbLine
 10
30.0
 20
17.905019343576427
 30
18.897088786063208
 11
30.0
 21
16.869080024560738
 31
17.90125484207762
  0
LINE
  5
61
330
17
100
AcDbEntity
  8
0
100
AcDbLine
 10
30.0
 20
17.50389364892702
 30
16.143169302610758
 11
30.0
 21
16.488682399787926
 31
16.467710635145743
  0
LINE
  5
62
330
17
100
AcDbEntity
  8
0
100
AcDbLine
 10
30.0
 20
12.933464404813655
 30
18.386961049539128
 11
30.0
 21
14.26385264924925
 31
17.1681166308107
  0
LINE
  5
63
330
17
100
AcDbEntity
  8
0
100
AcDbLine
 10
30.0
 20
14.360613279289234
 30
18.713035563486915
 11
30.0
 21
13.39149766982332
 31
18.152479236786395
  0
LINE
  5
64
330
17
100
AcDbEntity
  8
0
100
AcDbLine
 10
30.0
 20
17.247303119241323
 30
18.62273218148155
 11
30.0
 21
16.81587383208035
 31
18.54569114459189
  0
LINE
  5
65
330
17
100
AcDbEntity
  8
0
100
AcDbLine
 10
30.0
 20
18.481920501772745
 30
13.583315250644626
 11
30.0
 21
18.12610023671553
 31
12.74821625325537
  0
LINE
  5
66
330
17
100
AcDbEntity
  8
0
100
AcDbLine
 10
30.0
 20
10.946287816120314
 30
12.537200728573824
 11
30.0
 21
12.306171428310119
 31
10.888181142775318
  0
LINE
  5
67
330
17
100
AcDbEntity
  8
0
100
AcDbLine
 10
30.0
 20
12.269134682547987
 30
11.048195321942167
 11
30.0
 21
12.056155030309263
 31
10.958493251963255
  0
LINE
  5
68
330
17
100
AcDbEntity
  8
0
100
AcDbLine
 10
30.0
 20
15.81127969635135
 30
14.977568791000632
 11
30.0
 21
16.766058805761862
 31
16.191250145587833
  0
LINE
  5
69
330
17
100
AcDbEntity
  8
0
100
AcDbLine
 10
30.0
 20
14.8596300023648
 30
15.10170299260802
 11
30.0
 21
14.59488787105516
 31
14.22110553422122
  0
LINE
  5
6A
330
17
100
AcDbEntity
  8
0
100
AcDbLine
 10
30.0
 20
12.297764117319367
 30
10.849558010070588
 11
30.0
 21
12.282153523980595
 31
10.803178520262161
  0
LINE
  5
6B
330
17
100
AcDbEntity
  8
0
100
AcDbLine
 10
30.0
 20
19.514756169889047
 30
12.851284866147033
 11
30.0
 21
19.41048201656955
 31
13.132855247753982
  0
LINE
  5
6C
330
17
100
AcDbEntity
  8
0
100
AcDbLine
 10
30.0
 20
19.75908939643754
 30
13.466680686642281
 11
30.0
 21
19.569637442902806
 31
13.776862007520979
  0
LINE
  5
6D
330
17
100
AcDbEntity
  8
0
100
AcDbLine
 10
30.0
 20
10.259554661550368
 30
14.764678216131477
 11
30.0
 21
10.035452254891307
 31
14.405638421046413
  0
LINE
  5
6E
330
17
100
AcDbEntity
  8
0
100
AcDbLine
 10
30.0
 20
13.708560661957076
 30
18.966358924548295
 11
30.0
 21
13.047159988046142
 31
19.60287039657995
  0
LINE
  5
6F
330
17
100
AcDbEntity
  8
0
100
AcDbLine
 10
30.0
 20
19.27069019589167
 30
17.600231768653472
 11
30.0
 21
18.068768707456833
 31
16.301558038284796
  0
LINE
  5
70
330
17
100
AcDbEntity
  8
0
100
AcDbLine
 10
30.0
 20
14.202779352281263
 30
14.886926612020565
 11
30.0
 21
13.885142989090198
 31
15.42266805985643
  0
LINE
  5
71
330
17
100
AcDbEntity
  8
0
100
AcDbLine
 10
30.0
 20
11.956439825410905
 30
12.729782898925938
 11
30.0
 21
10.407077671084943
 31
15.029788094813064
  0
LINE
  5
72
330
17
100
AcDbEntity
  8
0
100
AcDbLine
 10
30.0
 20
16.743392851220698
 30
15.684785829016887
 11
30.0
 21
15.842763418761145
 31
15.14942834225467
  0
LINE
  5
73
330
17
100
AcDbEntity
  8
0
100
AcDbLine
 10
30.0
 20
17.356276571166983
 30
12.984748971288482
 11
30.0
 21
18.798880576236265
 31
13.11463656901509
  0
LINE
  5
74
330
17
100
AcDbEntity
  8
0
100
AcDbLine
 10
30.0
 20
13.059651603855379
 30
15.93061078497796
 11
30.0
 21
11.81277309766813
 31
14.525329848163064
  0
LINE
  5
75
330
17
100
AcDbEntity
  8
0
100
AcDbLine
 10
30.0
 20
15.564514406394133
 30
15.4466020525364
 11
30.0
 21
13.97209912259959
 31
15.450765893043519
  0
LINE
  5
76
330
17
100
AcDbEntity
  8
0
100
AcDbLine
 10
30.0
 20
11.19429366710341
 30
18.242930666503803
 11
30.0
 21
13.439818386269593
 31
17.97022327341566
  0
LINE
  5
77
330
17
100
AcDbEntity
  8
0
100
AcDbLine
 10
30.0
 20
12.536459941433572
 30
13.805694040652472
 11
30.0
 21
13.017835088035143
 31
12.915548258365789
  0
LINE
  5
78
330
17
100
AcDbEntity
  8
0
100
AcDbLine
 10
30.0
 20
13.266142288172906
 30
10.310251879350265
 11
30.0
 21
13.171662624102801
 31
10.638065733178424
  0
LINE
  5
79
330
17
100
AcDbEntity
  8
0
100
AcDbLine
 10
30.0
 20
18.20324661365182
 30
13.34628598332394
 11
30.0
 21
19.037665801076102
 31
12.050889137583926
  0
LINE
  5
7A
330
17
100
AcDbEntity
  8
0
100
AcDbLine
 10
30.0
 20
18.316155792088658
 30
17.60223182993041
 11
30.0
 21
18.650207292068202
 31
18.417014299784555
  0
LINE
  5
7B
330
17
100
AcDbEntity
  8
0
100
AcDbLine
 10
30.0
 20
19.925458629124194
 30
14.139850424178428
 11
30.0
 21
19.40716502732045
 31
12.73563534730731
  0
LINE
  5
7C
330
17
100
AcDbEntity
  8
0
100
AcDbLine
 10
30.0
 20
16.752433869976123
 30
11.50996981571456
 11
30.0
 21
17.041267213139907
 31
11.33955910355225
  0
LINE
  5
7D
330
17
100
AcDbEntity
  8
0
100
AcDbLine
 10
30.0
 20
13.686008273459828
 30
18.609532084165355
 11
30.0
 21
13.296703003972416
 31
18.402231634492487
  0
LINE
  5
7E
330
17
100
AcDbEntity
  8
0
100
AcDbLine
 10
30.0
 20
17.311926111991838
 30
18.494735369388692
 11
30.0
 21
17.978582600054743
 31
18.734867744459578
  0
LINE
  5
7F
330
17
100
AcDbEntity
  8
0
100
AcDbLine
 10
30.0
 20
11.530405329169904
 30
15.056775854777516
 11
30.0
 21
11.737986141211657
 31
13.978047635098253
  0
LINE
  5
80
330
17
100
AcDbEntity
  8
0
100
AcDbLine
 10
30.0
 20
15.06991457639457
 30
19.044984172767837
 11
30.0
 21
17.206398289659564
 31
17.722989187236887
  0
LINE
  5
81
330
17
100
AcDbEntity
  8
0
100
AcDbLine
 10
30.0
 20
12.700416880448099
 30
17.583333587441544
 11
30.0
 21
11.893899066031159
 31
17.533777594526587
  0
LINE
  5
82
330
17
100
AcDbEntity
  8
0
100
AcDbLine
 10
30.0
 20
16.96692352781935
 30
19.259172105676033
 11
30.0
 21
17.16990302592073
 31
19.50461106624091
  0
LINE
  5
83
330
17
100
AcDbEntity
  8
0
100
AcDbLine
 10
30.0
 20
18.532906485611512
 30
12.871058427947464
 11
30.0
 21
19.174878013027865
 31
12.248565178613799
  0
LINE
  5
84
330
17
100
AcDbEntity
  8
0
100
AcDbLine
 10
30.0
 20
11.640369742742497
 30
16.669914361675957
 11
30.0
 21
11.738885959637187
 31
16.26161518683957
  0
LINE
  5
85
330
17
100
AcDbEntity
  8
0
100
AcDbLine
 10
30.0
 20
14.331131698397193
 30
14.710179211117676
 11
30.0
 21
15.598281812843899
 31
16.401215311544117
  0
LINE
  5
86
330
17
100
AcDbEntity
  8
0
100
AcDbLine
 10
30.0
 20
14.982021764343855
 30
14.87404444851129
 11
30.0
 21
16.018833022922315
 31
15.751060091718251
  0
LINE
  5
87
330
17
100
AcDbEntity
  8
0
100
AcDbLine
 10
30.0
 20
18.22828940559579
 30
11.982147410993303
 11
30.0
 21
19.53249710148298
 31
12.888964703031142
  0
ENDSEC
  0
SECTION
  2
OBJECTS
  0
DICTIONARY
  5
A
330
0
100
AcDbDictionary
281
1
  3
ACAD_COLOR
350
B
  3
ACAD_GROUP
350
C
  3
ACAD_LAYOUT
350
D
  3
ACAD_MATERIAL
350
E
  3
ACAD_MLEADERSTYLE
350
F
  3
ACAD_MLINESTYLE
350
10
  3
ACAD_PLOTSETTINGS
350
11
  3
ACAD_PLOTSTYLENAME
350
12
  3
ACAD_SCALELIST
350
14
  3
ACAD_TABLESTYLE
350
15
  3
ACAD_VISUALSTYLE
350
16
  3
EZDXF_META
350
2D
  0
DICTIONARY
  5
B
330
A
100
AcDbDictionary
281
1
  0
DICTIONARY
  5
C
330
A
100
AcDbDictionary
281
1
  0
DICTIONARY
  5
D
330
A
100
AcDbDictionary
281
1
  3
Model
350
1A
  3
Layout1
350
1E
  0
DICTIONARY
  5
E
330
A
100
AcDbDictionary
281
1
  3
ByBlock
350
1F
  3
ByLayer
350
20
  3
Global
350
21
  0
DICTIONARY
  5
F
330
A
100
AcDbDictionary
281
1
  3
Standard
350
2C
  0
DICTIONARY
  5
10
330
A
100
AcDbDictionary
281
1
  3
Standard
350
22
  0
DICTIONARY
  5
11
330
A
100
AcDbDictionary
281
1
  0
ACDBDICTIONARYWDFLT
  5
12
330
A
100
AcDbDictionary
281
1
  3
Normal
350
13
100
AcDbDictionaryWithDefault
340
13
  0
ACDBPLACEHOLDER
  5
13
330
12
  0
DICTIONARY
  5
14
330
A
100
AcDbDictionary
281
1
  0
DICTIONARY
  5
15
330
A
100
AcDbDictionary
281
1
  0
DICTIONARY
  5
16
330
A
100
AcDbDictionary
281
1
  0
LAYOUT
  5
1A
330
D
100
AcDbPlotSettings
  1

  4
A3
  6

 40
7.5
 41
20.0
 42
7.5
 43
20.0
 44
420.0
 45
297.0
 46
0.0
 47
0.0
 48
0.0
 49
0.0
140
0.0
141
0.0
142
1.0
143
1.0
 70
1024
 72
1
 73
0
 74
5
  7

 75
16
 76
0
 77
2
 78
300
147
1.0
148
0.0
149
0.0
100
AcDbLayout
  1
Model
 70
1
 71
0
 10
0.0
 20
0.0
 11
420.0
 21
297.0
 12
0.0
 22
0.0
 32
0.0
 14
1e+20
 24
1e+20
 34
1e+20
 15
-1e+20
 25
-1e+20
 35
-1e+20
146
0.0
 13
0.0
 23
0.0
 33
0.0
 16
1.0
 26
0.0
 36
0.0
 17
0.0
 27
1.0
 37
0.0
 76
1
330
17
  0
LAYOUT
  5
1E
330
D
100
AcDbPlotSettings
  1

  4
A3
  6

 40
7.5
 41
20.0
 42
7.5
 43
20.0
 44
420.0
 45
297.0
 46
0.0
 47
0.0
 48
0.0
 49
0.0
140
0.0
141
0.0
142
1.0
143
1.0
 70
0
 72
1
 73
0
 74
5
  7

 75
16
 76
0
 77
2
 78
300
147
1.0
148
0.0
149
0.0
100
AcDbLayout
  1
Layout1
 70
1
 71
1
 10
0.0
 20
0.0
 11
420.0
 21
297.0
 12
0.0
 22
0.0
 32
0.0
 14
1e+20
 24
1e+20
 34
1e+20
 15
-1e+20
 25
-1e+20
 35
-1e+20
146
0.0
 13
0.0
 23
0.0
 33
0.0
 16
1.0
 26
0.0
 36
0.0
 17
0.0
 27
1.0
 37
0.0
 76
1
330
1B
  0
MATERIAL
  5
1F
102
{ACAD_REACTORS
330
E
102
}
330
E
100
AcDbMaterial
  1
ByBlock
  2

 70
0
 40
1.0
 71
1
 41
1.0
 91
-1023410177
 42
1.0
 72
1
  3

 73
1
 74
1
 75
1
 44
0.5
 73
0
 45
1.0
 46
1.0
 77
1
  4

 78
1
 79
1
170
1
 48
1.0
171
1
  6

172
1
173
1
174
1
140
1.0
141
1.0
175
1
  7

176
1
177
1
178
1
143
1.0
179
1
  8

270
1
271
1
272
1
145
1.0
146
1.0
273
1
  9

274
1
275
1
276
1
 42
1.0
 72
1
  3

 73
1
 74
1
 75
1
 94
63
  0
MATERIAL
  5
20
102
{ACAD_REACTORS
330
E
102
}
330
E
100
AcDbMaterial
  1
ByLayer
  2

 70
0
 40
1.0
 71
1
 41
1.0
 91
-1023410177
 42
1.0
 72
1
  3

 73
1
 74
1
 75
1
 44
0.5
 73
0
 45
1.0
 46
1.0
 77
1
  4

 78
1
 79
1
170
1
 48
1.0
171
1
  6

172
1
173
1
174
1
140
1.0
141
1.0
175
1
  7

176
1
177
1
178
1
143
1.0
179
1
  8

270
1
271
1
272
1
145
1.0
146
1.0
273
1
  9

274
1
275
1
276
1
 42
1.0
 72
1
  3

 73
1
 74
1
 75
1
 94
63
  0
MATERIAL
  5
21
102
{ACAD_REACTORS
330
E
102
}
330
E
100
AcDbMaterial
  1
Global
  2

 70
0
 40
1.0
 71
1
 41
1.0
 91
-1023410177
 42
1.0
 72
1
  3

 73
1
 74
1
 75
1
 44
0.5
 73
0
 45
1.0
 46
1.0
 77
1
  4

 78
1
 79
1
170
1
 48
1.0
171
1
  6

172
1
173
1
174
1
140
1.0
141
1.0
175
1
  7

176
1
177
1
178
1
143
1.0
179
1
  8

270
1
271
1
272
1
145
1.0
146
1.0
273
1
  9

274
1
275
1
276
1
 42
1.0
 72
1
  3

 73
1
 74
1
 75
1
 94
63
  0
MLINESTYLE
  5
22
102
{ACAD_REACTORS
330
10
102
}
330
10
100
AcDbMlineStyle
  2
Standard
 70
0
  3

 62
256
 51
90.0
 52
90.0
 71
2
 49
0.5
 62
256
  6
BYLAYER
 49
-0.5
 62
256
  6
BYLAYER
  0
MLEADERSTYLE
  5
2C
102
{ACAD_REACTORS
330
F
102
}
330
F
100
AcDbMLeaderStyle
179
2
170
2
171
1
172
0
 90
2
 40
0.0
 41
0.0
173
1
 91
-1056964608
 92
-2
290
1
 42
2.0
291
1
 43
8.0
  3
Standard
 44
4.0
300

342
29
174
1
175
1
176
0
178
1
 93
-1056964608
 45
4.0
292
0
297
0
 46
4.0
 94
-1056964608
 47
1.0
 49
1.0
140
1.0
294
1
141
0.0
177
0
142
1.0
295
0
296
0
143
3.75
271
0
272
9
273
9
  0
DICTIONARY
  5
2D
330
A
100
AcDbDictionary
280
1
281
1
  3
CREATED_BY_EZDXF
350
2E
  3
WRITTEN_BY_EZDXF
350
8B
  0
DICTIONARYVAR
  5
2E
330
2D
100
DictionaryVariables
280
0
  1
1.4.2 @ 2026-06-25T15:00:15.794439+00:00
  0
DICTIONARYVAR
  5
8B
330
2D
100
DictionaryVariables
280
0
  1
1.4.2 @ 2026-06-25T15:00:15.798828+00:00
  0
ENDSEC
  0
EOF
