<?xml version="1.0"?>
<VTKFile type="PolyData" version="1.0">
  <PolyData>
    <Piece NumberOfPoints="178" NumberOfLines="89" NumberOfPolys="0">
      <Points>
        <DataArray type="Float64" NumberOfComponents="3" format="ascii">
          30.000000 18.057411 14.146181
          30.000000 18.978987 12.644055
          30.000000 12.896001 13.102411
          30.000000 12.045768 13.591418
          30.000000 12.183984 18.488434
          30.000000 13.224871 18.154592
          30.000000 14.835747 10.880587
          30.000000 15.994434 10.099888
          30.000000 17.321469 16.172806
          30.000000 18.365599 16.114223
          30.000000 12.264792 12.459793
          30.000000 11.552986 11.378109
          30.000000 16.330176 18.872531
          30.000000 15.908105 17.019365
          30.000000 16.472302 12.303358
          30.000000 16.958026 11.853487
          30.000000 14.411716 18.633755
          30.000000 13.902742 19.687552
          30.000000 18.219826 12.497838
          30.000000 17.456309 11.549632
          30.000000 10.963963 12.582191
          30.000000 10.221807 13.527291
          30.000000 17.674355 17.881057
          30.000000 17.817777 17.702770
          30.000000 11.715115 15.372807
          30.000000 10.093828 15.964094
          30.000000 14.115813 11.424278
          30.000000 14.689771 10.429421
          30.000000 13.035495 14.736422
          30.000000 12.274882 14.368246
          30.000000 13.741767 15.528106
          30.000000 13.525239 14.555275
          30.000000 16.784521 10.427594
          30.000000 16.687317 10.293307
          30.000000 17.351126 11.809226
          30.000000 16.821202 11.182455
          30.000000 14.321728 15.548552
          30.000000 15.182533 15.491910
          30.000000 18.825359 18.219725
          30.000000 18.668785 18.153069
          30.000000 17.435324 11.796685
          30.000000 17.909859 10.939208
          30.000000 14.831706 12.666737
          30.000000 13.704229 12.284433
          30.000000 17.433569 11.007775
          30.000000 17.185485 10.502928
          30.000000 12.132521 18.270310
          30.000000 12.478371 17.776863
          30.000000 16.038277 19.891010
          30.000000 12.133490 19.096721
          30.000000 17.277433 17.202154
          30.000000 16.101797 17.900639
          30.000000 13.950964 12.539459
          30.000000 15.494681 12.608864
          30.000000 19.096811 17.866381
          30.000000 16.682809 16.414244
          30.000000 17.820972 13.280386
          30.000000 16.647658 12.703988
          30.000000 11.889624 12.995486
          30.000000 11.220246 12.260477
          30.000000 19.241406 12.352270
          30.000000 17.748191 12.633458
          30.000000 16.831433 11.936766
          30.000000 16.098840 11.252932
          30.000000 11.650883 11.457747
          30.000000 12.081707 11.020165
          30.000000 12.120479 17.809202
          30.000000 11.622438 17.176913
          30.000000 18.423527 18.644100
          30.000000 17.116673 18.262814
          30.000000 12.569144 15.816764
          30.000000 13.316073 14.920369
          30.000000 15.611442 18.883404
          30.000000 15.393919 17.736549
          30.000000 14.124050 18.207015
          30.000000 13.134523 16.200449
          30.000000 11.119361 17.277075
          30.000000 10.452254 17.077982
          30.000000 19.265660 12.391525
          30.000000 14.302848 12.064742
          30.000000 19.521882 15.634590
          30.000000 19.081989 15.938458
          30.000000 16.296652 11.086925
          30.000000 16.155896 10.135444
          30.000000 10.748616 13.932727
          30.000000 10.056923 14.247675
          30.000000 11.887203 12.184546
          30.000000 11.288619 12.379639
          30.000000 16.274619 11.070864
          30.000000 16.882219 10.367803
          30.000000 18.598592 13.547903
          30.000000 17.558884 13.491374
          30.000000 19.960317 14.371305
          30.000000 19.756779 13.952423
          30.000000 19.348460 12.532025
          30.000000 17.208944 11.446659
          30.000000 14.469205 18.265097
          30.000000 14.637433 19.214539
          30.000000 17.905019 18.897089
          30.000000 16.869080 17.901255
          30.000000 17.503894 16.143169
          30.000000 16.488682 16.467711
          30.000000 12.933464 18.386961
          30.000000 14.263853 17.168117
          30.000000 14.360613 18.713036
          30.000000 13.391498 18.152479
          30.000000 17.247303 18.622732
          30.000000 16.815874 18.545691
          30.000000 18.481921 13.583315
          30.000000 18.126100 12.748216
          30.000000 10.946288 12.537201
          30.000000 12.306171 10.888181
          30.000000 12.269135 11.048195
          30.000000 12.056155 10.958493
          30.000000 15.811280 14.977569
          30.000000 16.766059 16.191250
          30.000000 14.859630 15.101703
          30.000000 14.594888 14.221106
          30.000000 12.297764 10.849558
          30.000000 12.282154 10.803179
          30.000000 19.514756 12.851285
          30.000000 19.410482 13.132855
          30.000000 19.759089 13.466681
          30.000000 19.569637 13.776862
          30.000000 10.259555 14.764678
          30.000000 10.035452 14.405638
          30.000000 13.708561 18.966359
          30.000000 13.047160 19.602870
          30.000000 19.270690 17.600232
          30.000000 18.068769 16.301558
          30.000000 14.202779 14.886927
          30.000000 13.885143 15.422668
          30.000000 11.956440 12.729783
          30.000000 10.407078 15.029788
          30.000000 16.743393 15.684786
          30.000000 15.842763 15.149428
          30.000000 17.356277 12.984749
          30.000000 18.798881 13.114637
          30.000000 13.059652 15.930611
          30.000000 11.812773 14.525330
          30.000000 15.564514 15.446602
          30.000000 13.972099 15.450766
          30.000000 11.194294 18.242931
          30.000000 13.439818 17.970223
          30.000000 12.536460 13.805694
          30.000000 13.017835 12.915548
          30.000000 13.266142 10.310252
          30.000000 13.171663 10.638066
          30.000000 18.203247 13.346286
          30.000000 19.037666 12.050889
          30.000000 18.316156 17.602232
          30.000000 18.650207 18.417014
          30.000000 19.925459 14.139850
          30.000000 19.407165 12.735635
          30.000000 16.752434 11.509970
          30.000000 17.041267 11.339559
          30.000000 13.686008 18.609532
          30.000000 13.296703 18.402232
          30.000000 17.311926 18.494735
          30.000000 17.978583 18.734868
          30.000000 11.530405 15.056776
          30.000000 11.737986 13.978048
          30.000000 15.069915 19.044984
          30.000000 17.206398 17.722989
          30.000000 12.700417 17.583334
          30.000000 11.893899 17.533778
          30.000000 16.966924 19.259172
          30.000000 17.169903 19.504611
          30.000000 18.532906 12.871058
          30.000000 19.174878 12.248565
          30.000000 11.640370 16.669914
          30.000000 11.738886 16.261615
          30.000000 14.331132 14.710179
          30.000000 15.598282 16.401215
          30.000000 14.982022 14.874044
          30.000000 16.018833 15.751060
          30.000000 18.228289 11.982147
          30.000000 19.532497 12.888965
        </DataArray>
      </Points>
      <Lines>
        <DataArray type="Int64" Name="connectivity" format="ascii">
          0 1
          2 3
          4 5
          6 7
          8 9
          10 11
          12 13
          14 15
          16 17
          18 19
          20 21
          22 23
          24 25
          26 27
          28 29
          30 31
          32 33
          34 35
          36 37
          38 39
          40 41
          42 43
          44 45
          46 47
          48 49
          50 51
          52 53
          54 55
          56 57
          58 59
          60 61
          62 63
          64 65
          66 67
          68 69
          70 71
          72 73
          74 75
          76 77
          78 79
          80 81
          82 83
          84 85
          86 87
          88 89
          90 91
          92 93
          94 95
          96 97
          98 99
          100 101
          102 103
          104 105
          106 107
          108 109
          110 111
          112 113
          114 115
          116 117
          118 119
          120 121
          122 123
          124 125
          126 127
          128 129
          130 131
          132 133
          134 135
          136 137
          138 139
          140 141
          142 143
          144 145
          146 147
          148 149
          150 151
          152 153
          154 155
          156 157
          158 159
          160 161
          162 163
          164 165
          166 167
          168 169
          170 171
          172 173
          174 175
          176 177
        </DataArray>
        <DataArray type="Int64" Name="offsets" format="ascii">
          2
          4
          6
          8
          10
          12
          14
          16
          18
          20
          22
          24
          26
          28
          30
          32
          34
          36
          38
          40
          42
          44
          46
          48
          50
          52
          54
          56
          58
          60
          62
          64
          66
          68
          70
          72
          74
          76
          78
          80
          82
          84
          86
          88
          90
          92
          94
          96
          98
          100
          102
          104
          106
          108
          110
          112
          114
          116
          118
          120
          122
          124
          126
          128
          130
          132
          134
          136
          138
          140
          142
          144
          146
          148
          150
          152
          154
          156
          158
          160
          162
          164
          166
          168
          170
          172
          174
          176
          178
        </DataArray>
      </Lines>
      <CellData>
        <DataArray type="Int32" Name="JointSetID" format="ascii">
          1 1 1 1 1 1 1 1 1 1
          1 1 1 1 1 1 1 1 1 1
          1 1 1 1 1 1 1 1 1 1
          1 1 1 1 1 1 1 1 1 1
          1 1 1 1 1 1 1 1 1 1
          1 1 1 1 1 1 1 1 1 1
          1 1 1 1 1 1 1 1 1 1
          1 1 1 1 1 1 1 1 1 1
          1 1 1 1 1 1 1 1 1
        </DataArray>
        <DataArray type="Float64" Name="Jr" format="ascii">
          1.507088 1.158207 2.046678 0.772580 1.240022 1.203074 1.396916 1.325562 1.546619 1.487213
          2.158004 1.940287 1.302700 1.838895 2.233237 1.299723 1.240414 1.121418 1.755321 1.674237
          1.188822 1.658615 1.636117 1.286124 1.335841 1.639714 1.022238 1.439132 1.785941 1.626081
          1.442393 1.410598 1.474867 1.609261 2.176708 1.035806 1.246787 1.169528 0.955357 1.754298
          1.550803 1.754054 1.343760 0.890665 1.876912 1.158121 1.283166 1.696288 1.489167 1.462832
          1.609467 1.506258 1.570325 1.403334 0.969493 1.081930 1.764019 1.749855 1.386168 1.182986
          1.082000 1.722600 1.597755 1.405078 2.201772 1.725852 1.443215 1.493260 1.221802 1.866055
          1.302653 1.696970 1.648389 1.251086 1.114263 1.856265 1.042069 1.877445 1.843933 1.866582
          1.285987 1.142016 1.431584 1.666269 1.671816 1.441373 0.941352 1.954949 1.740881
        </DataArray>
        <DataArray type="Float64" Name="Ja" format="ascii">
          1.614743 2.038170 1.810344 2.542570 1.561462 2.198824 2.173743 1.830167 2.025033 3.480959
          2.349915 1.901695 2.442716 2.531226 0.750000 1.455270 2.550679 2.739100 1.938981 2.009972
          1.997216 2.195690 2.758506 2.202492 2.443999 3.192118 1.469267 1.916014 3.166730 2.057347
          1.934336 2.795050 2.408495 1.132994 2.255332 2.550034 2.657150 1.796621 2.639701 2.136583
          1.579630 2.616821 1.704121 1.393740 2.522672 1.969300 2.268349 1.521088 1.964816 3.312994
          3.118603 3.443475 1.861225 3.588790 1.846226 1.966097 1.475520 1.335543 2.476381 3.040415
          2.612497 1.531343 1.470339 2.657870 1.995769 1.843518 1.275253 2.117052 1.957662 2.393779
          2.453591 1.655251 2.515243 3.404395 2.444281 3.590021 2.733644 2.305020 2.054405 1.438189
          1.625181 3.059047 1.989416 2.355842 1.057274 2.364336 1.766977 1.646972 2.613105
        </DataArray>
        <DataArray type="Float64" Name="TraceLength" format="ascii">
          1.762295 0.980828 1.093114 1.397157 1.045773 1.294877 1.900623 0.662052 1.170275 1.217396
          1.201670 0.228815 1.725744 1.148551 0.845036 0.996636 0.165776 0.820769 0.862667 0.170171
          0.980026 1.190529 0.562509 0.602580 3.984753 1.367479 1.545277 2.817110 1.307249 0.994135
          1.519460 1.002159 0.614075 0.804881 1.361340 1.166802 1.167302 2.237291 0.696182 4.973559
          0.534641 0.961836 0.760020 0.629575 0.929232 1.041244 0.465714 2.399072 0.964230 1.436961
          1.065824 1.804304 1.119557 0.438254 0.907744 2.137416 0.231099 1.544223 0.919533 0.048936
          0.300258 0.363462 0.423239 0.917931 1.769511 0.622826 2.773184 1.047731 1.448440 1.878702
          1.592421 2.262024 1.011969 0.341157 1.540879 0.880603 1.496813 0.335357 0.441058 0.708586
          1.098519 2.512416 0.808039 0.318498 0.894218 0.420016 2.113119 1.357989 1.588482
        </DataArray>
      </CellData>
    </Piece>
  </PolyData>
</VTKFile>
