<?xml version="1.0"?>
<VTKFile type="PolyData" version="1.0">
  <PolyData>
    <Piece NumberOfPoints="162" NumberOfLines="81" NumberOfPolys="0">
      <Points>
        <DataArray type="Float64" NumberOfComponents="3" format="ascii">
          10.000000 10.012440 15.352482
          10.000000 10.432239 15.101855
          10.000000 18.711773 17.506327
          10.000000 18.161223 18.277655
          10.000000 11.144796 11.816071
          10.000000 13.829967 14.763974
          10.000000 18.528043 18.543009
          10.000000 17.777529 18.088054
          10.000000 19.805703 16.380298
          10.000000 18.479689 16.499872
          10.000000 16.338468 13.225645
          10.000000 15.469061 12.913077
          10.000000 13.303173 12.966964
          10.000000 13.304959 13.951302
          10.000000 13.112529 16.560763
          10.000000 13.592241 15.813576
          10.000000 12.160492 13.179243
          10.000000 11.050425 11.933919
          10.000000 18.007319 13.826062
          10.000000 17.641273 13.809499
          10.000000 15.499733 17.355885
          10.000000 16.228735 16.563453
          10.000000 12.778681 14.364269
          10.000000 12.184251 14.409413
          10.000000 16.975493 12.915306
          10.000000 17.757342 11.323638
          10.000000 10.060193 14.226495
          10.000000 10.305947 14.050342
          10.000000 15.490967 10.144044
          10.000000 15.401240 11.591426
          10.000000 16.849990 10.354837
          10.000000 16.752064 10.394374
          10.000000 19.187160 17.518351
          10.000000 18.877409 16.359264
          10.000000 18.910346 16.104529
          10.000000 17.871434 15.823940
          10.000000 14.157777 13.128789
          10.000000 14.678124 12.898625
          10.000000 19.613088 15.707181
          10.000000 19.981845 15.425699
          10.000000 16.543857 15.842167
          10.000000 16.069361 16.828375
          10.000000 18.293627 11.308543
          10.000000 18.400667 11.334558
          10.000000 13.440255 17.707197
          10.000000 12.880973 18.607114
          10.000000 16.698663 17.234807
          10.000000 16.818763 17.110134
          10.000000 18.246073 11.196974
          10.000000 16.594702 11.723251
          10.000000 15.055645 13.416395
          10.000000 14.556811 14.078592
          10.000000 19.979313 14.545640
          10.000000 18.831642 13.207433
          10.000000 10.850855 14.438054
          10.000000 10.267431 14.534790
          10.000000 11.713254 11.232069
          10.000000 11.994646 11.096150
          10.000000 12.144450 15.995548
          10.000000 12.764580 16.885183
          10.000000 17.279644 19.450081
          10.000000 16.623330 19.044174
          10.000000 13.010865 12.882138
          10.000000 10.991265 14.331226
          10.000000 13.973100 16.544713
          10.000000 14.312378 15.498955
          10.000000 10.409275 16.430781
          10.000000 10.116240 16.071860
          10.000000 16.446959 18.334790
          10.000000 15.418908 18.517085
          10.000000 17.616461 11.424341
          10.000000 18.322635 11.263678
          10.000000 16.496589 16.405454
          10.000000 15.685313 17.311527
          10.000000 15.255505 16.299218
          10.000000 15.123098 15.418668
          10.000000 13.608441 11.889238
          10.000000 12.830261 11.609132
          10.000000 18.568491 16.839839
          10.000000 17.402826 16.783422
          10.000000 15.286594 14.904715
          10.000000 15.142125 14.411962
          10.000000 12.854387 12.166965
          10.000000 13.123538 12.129127
          10.000000 11.035703 15.666820
          10.000000 10.000741 15.086084
          10.000000 14.361652 18.310483
          10.000000 18.099201 15.820959
          10.000000 16.433664 15.566741
          10.000000 12.915179 19.074549
          10.000000 17.942316 18.740222
          10.000000 17.680300 18.196119
          10.000000 11.564282 12.450648
          10.000000 10.994521 12.007319
          10.000000 12.227994 13.848145
          10.000000 11.430082 12.753824
          10.000000 15.069105 18.941989
          10.000000 14.793174 17.550876
          10.000000 11.881543 14.126728
          10.000000 12.227722 12.942378
          10.000000 13.169811 10.347000
          10.000000 13.282606 10.549812
          10.000000 17.447500 10.639983
          10.000000 17.111544 11.223609
          10.000000 17.569125 11.986841
          10.000000 17.206133 10.850874
          10.000000 17.721141 12.813162
          10.000000 16.772815 12.408382
          10.000000 13.034694 17.948707
          10.000000 14.098476 18.807623
          10.000000 17.557841 15.589864
          10.000000 19.986996 14.639630
          10.000000 19.818110 16.336343
          10.000000 18.577700 17.328557
          10.000000 16.317076 15.358168
          10.000000 17.472075 13.871440
          10.000000 18.674992 13.313418
          10.000000 19.562039 12.953589
          10.000000 14.051183 10.800174
          10.000000 15.331655 10.011012
          10.000000 11.149947 17.432463
          10.000000 10.642932 17.452746
          10.000000 13.816714 14.498414
          10.000000 12.798112 15.238681
          10.000000 11.965159 11.092708
          10.000000 12.104892 10.923439
          10.000000 14.159382 18.901237
          10.000000 13.714260 19.831860
          10.000000 12.783390 19.481812
          10.000000 12.407814 18.990814
          10.000000 19.948328 15.716975
          10.000000 18.732855 17.002194
          10.000000 12.676077 16.175683
          10.000000 10.848720 14.747252
          10.000000 19.064540 12.088039
          10.000000 18.833185 12.200779
          10.000000 10.991344 17.988423
          10.000000 16.990395 10.413245
          10.000000 11.198936 18.248371
          10.000000 14.471248 18.399262
          10.000000 14.819680 13.507689
          10.000000 15.912817 14.050293
          10.000000 12.595717 15.414426
          10.000000 13.318411 15.826214
          10.000000 15.037980 15.921915
          10.000000 14.636143 16.092196
          10.000000 13.862992 14.688858
          10.000000 15.576766 10.033377
          10.000000 12.177442 15.698485
          10.000000 12.072981 15.340288
          10.000000 12.922067 13.778088
          10.000000 11.979647 14.360054
          10.000000 12.372777 16.172107
          10.000000 12.583813 14.568645
          10.000000 17.753205 14.686147
          10.000000 16.189940 14.041943
          10.000000 11.328804 11.605546
          10.000000 11.991338 11.810112
          10.000000 14.250724 13.672525
          10.000000 14.517765 13.169840
          10.000000 13.841686 17.618101
          10.000000 13.326620 16.219256
        </DataArray>
      </Points>
      <Lines>
        <DataArray type="Int64" Name="connectivity" format="ascii">
          0 1
          2 3
          4 5
          6 7
          8 9
          10 11
          12 13
          14 15
          16 17
          18 19
          20 21
          22 23
          24 25
          26 27
          28 29
          30 31
          32 33
          34 35
          36 37
          38 39
          40 41
          42 43
          44 45
          46 47
          48 49
          50 51
          52 53
          54 55
          56 57
          58 59
          60 61
          62 63
          64 65
          66 67
          68 69
          70 71
          72 73
          74 75
          76 77
          78 79
          80 81
          82 83
          84 85
          86 87
          88 89
          90 91
          92 93
          94 95
          96 97
          98 99
          100 101
          102 103
          104 105
          106 107
          108 109
          110 111
          112 113
          114 115
          116 117
          118 119
          120 121
          122 123
          124 125
          126 127
          128 129
          130 131
          132 133
          134 135
          136 137
          138 139
          140 141
          142 143
          144 145
          146 147
          148 149
          150 151
          152 153
          154 155
          156 157
          158 159
          160 161
        </DataArray>
        <DataArray type="Int64" Name="offsets" format="ascii">
          2
          4
          6
          8
          10
          12
          14
          16
          18
          20
          22
          24
          26
          28
          30
          32
          34
          36
          38
          40
          42
          44
          46
          48
          50
          52
          54
          56
          58
          60
          62
          64
          66
          68
          70
          72
          74
          76
          78
          80
          82
          84
          86
          88
          90
          92
          94
          96
          98
          100
          102
          104
          106
          108
          110
          112
          114
          116
          118
          120
          122
          124
          126
          128
          130
          132
          134
          136
          138
          140
          142
          144
          146
          148
          150
          152
          154
          156
          158
          160
          162
        </DataArray>
      </Lines>
      <CellData>
        <DataArray type="Int32" Name="JointSetID" format="ascii">
          1 1 1 1 1 1 1 1 1 1
          1 1 1 1 1 1 1 1 1 1
          1 1 1 1 1 1 1 1 1 1
          1 1 1 1 1 1 1 1 1 1
          1 1 1 1 1 1 1 1 1 1
          1 1 1 1 1 1 1 1 1 1
          1 1 1 1 1 1 1 1 1 1
          1 1 1 1 1 1 1 1 1 1
          1
        </DataArray>
        <DataArray type="Float64" Name="Jr" format="ascii">
          1.612725 1.277512 1.034097 1.787087 1.084433 1.976016 1.320919 1.351697 1.365556 1.027283
          1.246889 0.894187 1.456402 1.707169 1.546360 1.521102 1.732048 1.871408 1.862724 1.580338
          1.610864 1.010711 2.128486 1.581393 1.032671 1.430950 1.583029 1.589473 1.214191 1.530420
          1.924189 1.444427 1.541246 1.562365 1.172797 1.573585 1.475953 1.169297 1.420326 1.056153
          1.621466 1.166511 1.152003 1.229436 1.912917 1.808736 1.555933 1.187033 1.546425 1.990035
          0.846127 1.122525 1.519129 1.372348 1.264842 1.377691 0.993213 1.215940 1.261360 1.502291
          1.816116 1.458216 1.474114 1.771174 1.568108 1.498781 1.722932 1.609417 2.032682 1.838438
          1.426972 1.761473 1.350542 1.801747 1.921746 1.820629 1.366061 1.294110 1.223094 1.326062
          1.857330
        </DataArray>
        <DataArray type="Float64" Name="Ja" format="ascii">
          2.429123 1.979515 3.098400 2.075173 2.535059 1.305511 2.646720 2.612036 2.126219 1.881795
          2.512897 2.598141 1.381239 2.438044 3.194717 2.059049 1.805529 2.827489 2.034705 2.791769
          2.583920 2.623659 2.614009 2.010999 1.877126 1.399687 2.410990 2.803991 2.124004 1.383172
          0.750000 3.306518 2.097449 1.417773 2.249284 3.567359 2.806246 1.205386 1.751747 2.644919
          2.365291 1.286749 2.995627 1.817228 1.506656 1.828174 1.959979 1.885080 2.914249 2.861397
          1.771810 1.998458 2.872342 1.812345 1.611531 2.210915 2.407707 2.803894 1.498101 1.902586
          1.776022 2.267529 2.533211 2.370226 2.801541 2.631518 2.531090 1.242110 2.743046 2.259579
          2.619316 2.219156 1.952549 2.100676 2.874304 2.099815 2.584410 2.485319 2.145211 1.136973
          1.757633
        </DataArray>
        <DataArray type="Float64" Name="TraceLength" format="ascii">
          0.488922 0.947657 3.987515 0.877642 1.331394 0.923887 0.984340 0.887926 1.668257 0.366421
          1.076751 0.596142 1.773329 0.302365 1.450160 0.105606 1.199762 1.076136 0.568979 0.463911
          1.094420 0.110157 1.059551 0.173111 1.733203 0.829060 1.762936 0.591389 0.312498 1.084440
          0.771692 2.485688 1.099417 0.463350 1.044089 0.724219 1.216197 0.890449 0.827057 1.167030
          0.513495 0.271798 1.186760 4.490768 4.968345 0.603904 0.721920 1.354326 1.418215 1.233906
          0.232067 0.673413 1.192554 1.031100 1.367249 2.608399 1.588429 1.882653 0.957251 1.504123
          0.507420 1.259184 0.219494 1.031597 0.618172 1.768943 2.319407 0.257363 9.662917 3.275789
          1.220396 0.831779 0.436427 4.960899 0.373118 1.107628 1.617290 1.690797 0.693397 0.569213
          1.490657
        </DataArray>
      </CellData>
    </Piece>
  </PolyData>
</VTKFile>
