<?xml version="1.0"?>
<VTKFile type="PolyData" version="1.0">
  <PolyData>
    <Piece NumberOfPoints="148" NumberOfLines="74" NumberOfPolys="0">
      <Points>
        <DataArray type="Float64" NumberOfComponents="3" format="ascii">
          20.000000 18.524113 13.798495
          20.000000 17.395044 13.773540
          20.000000 15.430934 14.607221
          20.000000 14.552979 14.932856
          20.000000 12.666082 13.744242
          20.000000 13.616950 13.248597
          20.000000 15.913743 15.622529
          20.000000 15.329302 15.745487
          20.000000 17.404019 15.510899
          20.000000 17.571524 16.909308
          20.000000 12.659458 17.804735
          20.000000 15.085116 19.842012
          20.000000 15.307398 10.615196
          20.000000 15.096487 10.488516
          20.000000 12.444823 15.314693
          20.000000 12.113879 16.289181
          20.000000 16.964164 17.304015
          20.000000 18.158049 16.684296
          20.000000 15.495762 16.683598
          20.000000 15.017087 16.105389
          20.000000 14.618447 17.964838
          20.000000 15.623354 16.700892
          20.000000 12.602117 11.664013
          20.000000 11.796489 12.293496
          20.000000 12.832115 14.998323
          20.000000 14.207583 16.514286
          20.000000 11.459801 18.484747
          20.000000 13.759961 17.421708
          20.000000 11.200675 14.041274
          20.000000 11.842862 13.284229
          20.000000 15.225450 14.286102
          20.000000 16.104002 15.121104
          20.000000 19.677781 16.765890
          20.000000 19.361266 16.623052
          20.000000 16.199263 13.682225
          20.000000 17.215966 14.461608
          20.000000 11.390649 13.750683
          20.000000 10.731411 13.617453
          20.000000 14.986344 15.284650
          20.000000 14.285192 14.694984
          20.000000 16.969711 18.309280
          20.000000 16.007089 17.747513
          20.000000 11.238725 13.502824
          20.000000 10.131549 13.860623
          20.000000 14.017705 18.826207
          20.000000 13.286799 17.850583
          20.000000 14.371281 10.039686
          20.000000 14.494111 10.436450
          20.000000 15.258221 15.832279
          20.000000 18.917837 16.177943
          20.000000 18.390154 14.031589
          20.000000 18.454126 14.976105
          20.000000 10.933367 14.329515
          20.000000 11.387187 14.479051
          20.000000 16.960592 12.060901
          20.000000 16.778439 10.918028
          20.000000 11.148277 16.222972
          20.000000 10.671144 16.187750
          20.000000 17.607514 17.138637
          20.000000 17.040311 18.525450
          20.000000 13.962263 18.698577
          20.000000 13.763296 17.750834
          20.000000 19.904913 15.970479
          20.000000 19.040493 15.189445
          20.000000 19.967521 14.431020
          20.000000 19.732714 13.942905
          20.000000 14.070533 10.319832
          20.000000 14.106999 10.080391
          20.000000 16.537054 19.489451
          20.000000 17.240680 18.621275
          20.000000 14.364735 18.695692
          20.000000 13.963531 19.235144
          20.000000 13.743903 14.290093
          20.000000 12.771897 15.978060
          20.000000 13.438081 19.749780
          20.000000 13.709641 19.814541
          20.000000 19.055085 12.448168
          20.000000 18.332833 11.631313
          20.000000 16.961827 10.767722
          20.000000 16.671194 10.432940
          20.000000 11.263137 17.004744
          20.000000 10.838187 17.771158
          20.000000 19.183384 14.099899
          20.000000 19.492229 13.165661
          20.000000 16.841169 18.988865
          20.000000 16.930756 18.280054
          20.000000 18.971695 16.920900
          20.000000 18.562953 16.193300
          20.000000 13.638999 10.188797
          20.000000 14.804708 15.013648
          20.000000 11.527767 15.056150
          20.000000 12.693592 16.462142
          20.000000 13.331220 19.434523
          20.000000 13.453470 19.754813
          20.000000 10.025364 15.502988
          20.000000 10.493325 16.179821
          20.000000 17.042994 14.745678
          20.000000 16.550975 15.532449
          20.000000 13.226896 17.774948
          20.000000 13.796149 16.861670
          20.000000 15.737057 10.054624
          20.000000 16.118194 10.421568
          20.000000 10.723834 17.580623
          20.000000 12.277368 17.434463
          20.000000 12.369182 10.748083
          20.000000 13.105993 11.119549
          20.000000 19.962436 14.388256
          20.000000 19.433168 13.973450
          20.000000 12.782228 18.132858
          20.000000 13.574389 18.596291
          20.000000 16.517665 19.687168
          20.000000 15.616836 19.557774
          20.000000 14.768338 19.259858
          20.000000 15.053700 18.457573
          20.000000 10.468386 17.112931
          20.000000 11.024483 16.435485
          20.000000 14.942988 19.214129
          20.000000 17.669326 19.227848
          20.000000 16.639554 19.723543
          20.000000 16.779383 19.383762
          20.000000 13.660246 18.140396
          20.000000 13.812648 17.267494
          20.000000 11.993877 13.766667
          20.000000 12.373850 12.806546
          20.000000 17.567308 10.709437
          20.000000 17.745937 11.264799
          20.000000 18.492762 15.656149
          20.000000 19.622919 15.240684
          20.000000 17.786703 14.614087
          20.000000 17.285215 13.827040
          20.000000 16.566696 12.446928
          20.000000 16.631834 11.014664
          20.000000 10.560467 16.724511
          20.000000 11.284909 17.429764
          20.000000 11.988634 15.720530
          20.000000 11.853591 14.465742
          20.000000 14.381539 10.552581
          20.000000 15.421408 10.017790
          20.000000 16.305264 10.733191
          20.000000 14.184981 11.436540
          20.000000 18.229527 14.936052
          20.000000 17.700666 16.533388
          20.000000 13.674487 11.428410
          20.000000 12.732133 11.341325
          20.000000 10.222975 15.619251
          20.000000 10.038385 15.618365
          20.000000 12.369306 18.765069
          20.000000 13.695363 19.322907
        </DataArray>
      </Points>
      <Lines>
        <DataArray type="Int64" Name="connectivity" format="ascii">
          0 1
          2 3
          4 5
          6 7
          8 9
          10 11
          12 13
          14 15
          16 17
          18 19
          20 21
          22 23
          24 25
          26 27
          28 29
          30 31
          32 33
          34 35
          36 37
          38 39
          40 41
          42 43
          44 45
          46 47
          48 49
          50 51
          52 53
          54 55
          56 57
          58 59
          60 61
          62 63
          64 65
          66 67
          68 69
          70 71
          72 73
          74 75
          76 77
          78 79
          80 81
          82 83
          84 85
          86 87
          88 89
          90 91
          92 93
          94 95
          96 97
          98 99
          100 101
          102 103
          104 105
          106 107
          108 109
          110 111
          112 113
          114 115
          116 117
          118 119
          120 121
          122 123
          124 125
          126 127
          128 129
          130 131
          132 133
          134 135
          136 137
          138 139
          140 141
          142 143
          144 145
          146 147
        </DataArray>
        <DataArray type="Int64" Name="offsets" format="ascii">
          2
          4
          6
          8
          10
          12
          14
          16
          18
          20
          22
          24
          26
          28
          30
          32
          34
          36
          38
          40
          42
          44
          46
          48
          50
          52
          54
          56
          58
          60
          62
          64
          66
          68
          70
          72
          74
          76
          78
          80
          82
          84
          86
          88
          90
          92
          94
          96
          98
          100
          102
          104
          106
          108
          110
          112
          114
          116
          118
          120
          122
          124
          126
          128
          130
          132
          134
          136
          138
          140
          142
          144
          146
          148
        </DataArray>
      </Lines>
      <CellData>
        <DataArray type="Int32" Name="JointSetID" format="ascii">
          1 1 1 1 1 1 1 1 1 1
          1 1 1 1 1 1 1 1 1 1
          1 1 1 1 1 1 1 1 1 1
          1 1 1 1 1 1 1 1 1 1
          1 1 1 1 1 1 1 1 1 1
          1 1 1 1 1 1 1 1 1 1
          1 1 1 1 1 1 1 1 1 1
          1 1 1 1
        </DataArray>
        <DataArray type="Float64" Name="Jr" format="ascii">
          1.880912 1.589658 1.521823 2.012558 1.527245 1.921877 2.136339 1.584729 1.698568 1.456615
          1.931530 1.721729 1.087544 1.409663 1.838652 1.226927 1.842138 1.443618 1.248679 1.603575
          1.264225 1.413010 1.866404 1.742248 1.599439 1.604086 1.976552 1.705918 1.124802 1.122088
          1.993574 1.438997 1.508496 1.237845 1.277169 1.560132 1.705734 1.177426 2.149909 1.488553
          0.827882 1.869382 1.597417 1.547985 1.587316 1.639766 1.800058 1.813916 1.851287 2.063829
          1.874972 1.335149 1.702304 1.526543 2.178796 1.717679 1.694223 1.873867 1.333499 1.903268
          1.824517 1.268340 1.616033 1.445612 1.305591 1.046684 1.502628 1.760517 1.896960 1.267949
          1.257811 1.297596 1.326296 1.135321
        </DataArray>
        <DataArray type="Float64" Name="Ja" format="ascii">
          2.109605 0.750000 1.399767 2.533342 1.859749 1.508767 2.167928 2.278963 1.097779 1.876400
          2.948376 1.295128 2.540633 1.008357 1.547281 2.043246 2.985328 2.060528 2.127385 1.982118
          1.802614 2.651691 2.859970 1.756033 1.585695 1.648325 2.168445 2.475017 2.687567 2.477674
          1.497145 2.185004 1.869922 2.365538 1.948930 3.251974 1.893588 2.530141 3.324630 1.918398
          2.658178 3.149254 1.179882 2.372005 2.563536 1.467794 1.243108 1.920486 2.427380 2.716510
          1.301009 1.463387 2.442461 1.528112 1.770369 1.787329 2.342473 2.885458 2.512469 2.211855
          1.419166 1.828729 2.116353 2.663062 2.831332 1.810009 2.406210 1.960518 2.121901 2.833319
          1.888336 1.534632 1.343104 2.957962
        </DataArray>
        <DataArray type="Float64" Name="TraceLength" format="ascii">
          1.129344 0.936399 1.072293 0.597235 1.408405 3.167698 0.246031 1.029150 1.345143 0.750636
          1.614744 1.022392 2.046962 2.533928 0.992735 1.212058 0.347252 1.281063 0.672566 0.916144
          1.114551 1.163555 1.219043 0.415342 3.675904 0.946680 0.477822 1.157297 0.478431 1.498323
          0.968403 1.165004 0.541656 0.242201 1.117506 0.672289 1.947827 0.279175 1.090367 0.443336
          0.876340 0.983965 0.714450 0.834548 4.963675 1.826462 0.342827 0.822855 0.927950 1.076163
          0.529069 1.560394 0.825153 0.672450 0.917764 0.910074 0.851524 0.876457 2.726373 0.367428
          0.886105 1.032575 0.583382 1.204103 0.933238 1.433745 1.011039 1.262034 1.169329 2.233898
          1.682609 0.946370 0.184592 1.438614
        </DataArray>
      </CellData>
    </Piece>
  </PolyData>
</VTKFile>
