  0
SECTION
  2
HEADER
  9
$ACADVER
  1
AC1027
  9
$ACADMAINTVER
 70
105
  9
$DWGCODEPAGE
  3
ANSI_1252
  9
$LASTSAVEDBY
  1
ezdxf
  9
$REQUIREDVERSIONS
160
0
  9
$INSBASE
 10
0.0
 20
0.0
 30
0.0
  9
$EXTMIN
 10
1e+20
 20
1e+20
 30
1e+20
  9
$EXTMAX
 10
-1e+20
 20
-1e+20
 30
-1e+20
  9
$LIMMIN
 10
0.0
 20
0.0
  9
$LIMMAX
 10
420.0
 20
297.0
  9
$ORTHOMODE
 70
0
  9
$REGENMODE
 70
1
  9
$FILLMODE
 70
1
  9
$QTEXTMODE
 70
0
  9
$MIRRTEXT
 70
1
  9
$LTSCALE
 40
1.0
  9
$ATTMODE
 70
1
  9
$TEXTSIZE
 40
2.5
  9
$TRACEWID
 40
1.0
  9
$TEXTSTYLE
  7
Standard
  9
$CLAYER
  8
0
  9
$CELTYPE
  6
ByLayer
  9
$CECOLOR
 62
256
  9
$CELTSCALE
 40
1.0
  9
$DISPSILH
 70
0
  9
$DIMSCALE
 40
1.0
  9
$DIMASZ
 40
2.5
  9
$DIMEXO
 40
0.625
  9
$DIMDLI
 40
3.75
  9
$DIMRND
 40
0.0
  9
$DIMDLE
 40
0.0
  9
$DIMEXE
 40
1.25
  9
$DIMTP
 40
0.0
  9
$DIMTM
 40
0.0
  9
$DIMTXT
 40
2.5
  9
$DIMCEN
 40
2.5
  9
$DIMTSZ
 40
0.0
  9
$DIMTOL
 70
0
  9
$DIMLIM
 70
0
  9
$DIMTIH
 70
0
  9
$DIMTOH
 70
0
  9
$DIMSE1
 70
0
  9
$DIMSE2
 70
0
  9
$DIMTAD
 70
1
  9
$DIMZIN
 70
8
  9
$DIMBLK
  1

  9
$DIMASO
 70
1
  9
$DIMSHO
 70
1
  9
$DIMPOST
  1

  9
$DIMAPOST
  1

  9
$DIMALT
 70
0
  9
$DIMALTD
 70
3
  9
$DIMALTF
 40
0.03937007874
  9
$DIMLFAC
 40
1.0
  9
$DIMTOFL
 70
1
  9
$DIMTVP
 40
0.0
  9
$DIMTIX
 70
0
  9
$DIMSOXD
 70
0
  9
$DIMSAH
 70
0
  9
$DIMBLK1
  1

  9
$DIMBLK2
  1

  9
$DIMSTYLE
  2
ISO-25
  9
$DIMCLRD
 70
0
  9
$DIMCLRE
 70
0
  9
$DIMCLRT
 70
0
  9
$DIMTFAC
 40
1.0
  9
$DIMGAP
 40
0.625
  9
$DIMJUST
 70
0
  9
$DIMSD1
 70
0
  9
$DIMSD2
 70
0
  9
$DIMTOLJ
 70
0
  9
$DIMTZIN
 70
8
  9
$DIMALTZ
 70
0
  9
$DIMALTTZ
 70
0
  9
$DIMUPT
 70
0
  9
$DIMDEC
 70
2
  9
$DIMTDEC
 70
2
  9
$DIMALTU
 70
2
  9
$DIMALTTD
 70
3
  9
$DIMTXSTY
  7
Standard
  9
$DIMAUNIT
 70
0
  9
$DIMADEC
 70
0
  9
$DIMALTRND
 40
0.0
  9
$DIMAZIN
 70
0
  9
$DIMDSEP
 70
44
  9
$DIMATFIT
 70
3
  9
$DIMFRAC
 70
0
  9
$DIMLDRBLK
  1

  9
$DIMLUNIT
 70
2
  9
$DIMLWD
 70
-2
  9
$DIMLWE
 70
-2
  9
$DIMTMOVE
 70
0
  9
$DIMFXL
 40
1.0
  9
$DIMFXLON
 70
0
  9
$DIMJOGANG
 40
0.785398163397
  9
$DIMTFILL
 70
0
  9
$DIMTFILLCLR
 70
0
  9
$DIMARCSYM
 70
0
  9
$DIMLTYPE
  6

  9
$DIMLTEX1
  6

  9
$DIMLTEX2
  6

  9
$DIMTXTDIRECTION
 70
0
  9
$LUNITS
 70
2
  9
$LUPREC
 70
4
  9
$SKETCHINC
 40
1.0
  9
$FILLETRAD
 40
10.0
  9
$AUNITS
 70
0
  9
$AUPREC
 70
2
  9
$MENU
  1
.
  9
$ELEVATION
 40
0.0
  9
$PELEVATION
 40
0.0
  9
$THICKNESS
 40
0.0
  9
$LIMCHECK
 70
0
  9
$CHAMFERA
 40
0.0
  9
$CHAMFERB
 40
0.0
  9
$CHAMFERC
 40
0.0
  9
$CHAMFERD
 40
0.0
  9
$SKPOLY
 70
0
  9
$TDCREATE
 40
2461218.000185185
  9
$TDUCREATE
 40
2458532.153996898
  9
$TDUPDATE
 40
2461218.000185185
  9
$TDUUPDATE
 40
2458532.1544311
  9
$TDINDWG
 40
0.0
  9
$TDUSRTIMER
 40
0.0
  9
$USRTIMER
 70
1
  9
$ANGBASE
 50
0.0
  9
$ANGDIR
 70
0
  9
$PDMODE
 70
0
  9
$PDSIZE
 40
0.0
  9
$PLINEWID
 40
0.0
  9
$SPLFRAME
 70
0
  9
$SPLINETYPE
 70
6
  9
$SPLINESEGS
 70
8
  9
$HANDSEED
  5
83
  9
$SURFTAB1
 70
6
  9
$SURFTAB2
 70
6
  9
$SURFTYPE
 70
6
  9
$SURFU
 70
6
  9
$SURFV
 70
6
  9
$UCSBASE
  2

  9
$UCSNAME
  2

  9
$UCSORG
 10
0.0
 20
0.0
 30
0.0
  9
$UCSXDIR
 10
1.0
 20
0.0
 30
0.0
  9
$UCSYDIR
 10
0.0
 20
1.0
 30
0.0
  9
$UCSORTHOREF
  2

  9
$UCSORTHOVIEW
 70
0
  9
$UCSORGTOP
 10
0.0
 20
0.0
 30
0.0
  9
$UCSORGBOTTOM
 10
0.0
 20
0.0
 30
0.0
  9
$UCSORGLEFT
 10
0.0
 20
0.0
 30
0.0
  9
$UCSORGRIGHT
 10
0.0
 20
0.0
 30
0.0
  9
$UCSORGFRONT
 10
0.0
 20
0.0
 30
0.0
  9
$UCSORGBACK
 10
0.0
 20
0.0
 30
0.0
  9
$PUCSBASE
  2

  9
$PUCSNAME
  2

  9
$PUCSORG
 10
0.0
 20
0.0
 30
0.0
  9
$PUCSXDIR
 10
1.0
 20
0.0
 30
0.0
  9
$PUCSYDIR
 10
0.0
 20
1.0
 30
0.0
  9
$PUCSORTHOREF
  2

  9
$PUCSORTHOVIEW
 70
0
  9
$PUCSORGTOP
 10
0.0
 20
0.0
 30
0.0
  9
$PUCSORGBOTTOM
 10
0.0
 20
0.0
 30
0.0
  9
$PUCSORGLEFT
 10
0.0
 20
0.0
 30
0.0
  9
$PUCSORGRIGHT
 10
0.0
 20
0.0
 30
0.0
  9
$PUCSORGFRONT
 10
0.0
 20
0.0
 30
0.0
  9
$PUCSORGBACK
 10
0.0
 20
0.0
 30
0.0
  9
$USERI1
 70
0
  9
$USERI2
 70
0
  9
$USERI3
 70
0
  9
$USERI4
 70
0
  9
$USERI5
 70
0
  9
$USERR1
 40
0.0
  9
$USERR2
 40
0.0
  9
$USERR3
 40
0.0
  9
$USERR4
 40
0.0
  9
$USERR5
 40
0.0
  9
$WORLDVIEW
 70
1
  9
$SHADEDGE
 70
3
  9
$SHADEDIF
 70
70
  9
$TILEMODE
 70
1
  9
$MAXACTVP
 70
64
  9
$PINSBASE
 10
0.0
 20
0.0
 30
0.0
  9
$PLIMCHECK
 70
0
  9
$PEXTMIN
 10
1e+20
 20
1e+20
 30
1e+20
  9
$PEXTMAX
 10
-1e+20
 20
-1e+20
 30
-1e+20
  9
$PLIMMIN
 10
0.0
 20
0.0
  9
$PLIMMAX
 10
420.0
 20
297.0
  9
$UNITMODE
 70
0
  9
$VISRETAIN
 70
1
  9
$PLINEGEN
 70
0
  9
$PSLTSCALE
 70
1
  9
$TREEDEPTH
 70
3020
  9
$CMLSTYLE
  2
Standard
  9
$CMLJUST
 70
0
  9
$CMLSCALE
 40
20.0
  9
$PROXYGRAPHICS
 70
1
  9
$MEASUREMENT
 70
1
  9
$CELWEIGHT
370
-1
  9
$ENDCAPS
280
0
  9
$JOINSTYLE
280
0
  9
$LWDISPLAY
290
0
  9
$INSUNITS
 70
4
  9
$HYPERLINKBASE
  1

  9
$STYLESHEET
  1

  9
$XEDIT
290
1
  9
$CEPSNTYPE
380
0
  9
$PSTYLEMODE
290
1
  9
$FINGERPRINTGUID
  2
{5BF2A166-F1A4-4043-B33D-7A071FBDB939}
  9
$VERSIONGUID
  2
{862F576C-20D5-4F6E-9F0C-E723819CF9AB}
  9
$EXTNAMES
290
1
  9
$PSVPSCALE
 40
0.0
  9
$OLESTARTUP
290
0
  9
$SORTENTS
280
127
  9
$INDEXCTL
280
0
  9
$HIDETEXT
280
1
  9
$XCLIPFRAME
280
1
  9
$HALOGAP
280
0
  9
$OBSCOLOR
 70
257
  9
$OBSLTYPE
280
0
  9
$INTERSECTIONDISPLAY
280
0
  9
$INTERSECTIONCOLOR
 70
257
  9
$DIMASSOC
280
2
  9
$PROJECTNAME
  1

  9
$CAMERADISPLAY
290
0
  9
$LENSLENGTH
 40
50.0
  9
$CAMERAHEIGHT
 40
0.0
  9
$STEPSPERSEC
 40
24.0
  9
$STEPSIZE
 40
100.0
  9
$3DDWFPREC
 40
2.0
  9
$PSOLWIDTH
 40
0.005
  9
$PSOLHEIGHT
 40
0.08
  9
$LOFTANG1
 40
1.570796326795
  9
$LOFTANG2
 40
1.570796326795
  9
$LOFTMAG1
 40
0.0
  9
$LOFTMAG2
 40
0.0
  9
$LOFTPARAM
 70
7
  9
$LOFTNORMALS
280
1
  9
$LATITUDE
 40
37.795
  9
$LONGITUDE
 40
-122.394
  9
$NORTHDIRECTION
 40
0.0
  9
$TIMEZONE
 70
-8000
  9
$LIGHTGLYPHDISPLAY
280
1
  9
$TILEMODELIGHTSYNCH
280
1
  9
$CMATERIAL
347
20
  9
$SOLIDHIST
280
0
  9
$SHOWHIST
280
1
  9
$DWFFRAME
280
2
  9
$DGNFRAME
280
2
  9
$REALWORLDSCALE
290
1
  9
$INTERFERECOLOR
 62
256
  9
$CSHADOW
280
0
  9
$SHADOWPLANELOCATION
 40
0.0
  0
ENDSEC
  0
SECTION
  2
CLASSES
  0
CLASS
  1
ACDBDICTIONARYWDFLT
  2
AcDbDictionaryWithDefault
  3
ObjectDBX Classes
 90
0
 91
0
280
0
281
0
  0
CLASS
  1
SUN
  2
AcDbSun
  3
SCENEOE
 90
1153
 91
0
280
0
281
0
  0
CLASS
  1
VISUALSTYLE
  2
AcDbVisualStyle
  3
ObjectDBX Classes
 90
4095
 91
0
280
0
281
0
  0
CLASS
  1
MATERIAL
  2
AcDbMaterial
  3
ObjectDBX Classes
 90
1153
 91
0
280
0
281
0
  0
CLASS
  1
SCALE
  2
AcDbScale
  3
ObjectDBX Classes
 90
1153
 91
0
280
0
281
0
  0
CLASS
  1
TABLESTYLE
  2
AcDbTableStyle
  3
ObjectDBX Classes
 90
4095
 91
0
280
0
281
0
  0
CLASS
  1
MLEADERSTYLE
  2
AcDbMLeaderStyle
  3
ACDB_MLEADERSTYLE_CLASS
 90
4095
 91
0
280
0
281
0
  0
CLASS
  1
DICTIONARYVAR
  2
AcDbDictionaryVar
  3
ObjectDBX Classes
 90
0
 91
0
280
0
281
0
  0
CLASS
  1
CELLSTYLEMAP
  2
AcDbCellStyleMap
  3
ObjectDBX Classes
 90
1152
 91
0
280
0
281
0
  0
CLASS
  1
MENTALRAYRENDERSETTINGS
  2
AcDbMentalRayRenderSettings
  3
SCENEOE
 90
1024
 91
0
280
0
281
0
  0
CLASS
  1
ACDBDETAILVIEWSTYLE
  2
AcDbDetailViewStyle
  3
ObjectDBX Classes
 90
1025
 91
0
280
0
281
0
  0
CLASS
  1
ACDBSECTIONVIEWSTYLE
  2
AcDbSectionViewStyle
  3
ObjectDBX Classes
 90
1025
 91
0
280
0
281
0
  0
CLASS
  1
RASTERVARIABLES
  2
AcDbRasterVariables
  3
ISM
 90
0
 91
0
280
0
281
0
  0
CLASS
  1
LAYOUT
  2
AcDbLayout
  3
ObjectDBX Classes
 90
0
 91
0
280
0
281
0
  0
CLASS
  1
ACDBPLACEHOLDER
  2
AcDbPlaceHolder
  3
ObjectDBX Classes
 90
0
 91
0
280
0
281
0
  0
ENDSEC
  0
SECTION
  2
TABLES
  0
TABLE
  2
VPORT
  5
8
330
0
100
AcDbSymbolTable
 70
1
  0
VPORT
  5
7F
330
8
100
AcDbSymbolTableRecord
100
AcDbViewportTableRecord
  2
*Active
 70
0
 10
0.0
 20
0.0
 11
1.0
 21
1.0
 12
40.0
 22
15.00451921057487
 13
0.0
 23
0.0
 14
0.5
 24
0.5
 15
0.5
 25
0.5
 16
0.0
 26
0.0
 36
1.0
 17
0.0
 27
0.0
 37
0.0
 40
9.99046612700242
 41
1.34
 42
50.0
 43
0.0
 44
0.0
 50
0.0
 51
0.0
 71
0
 72
1000
 73
1
 74
3
 75
0
 76
0
 77
0
 78
0
281
0
 65
1
110
0.0
120
0.0
130
0.0
111
1.0
121
0.0
131
0.0
112
0.0
122
1.0
132
0.0
 79
0
146
0.0
  0
ENDTAB
  0
TABLE
  2
LTYPE
  5
2
330
0
100
AcDbSymbolTable
 70
3
  0
LTYPE
  5
24
330
2
100
AcDbSymbolTableRecord
100
AcDbLinetypeTableRecord
  2
ByBlock
 70
0
  3

 72
65
 73
0
 40
0.0
  0
LTYPE
  5
25
330
2
100
AcDbSymbolTableRecord
100
AcDbLinetypeTableRecord
  2
ByLayer
 70
0
  3

 72
65
 73
0
 40
0.0
  0
LTYPE
  5
26
330
2
100
AcDbSymbolTableRecord
100
AcDbLinetypeTableRecord
  2
Continuous
 70
0
  3

 72
65
 73
0
 40
0.0
  0
ENDTAB
  0
TABLE
  2
LAYER
  5
1
330
0
100
AcDbSymbolTable
 70
2
  0
LAYER
  5
27
330
1
100
AcDbSymbolTableRecord
100
AcDbLayerTableRecord
  2
0
 70
0
 62
7
  6
Continuous
370
-3
390
13
347
21
  0
LAYER
  5
28
330
1
100
AcDbSymbolTableRecord
100
AcDbLayerTableRecord
  2
Defpoints
 70
0
 62
7
  6
Continuous
290
0
370
-3
390
13
347
21
  0
ENDTAB
  0
TABLE
  2
STYLE
  5
5
330
0
100
AcDbSymbolTable
 70
1
  0
STYLE
  5
29
330
5
100
AcDbSymbolTableRecord
100
AcDbTextStyleTableRecord
  2
Standard
 70
0
 40
0.0
 41
1.0
 50
0.0
 71
0
 42
2.5
  3
txt
  4

  0
ENDTAB
  0
TABLE
  2
VIEW
  5
7
330
0
100
AcDbSymbolTable
 70
0
  0
ENDTAB
  0
TABLE
  2
UCS
  5
6
330
0
100
AcDbSymbolTable
 70
0
  0
ENDTAB
  0
TABLE
  2
APPID
  5
3
330
0
100
AcDbSymbolTable
 70
3
  0
APPID
  5
2A
330
3
100
AcDbSymbolTableRecord
100
AcDbRegAppTableRecord
  2
ACAD
 70
0
  0
APPID
  5
80
330
3
100
AcDbSymbolTableRecord
100
AcDbRegAppTableRecord
  2
HATCHBACKGROUNDCOLOR
 70
0
  0
APPID
  5
81
330
3
100
AcDbSymbolTableRecord
100
AcDbRegAppTableRecord
  2
EZDXF
 70
0
  0
ENDTAB
  0
TABLE
  2
DIMSTYLE
  5
4
330
0
100
AcDbSymbolTable
 70
1
100
AcDbDimStyleTable
  0
DIMSTYLE
105
2B
330
4
100
AcDbSymbolTableRecord
100
AcDbDimStyleTableRecord
  2
Standard
 70
0
 40
1.0
 41
2.5
 42
0.625
 43
3.75
 44
1.25
 45
0.0
 46
0.0
 47
0.0
 48
0.0
 49
2.5
140
2.5
141
2.5
142
0.0
143
0.03937007874
144
1.0
145
0.0
146
1.0
147
0.625
148
0.0
 69
0
 70
0
 71
0
 72
0
 73
0
 74
0
 75
0
 76
0
 77
1
 78
8
 79
3
170
0
171
3
172
1
173
0
174
0
175
0
176
0
177
0
178
0
179
2
271
2
272
2
273
2
274
3
275
0
276
0
277
2
278
44
279
0
280
0
281
0
282
0
283
0
284
8
285
0
286
0
288
0
289
3
290
0
371
-2
372
-2
  0
ENDTAB
  0
TABLE
  2
BLOCK_RECORD
  5
9
330
0
100
AcDbSymbolTable
 70
2
  0
BLOCK_RECORD
  5
17
330
9
100
AcDbSymbolTableRecord
100
AcDbBlockTableRecord
  2
*Model_Space
340
1A
 70
0
280
1
281
0
  0
BLOCK_RECORD
  5
1B
330
9
100
AcDbSymbolTableRecord
100
AcDbBlockTableRecord
  2
*Paper_Space
340
1E
 70
0
280
1
281
0
  0
ENDTAB
  0
ENDSEC
  0
SECTION
  2
BLOCKS
  0
BLOCK
  5
18
330
17
100
AcDbEntity
  8
0
100
AcDbBlockBegin
  2
*Model_Space
 70
0
 10
0.0
 20
0.0
 30
0.0
  3
*Model_Space
  1

  0
ENDBLK
  5
19
330
17
100
AcDbEntity
  8
0
100
AcDbBlockEnd
  0
BLOCK
  5
1C
330
1B
100
AcDbEntity
  8
0
100
AcDbBlockBegin
  2
*Paper_Space
 70
0
 10
0.0
 20
0.0
 30
0.0
  3
*Paper_Space
  1

  0
ENDBLK
  5
1D
330
1B
100
AcDbEntity
  8
0
100
AcDbBlockEnd
  0
ENDSEC
  0
SECTION
  2
ENTITIES
  0
LINE
  5
2F
330
17
100
AcDbEntity
  8
0
100
AcDbLine
 10
40.0
 20
11.13194865563371
 30
11.951971394872368
 11
40.0
 21
10.580947704329983
 31
12.66077431440796
  0
LINE
  5
30
330
17
100
AcDbEntity
  8
0
100
AcDbLine
 10
40.0
 20
10.503774995098196
 30
12.812773284431684
 11
40.0
 21
10.703065863210925
 31
13.051185096007117
  0
LINE
  5
31
330
17
100
AcDbEntity
  8
0
100
AcDbLine
 10
40.0
 20
13.354117270077012
 30
14.943507348977688
 11
40.0
 21
13.37334042418045
 31
17.231031380372087
  0
LINE
  5
32
330
17
100
AcDbEntity
  8
0
100
AcDbLine
 10
40.0
 20
10.980678470889544
 30
12.025936374986376
 11
40.0
 21
11.931384257096045
 31
12.419847190217698
  0
LINE
  5
33
330
17
100
AcDbEntity
  8
0
100
AcDbLine
 10
40.0
 20
13.312491056739704
 30
18.665722093994788
 11
40.0
 21
14.37914360555906
 31
17.17272092805453
  0
LINE
  5
34
330
17
100
AcDbEntity
  8
0
100
AcDbLine
 10
40.0
 20
14.016572352975706
 30
17.435838853210555
 11
40.0
 21
13.631637191394677
 31
17.112096333966207
  0
LINE
  5
35
330
17
100
AcDbEntity
  8
0
100
AcDbLine
 10
40.0
 20
19.99916632903909
 30
14.908698222351292
 11
40.0
 21
19.238853494331302
 31
14.679774120315738
  0
LINE
  5
36
330
17
100
AcDbEntity
  8
0
100
AcDbLine
 10
40.0
 20
16.81837945671906
 30
17.0082587676384
 11
40.0
 21
17.988404405240168
 31
16.739198689695844
  0
LINE
  5
37
330
17
100
AcDbEntity
  8
0
100
AcDbLine
 10
40.0
 20
15.68870918873488
 30
14.304707653320325
 11
40.0
 21
14.520953796891526
 31
12.836186019052686
  0
LINE
  5
38
330
17
100
AcDbEntity
  8
0
100
AcDbLine
 10
40.0
 20
19.500350720724427
 30
14.405460698604893
 11
40.0
 21
19.99555825792341
 31
14.789292402383673
  0
LINE
  5
39
330
17
100
AcDbEntity
  8
0
100
AcDbLine
 10
40.0
 20
15.972045617667678
 30
18.604076715311113
 11
40.0
 21
15.40998548802212
 31
17.740956598928676
  0
LINE
  5
3A
330
17
100
AcDbEntity
  8
0
100
AcDbLine
 10
40.0
 20
13.58974775292441
 30
10.872174571521299
 11
40.0
 21
13.327342777181926
 31
10.288077057617077
  0
LINE
  5
3B
330
17
100
AcDbEntity
  8
0
100
AcDbLine
 10
40.0
 20
14.22850074586229
 30
16.245597721454484
 11
40.0
 21
13.655249735691761
 31
17.334742131534455
  0
LINE
  5
3C
330
17
100
AcDbEntity
  8
0
100
AcDbLine
 10
40.0
 20
17.95108761187066
 30
14.693197613889401
 11
40.0
 21
19.952881663407705
 31
15.684808899095014
  0
LINE
  5
3D
330
17
100
AcDbEntity
  8
0
100
AcDbLine
 10
40.0
 20
14.799985921944632
 30
11.156881053335603
 11
40.0
 21
15.019313990974128
 31
12.385392699073806
  0
LINE
  5
3E
330
17
100
AcDbEntity
  8
0
100
AcDbLine
 10
40.0
 20
16.254092014160083
 30
10.738526858318856
 11
40.0
 21
16.66142933566091
 31
10.284106387692217
  0
LINE
  5
3F
330
17
100
AcDbEntity
  8
0
100
AcDbLine
 10
40.0
 20
15.512449288279823
 30
11.885050447286073
 11
40.0
 21
15.005728101835976
 31
10.349675793444527
  0
LINE
  5
40
330
17
100
AcDbEntity
  8
0
100
AcDbLine
 10
40.0
 20
17.553596350234738
 30
12.684840330041986
 11
40.0
 21
16.480460579488774
 31
12.247728189313204
  0
LINE
  5
41
330
17
100
AcDbEntity
  8
0
100
AcDbLine
 10
40.0
 20
16.17018824050103
 30
15.885341044591401
 11
40.0
 21
15.00878183426898
 31
15.670186222225347
  0
LINE
  5
42
330
17
100
AcDbEntity
  8
0
100
AcDbLine
 10
40.0
 20
15.251059626227148
 30
10.346685082468982
 11
40.0
 21
15.226407982952631
 31
10.005128687818342
  0
LINE
  5
43
330
17
100
AcDbEntity
  8
0
100
AcDbLine
 10
40.0
 20
18.03077886814345
 30
14.694566753833508
 11
40.0
 21
17.85420833445012
 31
13.98708629067426
  0
LINE
  5
44
330
17
100
AcDbEntity
  8
0
100
AcDbLine
 10
40.0
 20
12.280377685786402
 30
11.571768137432095
 11
40.0
 21
11.613659847133663
 31
11.321318120700676
  0
LINE
  5
45
330
17
100
AcDbEntity
  8
0
100
AcDbLine
 10
40.0
 20
10.539361923044442
 30
14.356353318114877
 11
40.0
 21
10.06701073347481
 31
14.184146522746115
  0
LINE
  5
46
330
17
100
AcDbEntity
  8
0
100
AcDbLine
 10
40.0
 20
19.416993445902147
 30
17.343110944632688
 11
40.0
 21
19.246267067309038
 31
16.594891627370043
  0
LINE
  5
47
330
17
100
AcDbEntity
  8
0
100
AcDbLine
 10
40.0
 20
16.688267611623303
 30
14.197055795125529
 11
40.0
 21
16.154641210773956
 31
15.070633048399499
  0
LINE
  5
48
330
17
100
AcDbEntity
  8
0
100
AcDbLine
 10
40.0
 20
19.73480044621595
 30
16.552133374302283
 11
40.0
 21
19.777680990290477
 31
16.420719909035792
  0
LINE
  5
49
330
17
100
AcDbEntity
  8
0
100
AcDbLine
 10
40.0
 20
10.87927363210856
 30
12.16810766430568
 11
40.0
 21
11.752172642031741
 31
11.79319829082757
  0
LINE
  5
4A
330
17
100
AcDbEntity
  8
0
100
AcDbLine
 10
40.0
 20
14.829106509175105
 30
11.061243078479745
 11
40.0
 21
14.041089208473348
 31
11.855729542817006
  0
LINE
  5
4B
330
17
100
AcDbEntity
  8
0
100
AcDbLine
 10
40.0
 20
12.317705808036742
 30
13.896012463817218
 11
40.0
 21
11.089854775661644
 31
14.207194868965946
  0
LINE
  5
4C
330
17
100
AcDbEntity
  8
0
100
AcDbLine
 10
40.0
 20
14.88390339570478
 30
17.90307437482699
 11
40.0
 21
12.44787104156886
 31
17.247142410744885
  0
LINE
  5
4D
330
17
100
AcDbEntity
  8
0
100
AcDbLine
 10
40.0
 20
17.698296027499747
 30
13.406017090179724
 11
40.0
 21
17.004253474631355
 31
13.746791179534418
  0
LINE
  5
4E
330
17
100
AcDbEntity
  8
0
100
AcDbLine
 10
40.0
 20
14.167654119803094
 30
19.000444965385576
 11
40.0
 21
15.078850522843487
 31
18.366945831445637
  0
LINE
  5
4F
330
17
100
AcDbEntity
  8
0
100
AcDbLine
 10
40.0
 20
15.091630906843026
 30
15.042016012945476
 11
40.0
 21
13.778751457876158
 31
12.789560856105114
  0
LINE
  5
50
330
17
100
AcDbEntity
  8
0
100
AcDbLine
 10
40.0
 20
12.878287319737828
 30
13.08392056692876
 11
40.0
 21
12.151666426662509
 31
14.360863317552601
  0
LINE
  5
51
330
17
100
AcDbEntity
  8
0
100
AcDbLine
 10
40.0
 20
16.13185836780189
 30
18.944418647726174
 11
40.0
 21
14.53553312965473
 31
19.20268215472886
  0
LINE
  5
52
330
17
100
AcDbEntity
  8
0
100
AcDbLine
 10
40.0
 20
18.971373173793662
 30
11.96220555098406
 11
40.0
 21
18.849984415307024
 31
12.021053968099483
  0
LINE
  5
53
330
17
100
AcDbEntity
  8
0
100
AcDbLine
 10
40.0
 20
14.694765513149873
 30
13.025098881748166
 11
40.0
 21
14.14649258512258
 31
12.427589820810766
  0
LINE
  5
54
330
17
100
AcDbEntity
  8
0
100
AcDbLine
 10
40.0
 20
19.071683694328105
 30
13.175491995837563
 11
40.0
 21
19.469985521818604
 31
12.759636316413767
  0
LINE
  5
55
330
17
100
AcDbEntity
  8
0
100
AcDbLine
 10
40.0
 20
18.195712907178574
 30
11.154558670985573
 11
40.0
 21
17.253415540537027
 31
13.973880892539475
  0
LINE
  5
56
330
17
100
AcDbEntity
  8
0
100
AcDbLine
 10
40.0
 20
14.86109422525983
 30
15.52579906597356
 11
40.0
 21
15.021289935689133
 31
14.895733183015565
  0
LINE
  5
57
330
17
100
AcDbEntity
  8
0
100
AcDbLine
 10
40.0
 20
18.40340685094855
 30
14.962209407557998
 11
40.0
 21
18.816581849682162
 31
13.831187542529511
  0
LINE
  5
58
330
17
100
AcDbEntity
  8
0
100
AcDbLine
 10
40.0
 20
15.975621727426546
 30
19.693852805497954
 11
40.0
 21
16.06592634687458
 31
19.885058957990026
  0
LINE
  5
59
330
17
100
AcDbEntity
  8
0
100
AcDbLine
 10
40.0
 20
12.370932025734241
 30
16.171822099634756
 11
40.0
 21
11.344387846560847
 31
15.608674420577053
  0
LINE
  5
5A
330
17
100
AcDbEntity
  8
0
100
AcDbLine
 10
40.0
 20
13.709991314967436
 30
18.776701464125978
 11
40.0
 21
13.74917636570759
 31
18.485371899947193
  0
LINE
  5
5B
330
17
100
AcDbEntity
  8
0
100
AcDbLine
 10
40.0
 20
15.27429353274332
 30
10.497511394820899
 11
40.0
 21
15.123816087765665
 31
10.001533277452936
  0
LINE
  5
5C
330
17
100
AcDbEntity
  8
0
100
AcDbLine
 10
40.0
 20
15.684314465980341
 30
12.913251184273602
 11
40.0
 21
15.994726760196109
 31
12.453612039271002
  0
LINE
  5
5D
330
17
100
AcDbEntity
  8
0
100
AcDbLine
 10
40.0
 20
10.00928614707366
 30
15.304590279242676
 11
40.0
 21
10.160653964723881
 31
15.297234866357133
  0
LINE
  5
5E
330
17
100
AcDbEntity
  8
0
100
AcDbLine
 10
40.0
 20
16.70281251343869
 30
13.571095685489455
 11
40.0
 21
17.4602870362562
 31
14.468558220464422
  0
LINE
  5
5F
330
17
100
AcDbEntity
  8
0
100
AcDbLine
 10
40.0
 20
19.891867789424794
 30
16.03422895472337
 11
40.0
 21
19.13978827045819
 31
15.324317834181008
  0
LINE
  5
60
330
17
100
AcDbEntity
  8
0
100
AcDbLine
 10
40.0
 20
16.35228628798971
 30
17.885906704304023
 11
40.0
 21
15.072962975474345
 31
18.297580399520797
  0
LINE
  5
61
330
17
100
AcDbEntity
  8
0
100
AcDbLine
 10
40.0
 20
16.138632120000114
 30
14.816566588559562
 11
40.0
 21
16.184537097371297
 31
13.935736497823385
  0
LINE
  5
62
330
17
100
AcDbEntity
  8
0
100
AcDbLine
 10
40.0
 20
11.699292156098771
 30
11.244293977264872
 11
40.0
 21
12.078068814592896
 31
11.506953917448655
  0
LINE
  5
63
330
17
100
AcDbEntity
  8
0
100
AcDbLine
 10
40.0
 20
11.066171694447446
 30
18.001875500129305
 11
40.0
 21
11.153179892241875
 31
18.194053076977237
  0
LINE
  5
64
330
17
100
AcDbEntity
  8
0
100
AcDbLine
 10
40.0
 20
15.947439662860583
 30
14.43229740426813
 11
40.0
 21
15.964299566173622
 31
14.368589854774674
  0
LINE
  5
65
330
17
100
AcDbEntity
  8
0
100
AcDbLine
 10
40.0
 20
15.633596143354298
 30
18.078764711669766
 11
40.0
 21
14.421280061983133
 31
16.9326858308533
  0
LINE
  5
66
330
17
100
AcDbEntity
  8
0
100
AcDbLine
 10
40.0
 20
16.898607137523324
 30
16.786117346844616
 11
40.0
 21
15.666430026916775
 31
16.542451168582197
  0
LINE
  5
67
330
17
100
AcDbEntity
  8
0
100
AcDbLine
 10
40.0
 20
19.7711161396696
 30
16.49547677407048
 11
40.0
 21
18.87598354705924
 31
16.56960184982941
  0
LINE
  5
68
330
17
100
AcDbEntity
  8
0
100
AcDbLine
 10
40.0
 20
11.105550135601234
 30
18.135802967930932
 11
40.0
 21
12.096951056858696
 31
17.16424002979204
  0
LINE
  5
69
330
17
100
AcDbEntity
  8
0
100
AcDbLine
 10
40.0
 20
17.344275787680015
 30
19.219692551277134
 11
40.0
 21
17.319515066289927
 31
19.429429969787762
  0
LINE
  5
6A
330
17
100
AcDbEntity
  8
0
100
AcDbLine
 10
40.0
 20
17.58440916464946
 30
19.280283783778348
 11
40.0
 21
16.79975446899426
 31
18.84581182223673
  0
LINE
  5
6B
330
17
100
AcDbEntity
  8
0
100
AcDbLine
 10
40.0
 20
15.740398473774505
 30
19.608782608614057
 11
40.0
 21
15.399744785308611
 31
19.983994793999948
  0
LINE
  5
6C
330
17
100
AcDbEntity
  8
0
100
AcDbLine
 10
40.0
 20
12.830862832665122
 30
15.006328846399885
 11
40.0
 21
12.97988025971645
 31
16.014383357528825
  0
LINE
  5
6D
330
17
100
AcDbEntity
  8
0
100
AcDbLine
 10
40.0
 20
15.883094743720408
 30
10.603313673715071
 11
40.0
 21
15.509983390190273
 31
11.111152347060635
  0
LINE
  5
6E
330
17
100
AcDbEntity
  8
0
100
AcDbLine
 10
40.0
 20
16.73348578452048
 30
13.649404032024991
 11
40.0
 21
16.859838801783877
 31
14.655023095271387
  0
LINE
  5
6F
330
17
100
AcDbEntity
  8
0
100
AcDbLine
 10
40.0
 20
14.473949366563673
 30
19.972250067229247
 11
40.0
 21
13.309473537481821
 31
18.70643670330284
  0
LINE
  5
70
330
17
100
AcDbEntity
  8
0
100
AcDbLine
 10
40.0
 20
19.963257627448556
 30
14.781802740862508
 11
40.0
 21
19.983220209204745
 31
14.59071239137567
  0
LINE
  5
71
330
17
100
AcDbEntity
  8
0
100
AcDbLine
 10
40.0
 20
15.868968404060535
 30
17.619749043265916
 11
40.0
 21
12.867677794862194
 31
18.322348598001984
  0
LINE
  5
72
330
17
100
AcDbEntity
  8
0
100
AcDbLine
 10
40.0
 20
18.619307947132874
 30
13.168119469505811
 11
40.0
 21
13.020106328308803
 31
17.635843077251092
  0
LINE
  5
73
330
17
100
AcDbEntity
  8
0
100
AcDbLine
 10
40.0
 20
17.435274543055904
 30
17.574653824778917
 11
40.0
 21
17.933688469516277
 31
17.25485145784909
  0
LINE
  5
74
330
17
100
AcDbEntity
  8
0
100
AcDbLine
 10
40.0
 20
12.376052564225743
 30
13.674857727838997
 11
40.0
 21
11.707595251060964
 31
13.632855965631775
  0
LINE
  5
75
330
17
100
AcDbEntity
  8
0
100
AcDbLine
 10
40.0
 20
16.68496597513711
 30
15.9716474307498
 11
40.0
 21
15.828664495143059
 31
16.98940269464126
  0
LINE
  5
76
330
17
100
AcDbEntity
  8
0
100
AcDbLine
 10
40.0
 20
17.64770881888582
 30
17.43927220909376
 11
40.0
 21
16.760815469086772
 31
17.0844956451299
  0
LINE
  5
77
330
17
100
AcDbEntity
  8
0
100
AcDbLine
 10
40.0
 20
14.644705060289555
 30
17.928225035110717
 11
40.0
 21
15.742615444552357
 31
18.2948140679752
  0
LINE
  5
78
330
17
100
AcDbEntity
  8
0
100
AcDbLine
 10
40.0
 20
18.922977063590572
 30
15.054307233567052
 11
40.0
 21
19.99975227407608
 31
15.049771456389081
  0
LINE
  5
79
330
17
100
AcDbEntity
  8
0
100
AcDbLine
 10
40.0
 20
14.729777107571433
 30
10.565773692303875
 11
40.0
 21
13.827124938677265
 31
11.276895293387339
  0
LINE
  5
7A
330
17
100
AcDbEntity
  8
0
100
AcDbLine
 10
40.0
 20
16.763702613726736
 30
17.29509663742086
 11
40.0
 21
17.85409723438337
 31
16.11040117961915
  0
LINE
  5
7B
330
17
100
AcDbEntity
  8
0
100
AcDbLine
 10
40.0
 20
11.218349482578478
 30
15.081342747088513
 11
40.0
 21
11.851725262455817
 31
14.40786816762783
  0
LINE
  5
7C
330
17
100
AcDbEntity
  8
0
100
AcDbLine
 10
40.0
 20
17.65139155706783
 30
15.403188729957126
 11
40.0
 21
16.593480174468976
 31
14.7777555216429
  0
LINE
  5
7D
330
17
100
AcDbEntity
  8
0
100
AcDbLine
 10
40.0
 20
14.682651622635847
 30
19.077873657104462
 11
40.0
 21
13.698126950123214
 31
18.66723630334287
  0
LINE
  5
7E
330
17
100
AcDbEntity
  8
0
100
AcDbLine
 10
40.0
 20
13.981285866860985
 30
19.895122216548103
 11
40.0
 21
13.286834293433378
 31
16.306925637513352
  0
ENDSEC
  0
SECTION
  2
OBJECTS
  0
DICTIONARY
  5
A
330
0
100
AcDbDictionary
281
1
  3
ACAD_COLOR
350
B
  3
ACAD_GROUP
350
C
  3
ACAD_LAYOUT
350
D
  3
ACAD_MATERIAL
350
E
  3
ACAD_MLEADERSTYLE
350
F
  3
ACAD_MLINESTYLE
350
10
  3
ACAD_PLOTSETTINGS
350
11
  3
ACAD_PLOTSTYLENAME
350
12
  3
ACAD_SCALELIST
350
14
  3
ACAD_TABLESTYLE
350
15
  3
ACAD_VISUALSTYLE
350
16
  3
EZDXF_META
350
2D
  0
DICTIONARY
  5
B
330
A
100
AcDbDictionary
281
1
  0
DICTIONARY
  5
C
330
A
100
AcDbDictionary
281
1
  0
DICTIONARY
  5
D
330
A
100
AcDbDictionary
281
1
  3
Model
350
1A
  3
Layout1
350
1E
  0
DICTIONARY
  5
E
330
A
100
AcDbDictionary
281
1
  3
ByBlock
350
1F
  3
ByLayer
350
20
  3
Global
350
21
  0
DICTIONARY
  5
F
330
A
100
AcDbDictionary
281
1
  3
Standard
350
2C
  0
DICTIONARY
  5
10
330
A
100
AcDbDictionary
281
1
  3
Standard
350
22
  0
DICTIONARY
  5
11
330
A
100
AcDbDictionary
281
1
  0
ACDBDICTIONARYWDFLT
  5
12
330
A
100
AcDbDictionary
281
1
  3
Normal
350
13
100
AcDbDictionaryWithDefault
340
13
  0
ACDBPLACEHOLDER
  5
13
330
12
  0
DICTIONARY
  5
14
330
A
100
AcDbDictionary
281
1
  0
DICTIONARY
  5
15
330
A
100
AcDbDictionary
281
1
  0
DICTIONARY
  5
16
330
A
100
AcDbDictionary
281
1
  0
LAYOUT
  5
1A
330
D
100
AcDbPlotSettings
  1

  4
A3
  6

 40
7.5
 41
20.0
 42
7.5
 43
20.0
 44
420.0
 45
297.0
 46
0.0
 47
0.0
 48
0.0
 49
0.0
140
0.0
141
0.0
142
1.0
143
1.0
 70
1024
 72
1
 73
0
 74
5
  7

 75
16
 76
0
 77
2
 78
300
147
1.0
148
0.0
149
0.0
100
AcDbLayout
  1
Model
 70
1
 71
0
 10
0.0
 20
0.0
 11
420.0
 21
297.0
 12
0.0
 22
0.0
 32
0.0
 14
1e+20
 24
1e+20
 34
1e+20
 15
-1e+20
 25
-1e+20
 35
-1e+20
146
0.0
 13
0.0
 23
0.0
 33
0.0
 16
1.0
 26
0.0
 36
0.0
 17
0.0
 27
1.0
 37
0.0
 76
1
330
17
  0
LAYOUT
  5
1E
330
D
100
AcDbPlotSettings
  1

  4
A3
  6

 40
7.5
 41
20.0
 42
7.5
 43
20.0
 44
420.0
 45
297.0
 46
0.0
 47
0.0
 48
0.0
 49
0.0
140
0.0
141
0.0
142
1.0
143
1.0
 70
0
 72
1
 73
0
 74
5
  7

 75
16
 76
0
 77
2
 78
300
147
1.0
148
0.0
149
0.0
100
AcDbLayout
  1
Layout1
 70
1
 71
1
 10
0.0
 20
0.0
 11
420.0
 21
297.0
 12
0.0
 22
0.0
 32
0.0
 14
1e+20
 24
1e+20
 34
1e+20
 15
-1e+20
 25
-1e+20
 35
-1e+20
146
0.0
 13
0.0
 23
0.0
 33
0.0
 16
1.0
 26
0.0
 36
0.0
 17
0.0
 27
1.0
 37
0.0
 76
1
330
1B
  0
MATERIAL
  5
1F
102
{ACAD_REACTORS
330
E
102
}
330
E
100
AcDbMaterial
  1
ByBlock
  2

 70
0
 40
1.0
 71
1
 41
1.0
 91
-1023410177
 42
1.0
 72
1
  3

 73
1
 74
1
 75
1
 44
0.5
 73
0
 45
1.0
 46
1.0
 77
1
  4

 78
1
 79
1
170
1
 48
1.0
171
1
  6

172
1
173
1
174
1
140
1.0
141
1.0
175
1
  7

176
1
177
1
178
1
143
1.0
179
1
  8

270
1
271
1
272
1
145
1.0
146
1.0
273
1
  9

274
1
275
1
276
1
 42
1.0
 72
1
  3

 73
1
 74
1
 75
1
 94
63
  0
MATERIAL
  5
20
102
{ACAD_REACTORS
330
E
102
}
330
E
100
AcDbMaterial
  1
ByLayer
  2

 70
0
 40
1.0
 71
1
 41
1.0
 91
-1023410177
 42
1.0
 72
1
  3

 73
1
 74
1
 75
1
 44
0.5
 73
0
 45
1.0
 46
1.0
 77
1
  4

 78
1
 79
1
170
1
 48
1.0
171
1
  6

172
1
173
1
174
1
140
1.0
141
1.0
175
1
  7

176
1
177
1
178
1
143
1.0
179
1
  8

270
1
271
1
272
1
145
1.0
146
1.0
273
1
  9

274
1
275
1
276
1
 42
1.0
 72
1
  3

 73
1
 74
1
 75
1
 94
63
  0
MATERIAL
  5
21
102
{ACAD_REACTORS
330
E
102
}
330
E
100
AcDbMaterial
  1
Global
  2

 70
0
 40
1.0
 71
1
 41
1.0
 91
-1023410177
 42
1.0
 72
1
  3

 73
1
 74
1
 75
1
 44
0.5
 73
0
 45
1.0
 46
1.0
 77
1
  4

 78
1
 79
1
170
1
 48
1.0
171
1
  6

172
1
173
1
174
1
140
1.0
141
1.0
175
1
  7

176
1
177
1
178
1
143
1.0
179
1
  8

270
1
271
1
272
1
145
1.0
146
1.0
273
1
  9

274
1
275
1
276
1
 42
1.0
 72
1
  3

 73
1
 74
1
 75
1
 94
63
  0
MLINESTYLE
  5
22
102
{ACAD_REACTORS
330
10
102
}
330
10
100
AcDbMlineStyle
  2
Standard
 70
0
  3

 62
256
 51
90.0
 52
90.0
 71
2
 49
0.5
 62
256
  6
BYLAYER
 49
-0.5
 62
256
  6
BYLAYER
  0
MLEADERSTYLE
  5
2C
102
{ACAD_REACTORS
330
F
102
}
330
F
100
AcDbMLeaderStyle
179
2
170
2
171
1
172
0
 90
2
 40
0.0
 41
0.0
173
1
 91
-1056964608
 92
-2
290
1
 42
2.0
291
1
 43
8.0
  3
Standard
 44
4.0
300

342
29
174
1
175
1
176
0
178
1
 93
-1056964608
 45
4.0
292
0
297
0
 46
4.0
 94
-1056964608
 47
1.0
 49
1.0
140
1.0
294
1
141
0.0
177
0
142
1.0
295
0
296
0
143
3.75
271
0
272
9
273
9
  0
DICTIONARY
  5
2D
330
A
100
AcDbDictionary
280
1
281
1
  3
CREATED_BY_EZDXF
350
2E
  3
WRITTEN_BY_EZDXF
350
82
  0
DICTIONARYVAR
  5
2E
330
2D
100
DictionaryVariables
280
0
  1
1.4.2 @ 2026-06-25T15:00:16.548836+00:00
  0
DICTIONARYVAR
  5
82
330
2D
100
DictionaryVariables
280
0
  1
1.4.2 @ 2026-06-25T15:00:16.552725+00:00
  0
ENDSEC
  0
EOF
